M48
; DRILL file {KiCad 7.0.11-7.0.11~ubuntu22.04.1} date  4.02.2026 (ср)  9:47:16
; FORMAT={-:-/ absolute / metric / decimal}
; #@! TF.CreationDate,2026-02-04T09:47:16+02:00
; #@! TF.GenerationSoftware,Kicad,Pcbnew,7.0.11-7.0.11~ubuntu22.04.1
; #@! TF.FileFunction,Plated,1,4,PTH
FMAT,2
METRIC
; #@! TA.AperFunction,Plated,PTH,ViaDrill
T1C0.400
; #@! TA.AperFunction,Plated,PTH,ViaDrill
T2C0.600
; #@! TA.AperFunction,Plated,PTH,ComponentDrill
T3C0.600
; #@! TA.AperFunction,Plated,PTH,ComponentDrill
T4C0.800
; #@! TA.AperFunction,Plated,PTH,ComponentDrill
T5C1.000
; #@! TA.AperFunction,Plated,PTH,ComponentDrill
T6C1.200
%
G90
G05
T1
X5.738Y9.963
X6.15Y7.95
X6.15Y5.55
X6.389Y11.68
X6.89Y16.11
X6.929Y22.65
X7.09Y35.632
X7.097Y28.892
X7.1Y39.65
X7.1Y38.9
X7.159Y36.6
X7.162Y11.122
X7.2Y5.9
X7.32Y18.172
X7.436Y20.4
X7.518Y17.268
X7.55Y10.25
X7.561Y13.05
X7.753Y23.754
X7.782Y26.013
X8.107Y7.993
X8.107Y5.6
X8.218Y17.849
X8.65Y19.4
X8.663Y20.3
X8.9Y18.5
X9.489Y15.758
X9.8Y36.6
X9.82Y18.8
X9.913Y8.405
X10.0Y28.1
X10.0Y12.5
X10.0Y11.7
X10.0Y10.7
X10.125Y14.15
X10.249Y16.36
X10.539Y19.622
X10.6Y24.236
X10.605Y25.155
X10.61Y21.647
X10.685Y20.631
X10.749Y23.279
X10.904Y15.742
X10.915Y35.3
X11.781Y19.638
X11.9Y36.6
X11.9Y35.3
X11.905Y34.5
X12.0Y10.8
X12.2Y15.8
X12.532Y26.9
X12.6Y12.8
X12.963Y25.654
X12.966Y10.741
X13.046Y17.1
X13.4Y12.8
X13.425Y8.026
X13.435Y45.142
X13.864Y25.654
X13.912Y34.35
X13.912Y33.6
X13.987Y20.846
X13.993Y10.701
X14.0Y7.4
X14.152Y26.506
X14.25Y31.0
X14.569Y12.025
X14.656Y19.322
X14.803Y45.145
X14.918Y36.924
X14.918Y36.15
X15.0Y6.3
X15.0Y8.5
X15.0Y10.7
X15.054Y20.834
X15.282Y42.382
X15.462Y26.062
X15.463Y19.755
X15.66Y27.2
X16.121Y20.846
X16.13Y30.974
X16.13Y30.25
X16.212Y11.988
X16.4Y36.092
X16.4Y35.288
X16.4Y27.206
X16.4Y26.44
X16.6Y31.5
X16.7Y39.2
X16.985Y11.128
X17.0Y4.05
X17.026Y26.814
X17.74Y20.04
X18.0Y10.7
X18.2Y37.1
X18.21Y12.26
X18.376Y20.676
X18.44Y22.194
X18.44Y25.01
X18.5Y23.45
X18.6Y31.25
X18.6Y30.5
X18.6Y29.75
X18.9Y37.35
X18.991Y10.59
X19.1Y15.6
X19.112Y12.272
X19.3Y32.25
X19.4Y31.25
X19.5Y33.8
X19.5Y33.0
X19.65Y37.35
X19.675Y14.0
X19.852Y7.284
X20.093Y15.499
X20.2Y46.6
X20.2Y13.3
X20.25Y29.5
X20.366Y19.804
X20.45Y21.95
X20.488Y7.92
X20.7Y43.7
X20.7Y42.9
X20.8Y45.9
X20.8Y45.0
X20.8Y33.95
X20.8Y33.2
X20.814Y17.511
X21.1Y19.046
X21.146Y13.392
X21.183Y19.942
X21.45Y30.75
X21.5Y43.7
X21.5Y42.9
X21.6Y33.95
X21.6Y33.2
X21.6Y4.5
X21.659Y21.459
X22.202Y26.275
X22.373Y24.447
X22.513Y42.52
X22.59Y20.048
X22.825Y6.2
X22.829Y17.345
X23.018Y18.28
X23.107Y26.193
X23.2Y21.9
X23.223Y24.34
X23.268Y23.228
X23.295Y12.131
X23.8Y25.6
X26.4Y22.9
T2
X8.5Y44.5
X8.5Y43.3
X9.572Y46.522
X10.177Y50.095
X10.75Y46.522
X10.75Y34.5
X11.5Y48.75
X13.5Y48.75
X15.5Y48.75
X16.3Y1.0
X17.45Y1.0
X17.5Y48.75
X18.813Y50.095
X20.5Y34.8
X21.5Y34.8
T3
X13.3Y24.45
X13.3Y21.98
X15.7Y24.45
X15.7Y22.05
T5
X1.8Y49.63
X1.8Y47.09
X1.8Y44.55
X1.8Y42.01
X1.8Y39.47
X1.8Y36.93
X1.8Y34.39
X1.8Y31.85
X1.8Y29.31
X1.8Y26.77
X1.8Y24.23
X1.8Y21.69
X1.8Y19.15
X1.8Y16.61
X1.8Y14.07
X1.8Y11.53
X1.8Y8.99
X1.8Y6.45
X1.8Y3.91
X1.8Y1.37
X4.34Y49.63
X4.34Y47.09
X4.34Y44.55
X4.34Y42.01
X4.34Y39.47
X4.34Y36.93
X4.34Y34.39
X4.34Y31.85
X4.34Y29.31
X4.34Y26.77
X4.34Y24.23
X4.34Y21.69
X4.34Y19.15
X4.34Y16.61
X4.34Y14.07
X4.34Y11.53
X4.34Y8.99
X4.34Y6.45
X4.34Y3.91
X4.34Y1.37
X24.66Y49.63
X24.66Y47.09
X24.66Y44.55
X24.66Y42.01
X24.66Y39.47
X24.66Y36.93
X24.66Y34.39
X24.66Y31.85
X24.66Y29.31
X24.66Y26.77
X24.66Y24.23
X24.66Y21.69
X24.66Y19.15
X24.66Y16.61
X24.66Y14.07
X24.66Y11.53
X24.66Y8.99
X24.66Y6.45
X24.66Y3.91
X24.66Y1.37
X27.2Y49.63
X27.2Y47.09
X27.2Y44.55
X27.2Y42.01
X27.2Y39.47
X27.2Y36.93
X27.2Y34.39
X27.2Y31.85
X27.2Y29.31
X27.2Y26.77
X27.2Y24.23
X27.2Y21.69
X27.2Y19.15
X27.2Y16.61
X27.2Y14.07
X27.2Y11.53
X27.2Y8.99
X27.2Y6.45
X27.2Y3.91
X27.2Y1.37
T6
X14.5Y23.25
T4
G00X10.18Y48.35
M15
G01X10.18Y48.95
M16
G05
G00X10.18Y44.02
M15
G01X10.18Y44.92
M16
G05
G00X18.82Y48.35
M15
G01X18.82Y48.95
M16
G05
G00X18.82Y44.02
M15
G01X18.82Y44.92
M16
G05
M30
