%TF.GenerationSoftware,KiCad,Pcbnew,7.0.11-7.0.11~ubuntu22.04.1*%
%TF.CreationDate,2026-02-04T09:47:08+02:00*%
%TF.ProjectId,RP2350-PICO2-XXL_Rev_C,52503233-3530-42d5-9049-434f322d5858,C*%
%TF.SameCoordinates,PX81b3200PY6e263e0*%
%TF.FileFunction,Soldermask,Top*%
%TF.FilePolarity,Negative*%
%FSLAX46Y46*%
G04 Gerber Fmt 4.6, Leading zero omitted, Abs format (unit mm)*
G04 Created by KiCad (PCBNEW 7.0.11-7.0.11~ubuntu22.04.1) date 2026-02-04 09:47:08*
%MOMM*%
%LPD*%
G01*
G04 APERTURE LIST*
G04 Aperture macros list*
%AMRoundRect*
0 Rectangle with rounded corners*
0 $1 Rounding radius*
0 $2 $3 $4 $5 $6 $7 $8 $9 X,Y pos of 4 corners*
0 Add a 4 corners polygon primitive as box body*
4,1,4,$2,$3,$4,$5,$6,$7,$8,$9,$2,$3,0*
0 Add four circle primitives for the rounded corners*
1,1,$1+$1,$2,$3*
1,1,$1+$1,$4,$5*
1,1,$1+$1,$6,$7*
1,1,$1+$1,$8,$9*
0 Add four rect primitives between the rounded corners*
20,1,$1+$1,$2,$3,$4,$5,0*
20,1,$1+$1,$4,$5,$6,$7,0*
20,1,$1+$1,$6,$7,$8,$9,0*
20,1,$1+$1,$8,$9,$2,$3,0*%
G04 Aperture macros list end*
%ADD10C,3.000000*%
%ADD11RoundRect,0.050800X-0.400000X-0.400000X0.400000X-0.400000X0.400000X0.400000X-0.400000X0.400000X0*%
%ADD12C,2.201600*%
%ADD13RoundRect,0.050800X-0.250000X-0.275000X0.250000X-0.275000X0.250000X0.275000X-0.250000X0.275000X0*%
%ADD14RoundRect,0.050800X0.250000X0.275000X-0.250000X0.275000X-0.250000X-0.275000X0.250000X-0.275000X0*%
%ADD15RoundRect,0.050800X0.275000X-0.250000X0.275000X0.250000X-0.275000X0.250000X-0.275000X-0.250000X0*%
%ADD16RoundRect,0.050800X-0.275000X0.250000X-0.275000X-0.250000X0.275000X-0.250000X0.275000X0.250000X0*%
%ADD17RoundRect,0.050800X0.850000X-1.000000X0.850000X1.000000X-0.850000X1.000000X-0.850000X-1.000000X0*%
%ADD18RoundRect,0.050800X-0.325000X0.525000X-0.325000X-0.525000X0.325000X-0.525000X0.325000X0.525000X0*%
%ADD19RoundRect,0.050800X-0.600000X-1.550000X0.600000X-1.550000X0.600000X1.550000X-0.600000X1.550000X0*%
%ADD20RoundRect,0.050800X-0.300000X-0.775000X0.300000X-0.775000X0.300000X0.775000X-0.300000X0.775000X0*%
%ADD21RoundRect,0.050800X-0.300000X0.525000X-0.300000X-0.525000X0.300000X-0.525000X0.300000X0.525000X0*%
%ADD22C,0.701600*%
%ADD23RoundRect,0.050800X0.550000X1.100000X-0.550000X1.100000X-0.550000X-1.100000X0.550000X-1.100000X0*%
%ADD24O,1.301600X2.301600*%
%ADD25RoundRect,0.050800X0.550000X1.000000X-0.550000X1.000000X-0.550000X-1.000000X0.550000X-1.000000X0*%
%ADD26O,1.401600X2.101600*%
%ADD27RoundRect,0.050800X0.150000X0.575000X-0.150000X0.575000X-0.150000X-0.575000X0.150000X-0.575000X0*%
%ADD28RoundRect,0.050800X0.125000X0.575000X-0.125000X0.575000X-0.125000X-0.575000X0.125000X-0.575000X0*%
%ADD29RoundRect,0.050800X-0.450000X-0.900000X0.450000X-0.900000X0.450000X0.900000X-0.450000X0.900000X0*%
%ADD30RoundRect,0.050800X0.700000X0.600000X-0.700000X0.600000X-0.700000X-0.600000X0.700000X-0.600000X0*%
%ADD31RoundRect,0.050800X0.508000X0.508000X-0.508000X0.508000X-0.508000X-0.508000X0.508000X-0.508000X0*%
%ADD32RoundRect,0.050800X-0.390000X-0.100000X0.390000X-0.100000X0.390000X0.100000X-0.390000X0.100000X0*%
%ADD33RoundRect,0.050800X-0.390000X0.100000X-0.390000X-0.100000X0.390000X-0.100000X0.390000X0.100000X0*%
%ADD34RoundRect,0.050800X-0.100000X-0.390000X0.100000X-0.390000X0.100000X0.390000X-0.100000X0.390000X0*%
%ADD35RoundRect,0.050800X-0.100000X0.390000X-0.100000X-0.390000X0.100000X-0.390000X0.100000X0.390000X0*%
%ADD36RoundRect,0.050800X0.100000X-0.390000X0.100000X0.390000X-0.100000X0.390000X-0.100000X-0.390000X0*%
%ADD37C,1.901600*%
%ADD38RoundRect,0.050800X-1.800000X-1.800000X1.800000X-1.800000X1.800000X1.800000X-1.800000X1.800000X0*%
%ADD39RoundRect,0.050800X0.900000X-0.450000X0.900000X0.450000X-0.900000X0.450000X-0.900000X-0.450000X0*%
%ADD40RoundRect,0.050800X0.350000X0.125000X-0.350000X0.125000X-0.350000X-0.125000X0.350000X-0.125000X0*%
%ADD41RoundRect,0.050800X-0.300000X-1.100000X0.300000X-1.100000X0.300000X1.100000X-0.300000X1.100000X0*%
%ADD42RoundRect,0.050800X-0.889000X0.889000X-0.889000X-0.889000X0.889000X-0.889000X0.889000X0.889000X0*%
%ADD43C,1.879600*%
G04 APERTURE END LIST*
D10*
%TO.C,FID1*%
X9450000Y1500000D03*
%TD*%
D11*
%TO.C,LED1*%
X15262000Y1000000D03*
X13738000Y1000000D03*
%TD*%
D10*
%TO.C,FID3*%
X7500000Y46500000D03*
%TD*%
%TO.C,FID2*%
X19500000Y1500000D03*
%TD*%
D12*
%TO.C,MH1*%
X7500000Y2000000D03*
%TD*%
%TO.C,MH2*%
X21500000Y2000000D03*
%TD*%
D13*
%TO.C,R10*%
X17758000Y42000000D03*
D14*
X16742000Y42000000D03*
%TD*%
D15*
%TO.C,R7*%
X14700000Y33008000D03*
D16*
X14700000Y31992000D03*
%TD*%
D17*
%TO.C,D1*%
X22000000Y40750000D03*
X22000000Y45750000D03*
%TD*%
D15*
%TO.C,R6*%
X15600000Y33008000D03*
D16*
X15600000Y31992000D03*
%TD*%
D15*
%TO.C,R18*%
X8400000Y15258000D03*
D16*
X8400000Y14242000D03*
%TD*%
D15*
%TO.C,R17*%
X7300000Y15258000D03*
D16*
X7300000Y14242000D03*
%TD*%
D18*
%TO.C,RST1*%
X8325000Y8825000D03*
X8325000Y4675000D03*
X6175000Y8825000D03*
X6175000Y4675000D03*
%TD*%
D14*
%TO.C,R5*%
X9742000Y42000000D03*
D13*
X10758000Y42000000D03*
%TD*%
D14*
%TO.C,R12*%
X14792000Y40500000D03*
D13*
X15808000Y40500000D03*
%TD*%
%TO.C,R8*%
X23008000Y28150000D03*
D14*
X21992000Y28150000D03*
%TD*%
%TO.C,R4*%
X21992000Y29250000D03*
D13*
X23008000Y29250000D03*
%TD*%
D19*
%TO.C,pUEXT1*%
X8700000Y11350000D03*
X20300000Y11350000D03*
D20*
X10000000Y9575000D03*
X11000000Y9575000D03*
X12000000Y9575000D03*
X13000000Y9575000D03*
X14000000Y9575000D03*
X15000000Y9575000D03*
X16000000Y9575000D03*
X17000000Y9575000D03*
X18000000Y9575000D03*
X19000000Y9575000D03*
%TD*%
D18*
%TO.C,BOOT1*%
X22825000Y8825000D03*
X22825000Y4675000D03*
D21*
X20675000Y8825000D03*
D18*
X20675000Y4675000D03*
%TD*%
D13*
%TO.C,R15*%
X12508000Y1000000D03*
D14*
X11492000Y1000000D03*
%TD*%
D22*
%TO.C,USB-C1*%
X11610000Y44970000D03*
X17390000Y44970000D03*
D23*
X9572400Y44470000D03*
D24*
X10180000Y44470000D03*
X18820000Y44470000D03*
D23*
X19427600Y44470000D03*
D25*
X9572400Y48650000D03*
D26*
X10180000Y48650000D03*
X18820000Y48650000D03*
D25*
X19427600Y48650000D03*
D27*
X17825000Y43568000D03*
X17025000Y43568000D03*
D28*
X15750000Y43568000D03*
X14750000Y43568000D03*
X14250000Y43568000D03*
X13250000Y43568000D03*
D27*
X11975000Y43568000D03*
X11175000Y43568000D03*
X11425000Y43568000D03*
X12225000Y43568000D03*
D28*
X12750000Y43568000D03*
X13750000Y43568000D03*
X15250000Y43568000D03*
X16250000Y43568000D03*
D27*
X16775000Y43568000D03*
X17575000Y43568000D03*
%TD*%
D13*
%TO.C,C10*%
X8258000Y28200000D03*
D14*
X7242000Y28200000D03*
%TD*%
D15*
%TO.C,C4*%
X7500000Y19708000D03*
D16*
X7500000Y18692000D03*
%TD*%
D13*
%TO.C,R13*%
X15808000Y38100000D03*
D14*
X14792000Y38100000D03*
%TD*%
%TO.C,C17*%
X22092000Y22400000D03*
D13*
X23108000Y22400000D03*
%TD*%
D14*
%TO.C,C9*%
X21992000Y30250000D03*
D13*
X23008000Y30250000D03*
%TD*%
D14*
%TO.C,C14*%
X16992000Y31000000D03*
D13*
X18008000Y31000000D03*
%TD*%
D15*
%TO.C,C16*%
X19100000Y15008000D03*
D16*
X19100000Y13992000D03*
%TD*%
%TO.C,C11*%
X13800000Y31992000D03*
D15*
X13800000Y33008000D03*
%TD*%
D12*
%TO.C,MH3*%
X7500000Y49000000D03*
%TD*%
D15*
%TO.C,R3*%
X20250000Y33008000D03*
D16*
X20250000Y31992000D03*
%TD*%
D13*
%TO.C,C3*%
X7208000Y26000000D03*
D14*
X6192000Y26000000D03*
%TD*%
D13*
%TO.C,C23*%
X15808000Y39250000D03*
D14*
X14792000Y39250000D03*
%TD*%
D29*
%TO.C,L1*%
X16800000Y32750000D03*
X18200000Y32750000D03*
%TD*%
D15*
%TO.C,C18*%
X20250000Y31108000D03*
D16*
X20250000Y30092000D03*
%TD*%
%TO.C,R2*%
X21200000Y13992000D03*
D15*
X21200000Y15008000D03*
%TD*%
D30*
%TO.C,Q1*%
X15500000Y15550000D03*
X13300000Y13950000D03*
X15500000Y13950000D03*
X13300000Y15550000D03*
%TD*%
D12*
%TO.C,MH4*%
X21500000Y49000000D03*
%TD*%
D14*
%TO.C,C8*%
X22092000Y21300000D03*
D13*
X23108000Y21300000D03*
%TD*%
D16*
%TO.C,C21*%
X11900000Y14242000D03*
D15*
X11900000Y15258000D03*
%TD*%
D14*
%TO.C,C19*%
X21992000Y27100000D03*
D13*
X23008000Y27100000D03*
%TD*%
D31*
%TO.C,C22*%
X19125000Y40250000D03*
X17347000Y40250000D03*
%TD*%
D15*
%TO.C,C2*%
X20200000Y15008000D03*
D16*
X20200000Y13992000D03*
%TD*%
D14*
%TO.C,C12*%
X21992000Y31250000D03*
D13*
X23008000Y31250000D03*
%TD*%
D14*
%TO.C,C13*%
X16992000Y30000000D03*
D13*
X18008000Y30000000D03*
%TD*%
D32*
%TO.C,U3*%
X9603500Y27050000D03*
X9603500Y26650000D03*
X9603500Y26250000D03*
X9603500Y25850000D03*
X9603500Y25450000D03*
X9603500Y25050000D03*
X9603500Y24650000D03*
X9603500Y24250000D03*
X9603500Y23850000D03*
X9603500Y23450000D03*
X9603500Y23050000D03*
X9603500Y22650000D03*
X9603500Y22250000D03*
X9603500Y21850000D03*
X9603500Y21450000D03*
D33*
X9603500Y21050000D03*
X9603500Y20650000D03*
X9603500Y20250000D03*
X9603500Y19850000D03*
X9603500Y19450000D03*
D34*
X10700000Y18353500D03*
X11100000Y18353500D03*
X11500000Y18353500D03*
X11900000Y18353500D03*
X12300000Y18353500D03*
X12700000Y18353500D03*
X13100000Y18353500D03*
X13500000Y18353500D03*
X13900000Y18353500D03*
X14300000Y18353500D03*
D35*
X14700000Y18353500D03*
X15100000Y18353500D03*
X15500000Y18353500D03*
X15900000Y18353500D03*
X16300000Y18353500D03*
X16700000Y18353500D03*
X17100000Y18353500D03*
X17500000Y18353500D03*
X17900000Y18353500D03*
X18300000Y18353500D03*
D32*
X19396500Y19450000D03*
X19396500Y19850000D03*
X19396500Y20250000D03*
X19396500Y20650000D03*
X19396500Y21050000D03*
D33*
X19396500Y21450000D03*
X19396500Y21850000D03*
X19396500Y22250000D03*
X19396500Y22650000D03*
X19396500Y23050000D03*
X19396500Y23450000D03*
X19396500Y23850000D03*
X19396500Y24250000D03*
X19396500Y24650000D03*
X19396500Y25050000D03*
X19396500Y25450000D03*
X19396500Y25850000D03*
X19396500Y26250000D03*
X19396500Y26650000D03*
X19396500Y27050000D03*
D36*
X18300000Y28146500D03*
X17900000Y28146500D03*
X17500000Y28146500D03*
X17100000Y28146500D03*
X16700000Y28146500D03*
D34*
X16300000Y28146500D03*
X15900000Y28146500D03*
X15500000Y28146500D03*
X15100000Y28146500D03*
X14700000Y28146500D03*
X14300000Y28146500D03*
X13900000Y28146500D03*
X13500000Y28146500D03*
X13100000Y28146500D03*
X12700000Y28146500D03*
X12300000Y28146500D03*
X11900000Y28146500D03*
X11500000Y28146500D03*
X11100000Y28146500D03*
X10700000Y28146500D03*
D37*
X14500000Y23250000D03*
D38*
X14500000Y23250000D03*
%TD*%
D39*
%TO.C,L2*%
X21750000Y36550000D03*
X21750000Y37950000D03*
%TD*%
D14*
%TO.C,C7*%
X21992000Y19250000D03*
D13*
X23008000Y19250000D03*
%TD*%
D40*
%TO.C,U2*%
X19000000Y37750000D03*
X19000000Y38250000D03*
X19000000Y38750000D03*
X17500000Y38750000D03*
X17500000Y38250000D03*
X17500000Y37750000D03*
%TD*%
D15*
%TO.C,C20*%
X16900000Y15008000D03*
D16*
X16900000Y13992000D03*
%TD*%
D31*
%TO.C,C24*%
X19139000Y36250000D03*
X17361000Y36250000D03*
%TD*%
D15*
%TO.C,R11*%
X22800000Y11208000D03*
D16*
X22800000Y10192000D03*
%TD*%
D15*
%TO.C,R1*%
X7000000Y35008000D03*
D16*
X7000000Y33992000D03*
%TD*%
%TO.C,C1*%
X7000000Y37242000D03*
D15*
X7000000Y38258000D03*
%TD*%
D41*
%TO.C,U1*%
X8085000Y32085000D03*
X9355000Y32085000D03*
X10625000Y32085000D03*
X11895000Y32085000D03*
X11895000Y38555000D03*
X10625000Y38555000D03*
X9355000Y38555000D03*
X8085000Y38555000D03*
%TD*%
D16*
%TO.C,R9*%
X18000000Y13992000D03*
D15*
X18000000Y15008000D03*
%TD*%
D31*
%TO.C,C25*%
X19139000Y34750000D03*
X17361000Y34750000D03*
%TD*%
D15*
%TO.C,R14*%
X15800000Y37108000D03*
D16*
X15800000Y36092000D03*
%TD*%
D19*
%TO.C,QWST1*%
X11700000Y6350000D03*
X17300000Y6350000D03*
D20*
X13000000Y4575000D03*
X14000000Y4575000D03*
X15000000Y4575000D03*
X16000000Y4575000D03*
%TD*%
D13*
%TO.C,C15*%
X7708000Y23250000D03*
D14*
X6692000Y23250000D03*
%TD*%
D15*
%TO.C,C6*%
X10750000Y15258000D03*
D16*
X10750000Y14242000D03*
%TD*%
D15*
%TO.C,C5*%
X9500000Y15258000D03*
D16*
X9500000Y14242000D03*
%TD*%
D42*
%TO.C,EXT1*%
X4340000Y49630000D03*
D43*
X1800000Y49630000D03*
X4340000Y47090000D03*
X1800000Y47090000D03*
X4340000Y44550000D03*
X1800000Y44550000D03*
X4340000Y42010000D03*
X1800000Y42010000D03*
X4340000Y39470000D03*
X1800000Y39470000D03*
X4340000Y36930000D03*
X1800000Y36930000D03*
X4340000Y34390000D03*
X1800000Y34390000D03*
X4340000Y31850000D03*
X1800000Y31850000D03*
X4340000Y29310000D03*
X1800000Y29310000D03*
X4340000Y26770000D03*
X1800000Y26770000D03*
X4340000Y24230000D03*
X1800000Y24230000D03*
X4340000Y21690000D03*
X1800000Y21690000D03*
X4340000Y19150000D03*
X1800000Y19150000D03*
X4340000Y16610000D03*
X1800000Y16610000D03*
X4340000Y14070000D03*
X1800000Y14070000D03*
X4340000Y11530000D03*
X1800000Y11530000D03*
X4340000Y8990000D03*
X1800000Y8990000D03*
X4340000Y6450000D03*
X1800000Y6450000D03*
X4340000Y3910000D03*
X1800000Y3910000D03*
X4340000Y1370000D03*
X1800000Y1370000D03*
%TD*%
D42*
%TO.C,EXT2*%
X27200000Y49630000D03*
D43*
X24660000Y49630000D03*
X27200000Y47090000D03*
X24660000Y47090000D03*
X27200000Y44550000D03*
X24660000Y44550000D03*
X27200000Y42010000D03*
X24660000Y42010000D03*
X27200000Y39470000D03*
X24660000Y39470000D03*
X27200000Y36930000D03*
X24660000Y36930000D03*
X27200000Y34390000D03*
X24660000Y34390000D03*
X27200000Y31850000D03*
X24660000Y31850000D03*
X27200000Y29310000D03*
X24660000Y29310000D03*
X27200000Y26770000D03*
X24660000Y26770000D03*
X27200000Y24230000D03*
X24660000Y24230000D03*
X27200000Y21690000D03*
X24660000Y21690000D03*
X27200000Y19150000D03*
X24660000Y19150000D03*
X27200000Y16610000D03*
X24660000Y16610000D03*
X27200000Y14070000D03*
X24660000Y14070000D03*
X27200000Y11530000D03*
X24660000Y11530000D03*
X27200000Y8990000D03*
X24660000Y8990000D03*
X27200000Y6450000D03*
X24660000Y6450000D03*
X27200000Y3910000D03*
X24660000Y3910000D03*
X27200000Y1370000D03*
X24660000Y1370000D03*
%TD*%
G36*
X17231121Y50836998D02*
G01*
X17277614Y50783342D01*
X17289000Y50731000D01*
X17289000Y49840000D01*
X17268998Y49771879D01*
X17215342Y49725386D01*
X17163000Y49714000D01*
X11827000Y49714000D01*
X11758879Y49734002D01*
X11712386Y49787658D01*
X11701000Y49840000D01*
X11701000Y50731000D01*
X11721002Y50799121D01*
X11774658Y50845614D01*
X11827000Y50857000D01*
X17163000Y50857000D01*
X17231121Y50836998D01*
G37*
M02*
