%TF.GenerationSoftware,KiCad,Pcbnew,7.0.11-7.0.11~ubuntu22.04.1*%
%TF.CreationDate,2026-02-04T09:47:08+02:00*%
%TF.ProjectId,RP2350-PICO2-XXL_Rev_C,52503233-3530-42d5-9049-434f322d5858,C*%
%TF.SameCoordinates,PX81b3200PY6e263e0*%
%TF.FileFunction,Legend,Top*%
%TF.FilePolarity,Positive*%
%FSLAX46Y46*%
G04 Gerber Fmt 4.6, Leading zero omitted, Abs format (unit mm)*
G04 Created by KiCad (PCBNEW 7.0.11-7.0.11~ubuntu22.04.1) date 2026-02-04 09:47:08*
%MOMM*%
%LPD*%
G01*
G04 APERTURE LIST*
%ADD10C,0.254000*%
%ADD11C,0.203200*%
%ADD12C,0.158750*%
%ADD13C,0.222250*%
%ADD14C,0.190500*%
%ADD15C,0.317500*%
%ADD16C,0.127000*%
%ADD17C,0.050000*%
%ADD18C,0.100000*%
%ADD19C,0.228600*%
%ADD20C,0.009000*%
G04 APERTURE END LIST*
D10*
X5500000Y48350000D02*
X5500000Y51000000D01*
X23500000Y28000000D02*
X23500000Y25500000D01*
X23500000Y30200000D02*
X23500000Y30500000D01*
X23500000Y48350000D02*
X29000000Y48350000D01*
X23500000Y30200000D02*
X23800000Y30200000D01*
X5500000Y23000000D02*
X0Y23000000D01*
X23500000Y28000000D02*
X29000000Y28000000D01*
X23900000Y30600000D02*
X23500000Y30200000D01*
X23508000Y36506000D02*
G75*
G03*
X23008000Y36506000I-250000J0D01*
G01*
X23008000Y36506000D02*
G75*
G03*
X23508000Y36506000I250000J0D01*
G01*
X0Y28000000D02*
X5500000Y28000000D01*
X7400000Y39800000D02*
X7500000Y39900000D01*
X16600000Y34200000D02*
G75*
G03*
X16100000Y34200000I-250000J0D01*
G01*
X16100000Y34200000D02*
G75*
G03*
X16600000Y34200000I250000J0D01*
G01*
X0Y25500000D02*
X5500000Y25500000D01*
X23500000Y25500000D02*
X29000000Y25500000D01*
X7400000Y38800000D02*
X7200000Y39100000D01*
X23900000Y30600000D02*
X25000000Y30600000D01*
X7400000Y38800000D02*
X7600000Y39100000D01*
X23500000Y23000000D02*
X29000000Y23000000D01*
X23500000Y51000000D02*
X23500000Y48350000D01*
X0Y48350000D02*
X5500000Y48350000D01*
X23500000Y25500000D02*
X23500000Y23000000D01*
X5500000Y2650000D02*
X5500000Y0D01*
X25900000Y51000000D02*
X25900000Y48350000D01*
X5500000Y28000000D02*
X5500000Y23000000D01*
X7400000Y38800000D02*
X7400000Y39800000D01*
X23500000Y2650000D02*
X29000000Y2650000D01*
X23500000Y2650000D02*
X23500000Y0D01*
X0Y2650000D02*
X5500000Y2650000D01*
D11*
G36*
X5940808Y19771472D02*
G01*
X5956196Y19756084D01*
X5976802Y19714872D01*
X5976802Y19530819D01*
X5754249Y19530819D01*
X5754249Y19714872D01*
X5774855Y19756084D01*
X5790242Y19771472D01*
X5831452Y19792076D01*
X5899599Y19792076D01*
X5940808Y19771472D01*
G37*
G36*
X6070584Y20304915D02*
G01*
X6063680Y20304915D01*
X6038015Y20317748D01*
X6025183Y20343413D01*
X6025183Y20450265D01*
X6036847Y20473594D01*
X6070584Y20304915D01*
G37*
G36*
X6683163Y19211505D02*
G01*
X5434935Y19211505D01*
X5434935Y19429219D01*
X5551049Y19429219D01*
X5556022Y19413914D01*
X5556022Y19397823D01*
X5565480Y19384805D01*
X5570453Y19369500D01*
X5583471Y19360042D01*
X5592930Y19347023D01*
X5608234Y19342051D01*
X5621253Y19332592D01*
X5637344Y19332592D01*
X5652649Y19327619D01*
X6465449Y19327619D01*
X6525168Y19347023D01*
X6562076Y19397823D01*
X6562076Y19460615D01*
X6525168Y19511415D01*
X6465449Y19530819D01*
X6180002Y19530819D01*
X6180002Y19569845D01*
X6523713Y19810442D01*
X6561509Y19860585D01*
X6562613Y19923367D01*
X6526604Y19974808D01*
X6467236Y19995260D01*
X6407185Y19976910D01*
X6159616Y19803613D01*
X6130571Y19861704D01*
X6119015Y19873437D01*
X6111539Y19888109D01*
X6072834Y19926814D01*
X6058162Y19934290D01*
X6046429Y19945846D01*
X5969019Y19984550D01*
X5945859Y19988038D01*
X5923583Y19995276D01*
X5807468Y19995276D01*
X5785193Y19988039D01*
X5762032Y19984550D01*
X5684623Y19945846D01*
X5672890Y19934291D01*
X5658217Y19926814D01*
X5619512Y19888109D01*
X5612035Y19873437D01*
X5600480Y19861704D01*
X5561775Y19784294D01*
X5558286Y19761134D01*
X5551049Y19738857D01*
X5551049Y19429219D01*
X5434935Y19429219D01*
X5434935Y20319429D01*
X5821983Y20319429D01*
X5829221Y20297153D01*
X5832709Y20273993D01*
X5871413Y20196583D01*
X5871981Y20196007D01*
X5872114Y20195207D01*
X5893959Y20173692D01*
X5915475Y20151846D01*
X5916274Y20151714D01*
X5916851Y20151145D01*
X5994261Y20112441D01*
X6017421Y20108953D01*
X6039697Y20101715D01*
X6349335Y20101715D01*
X6371611Y20108954D01*
X6394771Y20112441D01*
X6472181Y20151145D01*
X6472757Y20151714D01*
X6473557Y20151846D01*
X6495072Y20173692D01*
X6516918Y20195207D01*
X6517050Y20196007D01*
X6517619Y20196583D01*
X6556323Y20273993D01*
X6559811Y20297154D01*
X6567049Y20319429D01*
X6567049Y20474248D01*
X6559811Y20496523D01*
X6556323Y20519684D01*
X6517619Y20597093D01*
X6473557Y20641830D01*
X6411614Y20652124D01*
X6355451Y20624042D01*
X6326520Y20568313D01*
X6335871Y20506221D01*
X6363849Y20450264D01*
X6363849Y20343413D01*
X6351016Y20317748D01*
X6325352Y20304915D01*
X6277808Y20304915D01*
X6216733Y20610288D01*
X6213733Y20615632D01*
X6213733Y20621758D01*
X6198599Y20642588D01*
X6185994Y20665041D01*
X6180426Y20667601D01*
X6176825Y20672558D01*
X6152335Y20680516D01*
X6128942Y20691270D01*
X6122933Y20690069D01*
X6117106Y20691962D01*
X6039697Y20691962D01*
X6017420Y20684725D01*
X5994260Y20681236D01*
X5916850Y20642531D01*
X5916274Y20641964D01*
X5915475Y20641831D01*
X5893925Y20619952D01*
X5872114Y20598468D01*
X5871981Y20597672D01*
X5871413Y20597094D01*
X5832709Y20519684D01*
X5829221Y20496525D01*
X5821983Y20474248D01*
X5821983Y20319429D01*
X5434935Y20319429D01*
X5434935Y20858364D01*
X5822026Y20858364D01*
X5843145Y20799230D01*
X5894989Y20763803D01*
X5957755Y20765615D01*
X6499621Y20959139D01*
X6522271Y20976617D01*
X6545887Y20992754D01*
X6546914Y20995632D01*
X6549334Y20997498D01*
X6557383Y21024942D01*
X6567007Y21051888D01*
X6566146Y21054822D01*
X6567006Y21057752D01*
X6557391Y21084674D01*
X6549335Y21112142D01*
X6546914Y21114010D01*
X6545887Y21116886D01*
X6522278Y21133019D01*
X6499621Y21150501D01*
X5957755Y21344024D01*
X5894989Y21345836D01*
X5843145Y21310409D01*
X5822026Y21251275D01*
X5839698Y21191021D01*
X5889411Y21152662D01*
X6163370Y21054820D01*
X5889411Y20956977D01*
X5839698Y20918618D01*
X5822026Y20858364D01*
X5434935Y20858364D01*
X5434935Y21542086D01*
X6287691Y21542086D01*
X6291413Y21534782D01*
X6291413Y21526585D01*
X6296231Y21519953D01*
X6297514Y21511856D01*
X6308892Y21500478D01*
X6316199Y21486138D01*
X6354904Y21447434D01*
X6369242Y21440129D01*
X6380620Y21428751D01*
X6396513Y21426234D01*
X6410852Y21418928D01*
X6426744Y21421446D01*
X6442639Y21418928D01*
X6456979Y21426235D01*
X6472871Y21428752D01*
X6484247Y21440129D01*
X6498587Y21447435D01*
X6537291Y21486139D01*
X6544597Y21500479D01*
X6555974Y21511855D01*
X6557256Y21519952D01*
X6562076Y21526585D01*
X6562076Y21534784D01*
X6565798Y21542088D01*
X6563280Y21557982D01*
X6565798Y21573874D01*
X6562076Y21581180D01*
X6562076Y21589377D01*
X6557257Y21596010D01*
X6555975Y21604106D01*
X6544597Y21615484D01*
X6537292Y21629822D01*
X6498588Y21668527D01*
X6484248Y21675834D01*
X6472870Y21687212D01*
X6456978Y21689730D01*
X6442640Y21697035D01*
X6426744Y21694518D01*
X6410851Y21697035D01*
X6396514Y21689731D01*
X6380621Y21687213D01*
X6369242Y21675835D01*
X6354903Y21668528D01*
X6316198Y21629823D01*
X6308891Y21615484D01*
X6297513Y21604105D01*
X6296230Y21596009D01*
X6291413Y21589377D01*
X6291413Y21581180D01*
X6287691Y21573875D01*
X6290208Y21557982D01*
X6287691Y21542086D01*
X5434935Y21542086D01*
X5434935Y22177258D01*
X5551049Y22177258D01*
X5556137Y22161597D01*
X5556263Y22145129D01*
X5594968Y22029015D01*
X5608878Y22010172D01*
X5619512Y21989302D01*
X5696922Y21911892D01*
X5711594Y21904417D01*
X5723327Y21892860D01*
X5800736Y21854155D01*
X5811933Y21852469D01*
X5821532Y21846462D01*
X5976351Y21807758D01*
X5988966Y21808633D01*
X6000992Y21804725D01*
X6117106Y21804725D01*
X6129131Y21808633D01*
X6141747Y21807758D01*
X6296567Y21846463D01*
X6306164Y21852469D01*
X6317362Y21854155D01*
X6394772Y21892860D01*
X6406504Y21904416D01*
X6421177Y21911892D01*
X6498587Y21989302D01*
X6509220Y22010173D01*
X6523131Y22029016D01*
X6561835Y22145130D01*
X6561960Y22161597D01*
X6567049Y22177258D01*
X6567049Y22254667D01*
X6561960Y22270327D01*
X6561836Y22286795D01*
X6523131Y22402910D01*
X6509220Y22421755D01*
X6498586Y22442625D01*
X6459881Y22481329D01*
X6403932Y22509835D01*
X6341914Y22500011D01*
X6297513Y22455610D01*
X6287691Y22393591D01*
X6316199Y22337643D01*
X6337943Y22315899D01*
X6363849Y22238182D01*
X6363849Y22193745D01*
X6337943Y22116027D01*
X6289152Y22067235D01*
X6236464Y22040892D01*
X6104597Y22007925D01*
X6013498Y22007925D01*
X5881634Y22040891D01*
X5828947Y22067235D01*
X5780155Y22116027D01*
X5754249Y22193746D01*
X5754249Y22238180D01*
X5780155Y22315899D01*
X5801900Y22337643D01*
X5830408Y22393591D01*
X5820585Y22455610D01*
X5776185Y22500011D01*
X5714166Y22509835D01*
X5658218Y22481329D01*
X5619513Y22442625D01*
X5608878Y22421755D01*
X5594968Y22402911D01*
X5556263Y22286796D01*
X5556137Y22270329D01*
X5551049Y22254667D01*
X5551049Y22177258D01*
X5434935Y22177258D01*
X5434935Y22625949D01*
X6683163Y22625949D01*
X6683163Y19211505D01*
G37*
D12*
X6386412Y34582263D02*
X6356174Y34552024D01*
X6356174Y34552024D02*
X6265460Y34491548D01*
X6265460Y34491548D02*
X6204984Y34461310D01*
X6204984Y34461310D02*
X6114270Y34431072D01*
X6114270Y34431072D02*
X5963079Y34400834D01*
X5963079Y34400834D02*
X5842127Y34400834D01*
X5842127Y34400834D02*
X5690936Y34431072D01*
X5690936Y34431072D02*
X5600222Y34461310D01*
X5600222Y34461310D02*
X5539746Y34491548D01*
X5539746Y34491548D02*
X5449031Y34552024D01*
X5449031Y34552024D02*
X5418793Y34582263D01*
X6084031Y35187024D02*
X6114270Y35156786D01*
X6114270Y35156786D02*
X6144508Y35066072D01*
X6144508Y35066072D02*
X6144508Y35005596D01*
X6144508Y35005596D02*
X6114270Y34914881D01*
X6114270Y34914881D02*
X6053793Y34854405D01*
X6053793Y34854405D02*
X5993317Y34824167D01*
X5993317Y34824167D02*
X5872365Y34793929D01*
X5872365Y34793929D02*
X5781650Y34793929D01*
X5781650Y34793929D02*
X5660698Y34824167D01*
X5660698Y34824167D02*
X5600222Y34854405D01*
X5600222Y34854405D02*
X5539746Y34914881D01*
X5539746Y34914881D02*
X5509508Y35005596D01*
X5509508Y35005596D02*
X5509508Y35066072D01*
X5509508Y35066072D02*
X5539746Y35156786D01*
X5539746Y35156786D02*
X5569984Y35187024D01*
X6386412Y35398691D02*
X6356174Y35428929D01*
X6356174Y35428929D02*
X6265460Y35489405D01*
X6265460Y35489405D02*
X6204984Y35519643D01*
X6204984Y35519643D02*
X6114270Y35549881D01*
X6114270Y35549881D02*
X5963079Y35580119D01*
X5963079Y35580119D02*
X5842127Y35580119D01*
X5842127Y35580119D02*
X5690936Y35549881D01*
X5690936Y35549881D02*
X5600222Y35519643D01*
X5600222Y35519643D02*
X5539746Y35489405D01*
X5539746Y35489405D02*
X5449031Y35428929D01*
X5449031Y35428929D02*
X5418793Y35398691D01*
X5569984Y35852262D02*
X5539746Y35882500D01*
X5539746Y35882500D02*
X5509508Y35942976D01*
X5509508Y35942976D02*
X5509508Y36094167D01*
X5509508Y36094167D02*
X5539746Y36154643D01*
X5539746Y36154643D02*
X5569984Y36184881D01*
X5569984Y36184881D02*
X5630460Y36215119D01*
X5630460Y36215119D02*
X5690936Y36215119D01*
X5690936Y36215119D02*
X5781650Y36184881D01*
X5781650Y36184881D02*
X6144508Y35822024D01*
X6144508Y35822024D02*
X6144508Y36215119D01*
X5509508Y36608214D02*
X5509508Y36668691D01*
X5509508Y36668691D02*
X5539746Y36729167D01*
X5539746Y36729167D02*
X5569984Y36759405D01*
X5569984Y36759405D02*
X5630460Y36789643D01*
X5630460Y36789643D02*
X5751412Y36819881D01*
X5751412Y36819881D02*
X5902603Y36819881D01*
X5902603Y36819881D02*
X6023555Y36789643D01*
X6023555Y36789643D02*
X6084031Y36759405D01*
X6084031Y36759405D02*
X6114270Y36729167D01*
X6114270Y36729167D02*
X6144508Y36668691D01*
X6144508Y36668691D02*
X6144508Y36608214D01*
X6144508Y36608214D02*
X6114270Y36547738D01*
X6114270Y36547738D02*
X6084031Y36517500D01*
X6084031Y36517500D02*
X6023555Y36487262D01*
X6023555Y36487262D02*
X5902603Y36457024D01*
X5902603Y36457024D02*
X5751412Y36457024D01*
X5751412Y36457024D02*
X5630460Y36487262D01*
X5630460Y36487262D02*
X5569984Y36517500D01*
X5569984Y36517500D02*
X5539746Y36547738D01*
X5539746Y36547738D02*
X5509508Y36608214D01*
X5569984Y37061786D02*
X5539746Y37092024D01*
X5539746Y37092024D02*
X5509508Y37152500D01*
X5509508Y37152500D02*
X5509508Y37303691D01*
X5509508Y37303691D02*
X5539746Y37364167D01*
X5539746Y37364167D02*
X5569984Y37394405D01*
X5569984Y37394405D02*
X5630460Y37424643D01*
X5630460Y37424643D02*
X5690936Y37424643D01*
X5690936Y37424643D02*
X5781650Y37394405D01*
X5781650Y37394405D02*
X6144508Y37031548D01*
X6144508Y37031548D02*
X6144508Y37424643D01*
X5509508Y37968929D02*
X5509508Y37847976D01*
X5509508Y37847976D02*
X5539746Y37787500D01*
X5539746Y37787500D02*
X5569984Y37757262D01*
X5569984Y37757262D02*
X5660698Y37696786D01*
X5660698Y37696786D02*
X5781650Y37666548D01*
X5781650Y37666548D02*
X6023555Y37666548D01*
X6023555Y37666548D02*
X6084031Y37696786D01*
X6084031Y37696786D02*
X6114270Y37727024D01*
X6114270Y37727024D02*
X6144508Y37787500D01*
X6144508Y37787500D02*
X6144508Y37908453D01*
X6144508Y37908453D02*
X6114270Y37968929D01*
X6114270Y37968929D02*
X6084031Y37999167D01*
X6084031Y37999167D02*
X6023555Y38029405D01*
X6023555Y38029405D02*
X5872365Y38029405D01*
X5872365Y38029405D02*
X5811889Y37999167D01*
X5811889Y37999167D02*
X5781650Y37968929D01*
X5781650Y37968929D02*
X5751412Y37908453D01*
X5751412Y37908453D02*
X5751412Y37787500D01*
X5751412Y37787500D02*
X5781650Y37727024D01*
X5781650Y37727024D02*
X5811889Y37696786D01*
X5811889Y37696786D02*
X5872365Y37666548D01*
D13*
G36*
X5925884Y11139507D02*
G01*
X5942715Y11122675D01*
X5965254Y11077600D01*
X5965254Y10876292D01*
X5721837Y10876292D01*
X5721837Y11077601D01*
X5744374Y11122675D01*
X5761204Y11139506D01*
X5806277Y11162042D01*
X5880813Y11162042D01*
X5925884Y11139507D01*
G37*
G36*
X6315900Y13374158D02*
G01*
X6366050Y13324008D01*
X6388587Y13278935D01*
X6388587Y13162066D01*
X6366050Y13116993D01*
X6315900Y13066843D01*
X6189699Y13035292D01*
X5920724Y13035292D01*
X5794524Y13066842D01*
X5744374Y13116992D01*
X5721837Y13162066D01*
X5721837Y13278934D01*
X5744374Y13324008D01*
X5794524Y13374158D01*
X5920724Y13405708D01*
X6189699Y13405708D01*
X6315900Y13374158D01*
G37*
G36*
X6737837Y10527042D02*
G01*
X5372587Y10527042D01*
X5372587Y10765167D01*
X5499587Y10765167D01*
X5505026Y10748428D01*
X5505026Y10730827D01*
X5515371Y10716589D01*
X5520810Y10699849D01*
X5535048Y10689504D01*
X5545394Y10675265D01*
X5562133Y10669827D01*
X5576372Y10659481D01*
X5593972Y10659481D01*
X5610712Y10654042D01*
X6499712Y10654042D01*
X6565030Y10675265D01*
X6605398Y10730827D01*
X6605398Y10799507D01*
X6565030Y10855069D01*
X6499712Y10876292D01*
X6187504Y10876292D01*
X6187504Y11103834D01*
X6179587Y11128199D01*
X6175772Y11153531D01*
X6133438Y11238198D01*
X6120798Y11251031D01*
X6112623Y11267076D01*
X6070290Y11309410D01*
X6054242Y11317588D01*
X6041408Y11330228D01*
X5956741Y11372560D01*
X5931410Y11376376D01*
X5907045Y11384292D01*
X5780045Y11384292D01*
X5755680Y11376376D01*
X5730348Y11372560D01*
X5645682Y11330227D01*
X5632848Y11317588D01*
X5616802Y11309411D01*
X5574468Y11267077D01*
X5566290Y11251029D01*
X5553652Y11238196D01*
X5511319Y11153531D01*
X5507503Y11128199D01*
X5499587Y11103834D01*
X5499587Y10765167D01*
X5372587Y10765167D01*
X5372587Y11619827D01*
X5505026Y11619827D01*
X5545394Y11564265D01*
X5610712Y11543042D01*
X6499712Y11543042D01*
X6565030Y11564265D01*
X6605398Y11619827D01*
X6605398Y11688507D01*
X6565030Y11744069D01*
X6499712Y11765292D01*
X5610712Y11765292D01*
X5545394Y11744069D01*
X5505026Y11688507D01*
X5505026Y11619827D01*
X5372587Y11619827D01*
X5372587Y12331500D01*
X5499587Y12331500D01*
X5505152Y12314372D01*
X5505289Y12296359D01*
X5547623Y12169359D01*
X5562837Y12148749D01*
X5574468Y12125923D01*
X5659135Y12041256D01*
X5675183Y12033079D01*
X5688016Y12020440D01*
X5772683Y11978107D01*
X5784928Y11976263D01*
X5795427Y11969693D01*
X5964760Y11927360D01*
X5978557Y11928316D01*
X5991712Y11924042D01*
X6118712Y11924042D01*
X6131866Y11928316D01*
X6145664Y11927360D01*
X6314996Y11969693D01*
X6325494Y11976263D01*
X6337741Y11978107D01*
X6422408Y12020439D01*
X6435241Y12033080D01*
X6451289Y12041256D01*
X6535956Y12125923D01*
X6547585Y12148747D01*
X6562802Y12169359D01*
X6605135Y12296360D01*
X6605271Y12314372D01*
X6610837Y12331500D01*
X6610837Y12416167D01*
X6605271Y12433296D01*
X6605135Y12451307D01*
X6562802Y12578308D01*
X6547587Y12598918D01*
X6535956Y12621745D01*
X6493621Y12664078D01*
X6432427Y12695257D01*
X6364595Y12684513D01*
X6316031Y12635948D01*
X6305288Y12568115D01*
X6336469Y12506922D01*
X6360251Y12483141D01*
X6388587Y12398135D01*
X6388587Y12349533D01*
X6360251Y12264527D01*
X6306886Y12211162D01*
X6249261Y12182350D01*
X6105032Y12146292D01*
X6005391Y12146292D01*
X5861166Y12182349D01*
X5803537Y12211162D01*
X5750172Y12264527D01*
X5721837Y12349535D01*
X5721837Y12398133D01*
X5750172Y12483140D01*
X5773956Y12506922D01*
X5805136Y12568115D01*
X5794393Y12635948D01*
X5745830Y12684513D01*
X5677997Y12695258D01*
X5616803Y12664078D01*
X5574469Y12621745D01*
X5562838Y12598920D01*
X5547623Y12578308D01*
X5505289Y12451308D01*
X5505152Y12433296D01*
X5499587Y12416167D01*
X5499587Y12331500D01*
X5372587Y12331500D01*
X5372587Y13135833D01*
X5499587Y13135833D01*
X5507503Y13111469D01*
X5511319Y13086136D01*
X5553652Y13001471D01*
X5566290Y12988639D01*
X5574468Y12972590D01*
X5659135Y12887923D01*
X5685588Y12874445D01*
X5710760Y12858693D01*
X5880093Y12816360D01*
X5893890Y12817316D01*
X5907045Y12813042D01*
X6203379Y12813042D01*
X6216533Y12817316D01*
X6230331Y12816360D01*
X6399663Y12858693D01*
X6424832Y12874443D01*
X6451289Y12887923D01*
X6535956Y12972590D01*
X6544132Y12988637D01*
X6556772Y13001470D01*
X6599105Y13086136D01*
X6602920Y13111469D01*
X6610837Y13135833D01*
X6610837Y13305167D01*
X6602920Y13329532D01*
X6599105Y13354864D01*
X6556772Y13439530D01*
X6544132Y13452364D01*
X6535956Y13468410D01*
X6451289Y13553077D01*
X6424832Y13566558D01*
X6399663Y13582307D01*
X6230331Y13624640D01*
X6216533Y13623685D01*
X6203379Y13627958D01*
X5907045Y13627958D01*
X5893890Y13623685D01*
X5880093Y13624640D01*
X5710760Y13582307D01*
X5685588Y13566556D01*
X5659135Y13553077D01*
X5574468Y13468410D01*
X5566290Y13452362D01*
X5553652Y13439529D01*
X5511319Y13354864D01*
X5507503Y13329532D01*
X5499587Y13305167D01*
X5499587Y13135833D01*
X5372587Y13135833D01*
X5372587Y13982500D01*
X5499587Y13982500D01*
X5507503Y13958135D01*
X5511319Y13932804D01*
X5553651Y13848137D01*
X5566291Y13835303D01*
X5574469Y13819255D01*
X5616803Y13776922D01*
X5677997Y13745742D01*
X5745830Y13756487D01*
X5794393Y13805052D01*
X5805136Y13872885D01*
X5773956Y13934078D01*
X5744372Y13963661D01*
X5721837Y14008732D01*
X5721837Y14167935D01*
X5744372Y14213006D01*
X5761204Y14229837D01*
X5806280Y14252375D01*
X5846680Y14252375D01*
X5931684Y14224040D01*
X6421134Y13734589D01*
X6444320Y13722776D01*
X6465372Y13707480D01*
X6474338Y13707480D01*
X6482328Y13703409D01*
X6508031Y13707480D01*
X6534052Y13707480D01*
X6541306Y13712751D01*
X6550161Y13714153D01*
X6568557Y13732550D01*
X6589614Y13747848D01*
X6592385Y13756378D01*
X6598725Y13762717D01*
X6602795Y13788417D01*
X6610837Y13813166D01*
X6610837Y14363500D01*
X6589614Y14428818D01*
X6534052Y14469186D01*
X6465372Y14469186D01*
X6409810Y14428818D01*
X6388587Y14363500D01*
X6388587Y14081446D01*
X6070289Y14399743D01*
X6047463Y14411374D01*
X6026853Y14426588D01*
X5899853Y14468922D01*
X5881842Y14469059D01*
X5864712Y14474625D01*
X5780045Y14474625D01*
X5755680Y14466709D01*
X5730348Y14462893D01*
X5645681Y14420559D01*
X5632848Y14407920D01*
X5616803Y14399744D01*
X5574469Y14357411D01*
X5566291Y14341364D01*
X5553651Y14328529D01*
X5511319Y14243862D01*
X5507503Y14218532D01*
X5499587Y14194166D01*
X5499587Y13982500D01*
X5372587Y13982500D01*
X5372587Y14744500D01*
X6049920Y14744500D01*
X6071143Y14679182D01*
X6126705Y14638814D01*
X6195385Y14638814D01*
X6250947Y14679182D01*
X6272170Y14744500D01*
X6272170Y15421833D01*
X6250947Y15487151D01*
X6195385Y15527519D01*
X6126705Y15527519D01*
X6071143Y15487151D01*
X6049920Y15421833D01*
X6049920Y14744500D01*
X5372587Y14744500D01*
X5372587Y15730449D01*
X5503728Y15730449D01*
X5541824Y15673303D01*
X5606233Y15649465D01*
X5672353Y15668038D01*
X6055212Y15923278D01*
X6438071Y15668039D01*
X6504191Y15649465D01*
X6568599Y15673303D01*
X6606696Y15730449D01*
X6603928Y15799071D01*
X6561353Y15852962D01*
X6255545Y16056834D01*
X6561353Y16260705D01*
X6603928Y16314596D01*
X6606696Y16383218D01*
X6568599Y16440364D01*
X6504191Y16464202D01*
X6438071Y16445628D01*
X6055212Y16190390D01*
X5672353Y16445629D01*
X5606233Y16464202D01*
X5541824Y16440364D01*
X5503728Y16383218D01*
X5506495Y16314596D01*
X5549071Y16260705D01*
X5854878Y16056834D01*
X5549071Y15852962D01*
X5506495Y15799071D01*
X5503728Y15730449D01*
X5372587Y15730449D01*
X5372587Y16577116D01*
X5503728Y16577116D01*
X5541824Y16519970D01*
X5606233Y16496132D01*
X5672353Y16514705D01*
X6055212Y16769945D01*
X6438071Y16514706D01*
X6504191Y16496132D01*
X6568599Y16519970D01*
X6606696Y16577116D01*
X6603928Y16645738D01*
X6561353Y16699629D01*
X6255545Y16903501D01*
X6561353Y17107372D01*
X6603928Y17161263D01*
X6606696Y17229885D01*
X6568599Y17287031D01*
X6504191Y17310869D01*
X6438071Y17292295D01*
X6055212Y17037057D01*
X5672353Y17292296D01*
X5606233Y17310869D01*
X5541824Y17287031D01*
X5503728Y17229885D01*
X5506495Y17161263D01*
X5549071Y17107372D01*
X5854878Y16903501D01*
X5549071Y16699629D01*
X5506495Y16645738D01*
X5503728Y16577116D01*
X5372587Y16577116D01*
X5372587Y17504161D01*
X5505026Y17504161D01*
X5545394Y17448599D01*
X5610712Y17427376D01*
X6499712Y17427376D01*
X6516452Y17432815D01*
X6534052Y17432815D01*
X6548290Y17443161D01*
X6565030Y17448599D01*
X6575375Y17462838D01*
X6589614Y17473183D01*
X6595052Y17489923D01*
X6605398Y17504161D01*
X6605398Y17521762D01*
X6610837Y17538501D01*
X6610837Y17961834D01*
X6589614Y18027152D01*
X6534052Y18067520D01*
X6465372Y18067520D01*
X6409810Y18027152D01*
X6388587Y17961834D01*
X6388587Y17649626D01*
X5610712Y17649626D01*
X5545394Y17628403D01*
X5505026Y17572841D01*
X5505026Y17504161D01*
X5372587Y17504161D01*
X5372587Y18194520D01*
X6737837Y18194520D01*
X6737837Y10527042D01*
G37*
D14*
X282285Y50446819D02*
X318571Y50483105D01*
X318571Y50483105D02*
X391143Y50519391D01*
X391143Y50519391D02*
X572571Y50519391D01*
X572571Y50519391D02*
X645143Y50483105D01*
X645143Y50483105D02*
X681428Y50446819D01*
X681428Y50446819D02*
X717714Y50374248D01*
X717714Y50374248D02*
X717714Y50301676D01*
X717714Y50301676D02*
X681428Y50192819D01*
X681428Y50192819D02*
X246000Y49757391D01*
X246000Y49757391D02*
X717714Y49757391D01*
X28717714Y49907391D02*
X28282285Y49907391D01*
X28500000Y49907391D02*
X28500000Y50669391D01*
X28500000Y50669391D02*
X28427428Y50560534D01*
X28427428Y50560534D02*
X28354857Y50487962D01*
X28354857Y50487962D02*
X28282285Y50451676D01*
X6367714Y49857391D02*
X5932285Y49857391D01*
X6150000Y49857391D02*
X6150000Y50619391D01*
X6150000Y50619391D02*
X6077428Y50510534D01*
X6077428Y50510534D02*
X6004857Y50437962D01*
X6004857Y50437962D02*
X5932285Y50401676D01*
X22682285Y50596819D02*
X22718571Y50633105D01*
X22718571Y50633105D02*
X22791143Y50669391D01*
X22791143Y50669391D02*
X22972571Y50669391D01*
X22972571Y50669391D02*
X23045143Y50633105D01*
X23045143Y50633105D02*
X23081428Y50596819D01*
X23081428Y50596819D02*
X23117714Y50524248D01*
X23117714Y50524248D02*
X23117714Y50451676D01*
X23117714Y50451676D02*
X23081428Y50342819D01*
X23081428Y50342819D02*
X22646000Y49907391D01*
X22646000Y49907391D02*
X23117714Y49907391D01*
X17692609Y1797286D02*
X17692609Y1434429D01*
X17692609Y1434429D02*
X16930609Y1434429D01*
X17293466Y2051286D02*
X17293466Y2305286D01*
X17692609Y2414143D02*
X17692609Y2051286D01*
X17692609Y2051286D02*
X16930609Y2051286D01*
X16930609Y2051286D02*
X16930609Y2414143D01*
X17692609Y2740715D02*
X16930609Y2740715D01*
X16930609Y2740715D02*
X16930609Y2922144D01*
X16930609Y2922144D02*
X16966895Y3031001D01*
X16966895Y3031001D02*
X17039466Y3103572D01*
X17039466Y3103572D02*
X17112038Y3139858D01*
X17112038Y3139858D02*
X17257181Y3176144D01*
X17257181Y3176144D02*
X17366038Y3176144D01*
X17366038Y3176144D02*
X17511181Y3139858D01*
X17511181Y3139858D02*
X17583752Y3103572D01*
X17583752Y3103572D02*
X17656324Y3031001D01*
X17656324Y3031001D02*
X17692609Y2922144D01*
X17692609Y2922144D02*
X17692609Y2740715D01*
X17692609Y3901858D02*
X17692609Y3466429D01*
X17692609Y3684144D02*
X16930609Y3684144D01*
X16930609Y3684144D02*
X17039466Y3611572D01*
X17039466Y3611572D02*
X17112038Y3539001D01*
X17112038Y3539001D02*
X17148324Y3466429D01*
X18760143Y42407391D02*
X18506143Y42770248D01*
X18324714Y42407391D02*
X18324714Y43169391D01*
X18324714Y43169391D02*
X18615000Y43169391D01*
X18615000Y43169391D02*
X18687571Y43133105D01*
X18687571Y43133105D02*
X18723857Y43096819D01*
X18723857Y43096819D02*
X18760143Y43024248D01*
X18760143Y43024248D02*
X18760143Y42915391D01*
X18760143Y42915391D02*
X18723857Y42842819D01*
X18723857Y42842819D02*
X18687571Y42806534D01*
X18687571Y42806534D02*
X18615000Y42770248D01*
X18615000Y42770248D02*
X18324714Y42770248D01*
X19485857Y42407391D02*
X19050428Y42407391D01*
X19268143Y42407391D02*
X19268143Y43169391D01*
X19268143Y43169391D02*
X19195571Y43060534D01*
X19195571Y43060534D02*
X19123000Y42987962D01*
X19123000Y42987962D02*
X19050428Y42951676D01*
X19957571Y43169391D02*
X20030142Y43169391D01*
X20030142Y43169391D02*
X20102714Y43133105D01*
X20102714Y43133105D02*
X20139000Y43096819D01*
X20139000Y43096819D02*
X20175285Y43024248D01*
X20175285Y43024248D02*
X20211571Y42879105D01*
X20211571Y42879105D02*
X20211571Y42697676D01*
X20211571Y42697676D02*
X20175285Y42552534D01*
X20175285Y42552534D02*
X20139000Y42479962D01*
X20139000Y42479962D02*
X20102714Y42443676D01*
X20102714Y42443676D02*
X20030142Y42407391D01*
X20030142Y42407391D02*
X19957571Y42407391D01*
X19957571Y42407391D02*
X19885000Y42443676D01*
X19885000Y42443676D02*
X19848714Y42479962D01*
X19848714Y42479962D02*
X19812428Y42552534D01*
X19812428Y42552534D02*
X19776142Y42697676D01*
X19776142Y42697676D02*
X19776142Y42879105D01*
X19776142Y42879105D02*
X19812428Y43024248D01*
X19812428Y43024248D02*
X19848714Y43096819D01*
X19848714Y43096819D02*
X19885000Y43133105D01*
X19885000Y43133105D02*
X19957571Y43169391D01*
X14642609Y30722001D02*
X14279752Y30468001D01*
X14642609Y30286572D02*
X13880609Y30286572D01*
X13880609Y30286572D02*
X13880609Y30576858D01*
X13880609Y30576858D02*
X13916895Y30649429D01*
X13916895Y30649429D02*
X13953181Y30685715D01*
X13953181Y30685715D02*
X14025752Y30722001D01*
X14025752Y30722001D02*
X14134609Y30722001D01*
X14134609Y30722001D02*
X14207181Y30685715D01*
X14207181Y30685715D02*
X14243466Y30649429D01*
X14243466Y30649429D02*
X14279752Y30576858D01*
X14279752Y30576858D02*
X14279752Y30286572D01*
X13880609Y30976001D02*
X13880609Y31484001D01*
X13880609Y31484001D02*
X14642609Y31157429D01*
X21437571Y46957391D02*
X21437571Y47719391D01*
X21437571Y47719391D02*
X21619000Y47719391D01*
X21619000Y47719391D02*
X21727857Y47683105D01*
X21727857Y47683105D02*
X21800428Y47610534D01*
X21800428Y47610534D02*
X21836714Y47537962D01*
X21836714Y47537962D02*
X21873000Y47392819D01*
X21873000Y47392819D02*
X21873000Y47283962D01*
X21873000Y47283962D02*
X21836714Y47138819D01*
X21836714Y47138819D02*
X21800428Y47066248D01*
X21800428Y47066248D02*
X21727857Y46993676D01*
X21727857Y46993676D02*
X21619000Y46957391D01*
X21619000Y46957391D02*
X21437571Y46957391D01*
X22598714Y46957391D02*
X22163285Y46957391D01*
X22381000Y46957391D02*
X22381000Y47719391D01*
X22381000Y47719391D02*
X22308428Y47610534D01*
X22308428Y47610534D02*
X22235857Y47537962D01*
X22235857Y47537962D02*
X22163285Y47501676D01*
X15842609Y30722001D02*
X15479752Y30468001D01*
X15842609Y30286572D02*
X15080609Y30286572D01*
X15080609Y30286572D02*
X15080609Y30576858D01*
X15080609Y30576858D02*
X15116895Y30649429D01*
X15116895Y30649429D02*
X15153181Y30685715D01*
X15153181Y30685715D02*
X15225752Y30722001D01*
X15225752Y30722001D02*
X15334609Y30722001D01*
X15334609Y30722001D02*
X15407181Y30685715D01*
X15407181Y30685715D02*
X15443466Y30649429D01*
X15443466Y30649429D02*
X15479752Y30576858D01*
X15479752Y30576858D02*
X15479752Y30286572D01*
X15080609Y31375143D02*
X15080609Y31230001D01*
X15080609Y31230001D02*
X15116895Y31157429D01*
X15116895Y31157429D02*
X15153181Y31121143D01*
X15153181Y31121143D02*
X15262038Y31048572D01*
X15262038Y31048572D02*
X15407181Y31012286D01*
X15407181Y31012286D02*
X15697466Y31012286D01*
X15697466Y31012286D02*
X15770038Y31048572D01*
X15770038Y31048572D02*
X15806324Y31084858D01*
X15806324Y31084858D02*
X15842609Y31157429D01*
X15842609Y31157429D02*
X15842609Y31302572D01*
X15842609Y31302572D02*
X15806324Y31375143D01*
X15806324Y31375143D02*
X15770038Y31411429D01*
X15770038Y31411429D02*
X15697466Y31447715D01*
X15697466Y31447715D02*
X15516038Y31447715D01*
X15516038Y31447715D02*
X15443466Y31411429D01*
X15443466Y31411429D02*
X15407181Y31375143D01*
X15407181Y31375143D02*
X15370895Y31302572D01*
X15370895Y31302572D02*
X15370895Y31157429D01*
X15370895Y31157429D02*
X15407181Y31084858D01*
X15407181Y31084858D02*
X15443466Y31048572D01*
X15443466Y31048572D02*
X15516038Y31012286D01*
X8842609Y16210144D02*
X8479752Y15956144D01*
X8842609Y15774715D02*
X8080609Y15774715D01*
X8080609Y15774715D02*
X8080609Y16065001D01*
X8080609Y16065001D02*
X8116895Y16137572D01*
X8116895Y16137572D02*
X8153181Y16173858D01*
X8153181Y16173858D02*
X8225752Y16210144D01*
X8225752Y16210144D02*
X8334609Y16210144D01*
X8334609Y16210144D02*
X8407181Y16173858D01*
X8407181Y16173858D02*
X8443466Y16137572D01*
X8443466Y16137572D02*
X8479752Y16065001D01*
X8479752Y16065001D02*
X8479752Y15774715D01*
X8842609Y16935858D02*
X8842609Y16500429D01*
X8842609Y16718144D02*
X8080609Y16718144D01*
X8080609Y16718144D02*
X8189466Y16645572D01*
X8189466Y16645572D02*
X8262038Y16573001D01*
X8262038Y16573001D02*
X8298324Y16500429D01*
X8407181Y17371286D02*
X8370895Y17298715D01*
X8370895Y17298715D02*
X8334609Y17262429D01*
X8334609Y17262429D02*
X8262038Y17226143D01*
X8262038Y17226143D02*
X8225752Y17226143D01*
X8225752Y17226143D02*
X8153181Y17262429D01*
X8153181Y17262429D02*
X8116895Y17298715D01*
X8116895Y17298715D02*
X8080609Y17371286D01*
X8080609Y17371286D02*
X8080609Y17516429D01*
X8080609Y17516429D02*
X8116895Y17589000D01*
X8116895Y17589000D02*
X8153181Y17625286D01*
X8153181Y17625286D02*
X8225752Y17661572D01*
X8225752Y17661572D02*
X8262038Y17661572D01*
X8262038Y17661572D02*
X8334609Y17625286D01*
X8334609Y17625286D02*
X8370895Y17589000D01*
X8370895Y17589000D02*
X8407181Y17516429D01*
X8407181Y17516429D02*
X8407181Y17371286D01*
X8407181Y17371286D02*
X8443466Y17298715D01*
X8443466Y17298715D02*
X8479752Y17262429D01*
X8479752Y17262429D02*
X8552324Y17226143D01*
X8552324Y17226143D02*
X8697466Y17226143D01*
X8697466Y17226143D02*
X8770038Y17262429D01*
X8770038Y17262429D02*
X8806324Y17298715D01*
X8806324Y17298715D02*
X8842609Y17371286D01*
X8842609Y17371286D02*
X8842609Y17516429D01*
X8842609Y17516429D02*
X8806324Y17589000D01*
X8806324Y17589000D02*
X8770038Y17625286D01*
X8770038Y17625286D02*
X8697466Y17661572D01*
X8697466Y17661572D02*
X8552324Y17661572D01*
X8552324Y17661572D02*
X8479752Y17625286D01*
X8479752Y17625286D02*
X8443466Y17589000D01*
X8443466Y17589000D02*
X8407181Y17516429D01*
X7842609Y16310144D02*
X7479752Y16056144D01*
X7842609Y15874715D02*
X7080609Y15874715D01*
X7080609Y15874715D02*
X7080609Y16165001D01*
X7080609Y16165001D02*
X7116895Y16237572D01*
X7116895Y16237572D02*
X7153181Y16273858D01*
X7153181Y16273858D02*
X7225752Y16310144D01*
X7225752Y16310144D02*
X7334609Y16310144D01*
X7334609Y16310144D02*
X7407181Y16273858D01*
X7407181Y16273858D02*
X7443466Y16237572D01*
X7443466Y16237572D02*
X7479752Y16165001D01*
X7479752Y16165001D02*
X7479752Y15874715D01*
X7842609Y17035858D02*
X7842609Y16600429D01*
X7842609Y16818144D02*
X7080609Y16818144D01*
X7080609Y16818144D02*
X7189466Y16745572D01*
X7189466Y16745572D02*
X7262038Y16673001D01*
X7262038Y16673001D02*
X7298324Y16600429D01*
X7080609Y17289858D02*
X7080609Y17797858D01*
X7080609Y17797858D02*
X7842609Y17471286D01*
D10*
G36*
X9801009Y4107056D02*
G01*
X9820248Y4087817D01*
X9846003Y4036307D01*
X9846003Y3806239D01*
X9567812Y3806239D01*
X9567812Y4036307D01*
X9593567Y4087817D01*
X9612806Y4107056D01*
X9664316Y4132811D01*
X9749499Y4132811D01*
X9801009Y4107056D01*
G37*
G36*
X10728955Y3407096D02*
G01*
X9168669Y3407096D01*
X9168669Y3679239D01*
X9313812Y3679239D01*
X9316424Y3670342D01*
X9315105Y3661165D01*
X9326347Y3636547D01*
X9333973Y3610578D01*
X9340980Y3604507D01*
X9344832Y3596072D01*
X9367600Y3581440D01*
X9388054Y3563716D01*
X9397230Y3562397D01*
X9405032Y3557383D01*
X9440812Y3552239D01*
X10456812Y3552239D01*
X10525473Y3572400D01*
X10572335Y3626481D01*
X10582519Y3697313D01*
X10552792Y3762406D01*
X10492592Y3801095D01*
X10456812Y3806239D01*
X10100003Y3806239D01*
X10100003Y3855022D01*
X10529642Y4155769D01*
X10574330Y4211660D01*
X10581707Y4282838D01*
X10549431Y4346706D01*
X10487749Y4382985D01*
X10416245Y4380158D01*
X10383983Y4363854D01*
X10074521Y4147231D01*
X10038214Y4219845D01*
X10036593Y4221588D01*
X10036087Y4223914D01*
X10014425Y4252852D01*
X9966044Y4301233D01*
X9963954Y4302375D01*
X9962739Y4304420D01*
X9933037Y4325022D01*
X9836275Y4373403D01*
X9824945Y4375442D01*
X9815259Y4381667D01*
X9779479Y4386811D01*
X9634336Y4386811D01*
X9623290Y4383568D01*
X9611843Y4384804D01*
X9577540Y4373403D01*
X9480778Y4325022D01*
X9479035Y4323402D01*
X9476709Y4322895D01*
X9447771Y4301233D01*
X9399390Y4252852D01*
X9398248Y4250763D01*
X9396203Y4249547D01*
X9375601Y4219845D01*
X9327220Y4123083D01*
X9325181Y4111754D01*
X9318956Y4102067D01*
X9313812Y4066287D01*
X9313812Y3679239D01*
X9168669Y3679239D01*
X9168669Y4840382D01*
X9313812Y4840382D01*
X9317055Y4829337D01*
X9315819Y4817889D01*
X9327220Y4783586D01*
X9375601Y4686824D01*
X9377221Y4685082D01*
X9377728Y4682755D01*
X9399390Y4653817D01*
X9447771Y4605436D01*
X9449860Y4604295D01*
X9451076Y4602249D01*
X9480778Y4581647D01*
X9577540Y4533266D01*
X9588869Y4531228D01*
X9598556Y4525002D01*
X9634336Y4519858D01*
X9731098Y4519858D01*
X9742143Y4523102D01*
X9753591Y4521865D01*
X9787894Y4533266D01*
X9884656Y4581647D01*
X9886398Y4583268D01*
X9888725Y4583774D01*
X9917663Y4605436D01*
X9966044Y4653817D01*
X9967185Y4655907D01*
X9969231Y4657122D01*
X9989833Y4686824D01*
X10038214Y4783586D01*
X10039002Y4787967D01*
X10047830Y4809580D01*
X10092830Y4989580D01*
X10125758Y5055436D01*
X10144997Y5074675D01*
X10196507Y5100430D01*
X10233309Y5100430D01*
X10284819Y5074675D01*
X10304056Y5055438D01*
X10329812Y5003926D01*
X10329812Y4812610D01*
X10287949Y4687018D01*
X10285363Y4615505D01*
X10321850Y4553946D01*
X10385827Y4521886D01*
X10456980Y4529504D01*
X10512721Y4574381D01*
X10528915Y4606698D01*
X10577295Y4751841D01*
X10577380Y4754219D01*
X10578668Y4756221D01*
X10583812Y4792001D01*
X10583812Y5033906D01*
X10580568Y5044951D01*
X10581805Y5056398D01*
X10570405Y5090701D01*
X10522025Y5187463D01*
X10520403Y5189207D01*
X10519897Y5191533D01*
X10498235Y5220471D01*
X10449854Y5268852D01*
X10447764Y5269994D01*
X10446549Y5272039D01*
X10416847Y5292641D01*
X10320085Y5341022D01*
X10308755Y5343061D01*
X10299069Y5349286D01*
X10263289Y5354430D01*
X10166527Y5354430D01*
X10155481Y5351187D01*
X10144034Y5352423D01*
X10109731Y5341022D01*
X10012969Y5292641D01*
X10011226Y5291021D01*
X10008900Y5290514D01*
X9979962Y5268852D01*
X9931581Y5220471D01*
X9930439Y5218382D01*
X9928394Y5217166D01*
X9907792Y5187464D01*
X9859411Y5090702D01*
X9858622Y5086322D01*
X9849795Y5064708D01*
X9804795Y4884708D01*
X9771867Y4818852D01*
X9752628Y4799613D01*
X9701118Y4773858D01*
X9664316Y4773858D01*
X9612806Y4799613D01*
X9593567Y4818852D01*
X9567812Y4870362D01*
X9567812Y5061677D01*
X9609676Y5187269D01*
X9612262Y5258782D01*
X9575775Y5320341D01*
X9511798Y5352401D01*
X9440645Y5344784D01*
X9384905Y5299908D01*
X9368710Y5267591D01*
X9320329Y5122448D01*
X9320242Y5120070D01*
X9318956Y5118067D01*
X9313812Y5082287D01*
X9313812Y4840382D01*
X9168669Y4840382D01*
X9168669Y5517715D01*
X9313812Y5517715D01*
X9333973Y5449054D01*
X9388054Y5402192D01*
X9458886Y5392008D01*
X9523979Y5421735D01*
X9562668Y5481935D01*
X9567812Y5517715D01*
X9567812Y5681001D01*
X10456812Y5681001D01*
X10525473Y5701162D01*
X10572335Y5755243D01*
X10582519Y5826075D01*
X10552792Y5891168D01*
X10492592Y5929857D01*
X10456812Y5935001D01*
X9567812Y5935001D01*
X9567812Y6098287D01*
X9547651Y6166948D01*
X9493570Y6213810D01*
X9422738Y6223994D01*
X9357645Y6194267D01*
X9318956Y6134067D01*
X9313812Y6098287D01*
X9313812Y5517715D01*
X9168669Y5517715D01*
X9168669Y6662899D01*
X9314819Y6662899D01*
X9315262Y6661883D01*
X9315105Y6660784D01*
X9329539Y6629176D01*
X9343448Y6597315D01*
X9344535Y6596341D01*
X9344832Y6595691D01*
X9346343Y6594720D01*
X9370365Y6573188D01*
X9505041Y6483404D01*
X9578342Y6410104D01*
X9617506Y6331776D01*
X9666244Y6279380D01*
X9735573Y6261651D01*
X9803482Y6284219D01*
X9848408Y6339918D01*
X9856091Y6411065D01*
X9844690Y6445368D01*
X9796309Y6542130D01*
X9794688Y6543873D01*
X9794182Y6546199D01*
X9789946Y6551858D01*
X10329812Y6551858D01*
X10329812Y6388572D01*
X10349973Y6319911D01*
X10404054Y6273049D01*
X10474886Y6262865D01*
X10539979Y6292592D01*
X10578668Y6352792D01*
X10583812Y6388572D01*
X10583812Y6969144D01*
X10563651Y7037805D01*
X10509570Y7084667D01*
X10438738Y7094851D01*
X10373645Y7065124D01*
X10334956Y7004924D01*
X10329812Y6969144D01*
X10329812Y6805858D01*
X9440812Y6805858D01*
X9407471Y6796069D01*
X9373956Y6786836D01*
X9373215Y6786010D01*
X9372151Y6785697D01*
X9349382Y6759421D01*
X9326192Y6733549D01*
X9326015Y6732455D01*
X9325289Y6731616D01*
X9320341Y6697207D01*
X9314819Y6662899D01*
X9168669Y6662899D01*
X9168669Y7239994D01*
X10728955Y7239994D01*
X10728955Y3407096D01*
G37*
D14*
X8373000Y41657391D02*
X8119000Y42020248D01*
X7937571Y41657391D02*
X7937571Y42419391D01*
X7937571Y42419391D02*
X8227857Y42419391D01*
X8227857Y42419391D02*
X8300428Y42383105D01*
X8300428Y42383105D02*
X8336714Y42346819D01*
X8336714Y42346819D02*
X8373000Y42274248D01*
X8373000Y42274248D02*
X8373000Y42165391D01*
X8373000Y42165391D02*
X8336714Y42092819D01*
X8336714Y42092819D02*
X8300428Y42056534D01*
X8300428Y42056534D02*
X8227857Y42020248D01*
X8227857Y42020248D02*
X7937571Y42020248D01*
X9062428Y42419391D02*
X8699571Y42419391D01*
X8699571Y42419391D02*
X8663285Y42056534D01*
X8663285Y42056534D02*
X8699571Y42092819D01*
X8699571Y42092819D02*
X8772143Y42129105D01*
X8772143Y42129105D02*
X8953571Y42129105D01*
X8953571Y42129105D02*
X9026143Y42092819D01*
X9026143Y42092819D02*
X9062428Y42056534D01*
X9062428Y42056534D02*
X9098714Y41983962D01*
X9098714Y41983962D02*
X9098714Y41802534D01*
X9098714Y41802534D02*
X9062428Y41729962D01*
X9062428Y41729962D02*
X9026143Y41693676D01*
X9026143Y41693676D02*
X8953571Y41657391D01*
X8953571Y41657391D02*
X8772143Y41657391D01*
X8772143Y41657391D02*
X8699571Y41693676D01*
X8699571Y41693676D02*
X8663285Y41729962D01*
X12910143Y40157391D02*
X12656143Y40520248D01*
X12474714Y40157391D02*
X12474714Y40919391D01*
X12474714Y40919391D02*
X12765000Y40919391D01*
X12765000Y40919391D02*
X12837571Y40883105D01*
X12837571Y40883105D02*
X12873857Y40846819D01*
X12873857Y40846819D02*
X12910143Y40774248D01*
X12910143Y40774248D02*
X12910143Y40665391D01*
X12910143Y40665391D02*
X12873857Y40592819D01*
X12873857Y40592819D02*
X12837571Y40556534D01*
X12837571Y40556534D02*
X12765000Y40520248D01*
X12765000Y40520248D02*
X12474714Y40520248D01*
X13635857Y40157391D02*
X13200428Y40157391D01*
X13418143Y40157391D02*
X13418143Y40919391D01*
X13418143Y40919391D02*
X13345571Y40810534D01*
X13345571Y40810534D02*
X13273000Y40737962D01*
X13273000Y40737962D02*
X13200428Y40701676D01*
X13926142Y40846819D02*
X13962428Y40883105D01*
X13962428Y40883105D02*
X14035000Y40919391D01*
X14035000Y40919391D02*
X14216428Y40919391D01*
X14216428Y40919391D02*
X14289000Y40883105D01*
X14289000Y40883105D02*
X14325285Y40846819D01*
X14325285Y40846819D02*
X14361571Y40774248D01*
X14361571Y40774248D02*
X14361571Y40701676D01*
X14361571Y40701676D02*
X14325285Y40592819D01*
X14325285Y40592819D02*
X13889857Y40157391D01*
X13889857Y40157391D02*
X14361571Y40157391D01*
X20673000Y27157391D02*
X20419000Y27520248D01*
X20237571Y27157391D02*
X20237571Y27919391D01*
X20237571Y27919391D02*
X20527857Y27919391D01*
X20527857Y27919391D02*
X20600428Y27883105D01*
X20600428Y27883105D02*
X20636714Y27846819D01*
X20636714Y27846819D02*
X20673000Y27774248D01*
X20673000Y27774248D02*
X20673000Y27665391D01*
X20673000Y27665391D02*
X20636714Y27592819D01*
X20636714Y27592819D02*
X20600428Y27556534D01*
X20600428Y27556534D02*
X20527857Y27520248D01*
X20527857Y27520248D02*
X20237571Y27520248D01*
X21108428Y27592819D02*
X21035857Y27629105D01*
X21035857Y27629105D02*
X20999571Y27665391D01*
X20999571Y27665391D02*
X20963285Y27737962D01*
X20963285Y27737962D02*
X20963285Y27774248D01*
X20963285Y27774248D02*
X20999571Y27846819D01*
X20999571Y27846819D02*
X21035857Y27883105D01*
X21035857Y27883105D02*
X21108428Y27919391D01*
X21108428Y27919391D02*
X21253571Y27919391D01*
X21253571Y27919391D02*
X21326143Y27883105D01*
X21326143Y27883105D02*
X21362428Y27846819D01*
X21362428Y27846819D02*
X21398714Y27774248D01*
X21398714Y27774248D02*
X21398714Y27737962D01*
X21398714Y27737962D02*
X21362428Y27665391D01*
X21362428Y27665391D02*
X21326143Y27629105D01*
X21326143Y27629105D02*
X21253571Y27592819D01*
X21253571Y27592819D02*
X21108428Y27592819D01*
X21108428Y27592819D02*
X21035857Y27556534D01*
X21035857Y27556534D02*
X20999571Y27520248D01*
X20999571Y27520248D02*
X20963285Y27447676D01*
X20963285Y27447676D02*
X20963285Y27302534D01*
X20963285Y27302534D02*
X20999571Y27229962D01*
X20999571Y27229962D02*
X21035857Y27193676D01*
X21035857Y27193676D02*
X21108428Y27157391D01*
X21108428Y27157391D02*
X21253571Y27157391D01*
X21253571Y27157391D02*
X21326143Y27193676D01*
X21326143Y27193676D02*
X21362428Y27229962D01*
X21362428Y27229962D02*
X21398714Y27302534D01*
X21398714Y27302534D02*
X21398714Y27447676D01*
X21398714Y27447676D02*
X21362428Y27520248D01*
X21362428Y27520248D02*
X21326143Y27556534D01*
X21326143Y27556534D02*
X21253571Y27592819D01*
X20673000Y28357391D02*
X20419000Y28720248D01*
X20237571Y28357391D02*
X20237571Y29119391D01*
X20237571Y29119391D02*
X20527857Y29119391D01*
X20527857Y29119391D02*
X20600428Y29083105D01*
X20600428Y29083105D02*
X20636714Y29046819D01*
X20636714Y29046819D02*
X20673000Y28974248D01*
X20673000Y28974248D02*
X20673000Y28865391D01*
X20673000Y28865391D02*
X20636714Y28792819D01*
X20636714Y28792819D02*
X20600428Y28756534D01*
X20600428Y28756534D02*
X20527857Y28720248D01*
X20527857Y28720248D02*
X20237571Y28720248D01*
X21326143Y28865391D02*
X21326143Y28357391D01*
X21144714Y29155676D02*
X20963285Y28611391D01*
X20963285Y28611391D02*
X21435000Y28611391D01*
D10*
G36*
X22884819Y12866865D02*
G01*
X22904056Y12847628D01*
X22929812Y12796116D01*
X22929812Y12662810D01*
X22506479Y12662810D01*
X22506479Y12796116D01*
X22532234Y12847626D01*
X22551473Y12866865D01*
X22602983Y12892620D01*
X22833309Y12892620D01*
X22884819Y12866865D01*
G37*
G36*
X23666329Y12263667D02*
G01*
X21768669Y12263667D01*
X21768669Y12632572D01*
X22252479Y12632572D01*
X22255722Y12621527D01*
X22254486Y12610079D01*
X22263255Y12583695D01*
X22253772Y12517736D01*
X22283499Y12452643D01*
X22343699Y12413954D01*
X22379479Y12408810D01*
X23395479Y12408810D01*
X23464140Y12428971D01*
X23511002Y12483052D01*
X23521186Y12553884D01*
X23491459Y12618977D01*
X23431259Y12657666D01*
X23395479Y12662810D01*
X23183812Y12662810D01*
X23183812Y12826096D01*
X23180568Y12837141D01*
X23181805Y12848588D01*
X23170405Y12882891D01*
X23122025Y12979653D01*
X23120403Y12981397D01*
X23119897Y12983723D01*
X23098235Y13012661D01*
X23049854Y13061042D01*
X23047764Y13062184D01*
X23046549Y13064229D01*
X23016847Y13084831D01*
X22920085Y13133212D01*
X22908755Y13135251D01*
X22899069Y13141476D01*
X22863289Y13146620D01*
X22573003Y13146620D01*
X22561957Y13143377D01*
X22550510Y13144613D01*
X22516207Y13133212D01*
X22419445Y13084831D01*
X22417702Y13083211D01*
X22415376Y13082704D01*
X22386438Y13061042D01*
X22338057Y13012661D01*
X22336915Y13010572D01*
X22334870Y13009356D01*
X22314268Y12979654D01*
X22265887Y12882892D01*
X22263848Y12871563D01*
X22257623Y12861876D01*
X22252479Y12826096D01*
X22252479Y12632572D01*
X21768669Y12632572D01*
X21768669Y13436974D01*
X21915105Y13436974D01*
X21944832Y13371881D01*
X22005032Y13333192D01*
X22040812Y13328048D01*
X22863289Y13328048D01*
X22874334Y13331292D01*
X22885782Y13330055D01*
X22920085Y13341456D01*
X23016847Y13389837D01*
X23018589Y13391458D01*
X23020916Y13391964D01*
X23049854Y13413626D01*
X23098235Y13462007D01*
X23099376Y13464098D01*
X23101423Y13465313D01*
X23122025Y13495015D01*
X23170405Y13591777D01*
X23172443Y13603108D01*
X23178668Y13612792D01*
X23183812Y13648572D01*
X23183812Y13842096D01*
X23180568Y13853141D01*
X23181805Y13864588D01*
X23170405Y13898891D01*
X23122025Y13995653D01*
X23120403Y13997397D01*
X23119897Y13999723D01*
X23098235Y14028661D01*
X23049854Y14077042D01*
X23047764Y14078184D01*
X23046549Y14080229D01*
X23016847Y14100831D01*
X22920085Y14149212D01*
X22908755Y14151251D01*
X22899069Y14157476D01*
X22863289Y14162620D01*
X22040812Y14162620D01*
X21972151Y14142459D01*
X21925289Y14088378D01*
X21915105Y14017546D01*
X21944832Y13952453D01*
X22005032Y13913764D01*
X22040812Y13908620D01*
X22833309Y13908620D01*
X22884819Y13882865D01*
X22904056Y13863628D01*
X22929812Y13812116D01*
X22929812Y13678553D01*
X22904056Y13627041D01*
X22884819Y13607803D01*
X22833309Y13582048D01*
X22040812Y13582048D01*
X21972151Y13561887D01*
X21925289Y13507806D01*
X21915105Y13436974D01*
X21768669Y13436974D01*
X21768669Y14519429D01*
X21913812Y14519429D01*
X21916424Y14510532D01*
X21915105Y14501355D01*
X21926347Y14476737D01*
X21933973Y14450768D01*
X21940980Y14444697D01*
X21944832Y14436262D01*
X21967600Y14421630D01*
X21988054Y14403906D01*
X21997230Y14402587D01*
X22005032Y14397573D01*
X22040812Y14392429D01*
X23056812Y14392429D01*
X23065709Y14395042D01*
X23074886Y14393722D01*
X23099504Y14404965D01*
X23125473Y14412590D01*
X23131544Y14419598D01*
X23139979Y14423449D01*
X23154611Y14446218D01*
X23172335Y14466671D01*
X23173654Y14475848D01*
X23178668Y14483649D01*
X23183812Y14519429D01*
X23183812Y15003239D01*
X23163651Y15071900D01*
X23109570Y15118762D01*
X23038738Y15128946D01*
X22973645Y15099219D01*
X22934956Y15039019D01*
X22929812Y15003239D01*
X22929812Y14646429D01*
X22651622Y14646429D01*
X22651622Y14858096D01*
X22631461Y14926757D01*
X22577380Y14973619D01*
X22506548Y14983803D01*
X22441455Y14954076D01*
X22402766Y14893876D01*
X22397622Y14858096D01*
X22397622Y14646429D01*
X22167812Y14646429D01*
X22167812Y15003239D01*
X22147651Y15071900D01*
X22093570Y15118762D01*
X22022738Y15128946D01*
X21957645Y15099219D01*
X21918956Y15039019D01*
X21913812Y15003239D01*
X21913812Y14519429D01*
X21768669Y14519429D01*
X21768669Y16261143D01*
X21913812Y16261143D01*
X21933973Y16192482D01*
X21988054Y16145620D01*
X22022687Y16140641D01*
X21973956Y16127217D01*
X21926192Y16073930D01*
X21914819Y16003280D01*
X21943448Y15937696D01*
X21970365Y15913569D01*
X22319860Y15680572D01*
X21970365Y15447575D01*
X21924419Y15392714D01*
X21915426Y15321722D01*
X21946243Y15257137D01*
X22007085Y15219466D01*
X22078635Y15220668D01*
X22111259Y15236235D01*
X22548812Y15527938D01*
X22986365Y15236235D01*
X23054677Y15214924D01*
X23123668Y15233927D01*
X23171432Y15287214D01*
X23182805Y15357864D01*
X23154176Y15423448D01*
X23127259Y15447576D01*
X22777764Y15680572D01*
X23127259Y15913568D01*
X23173205Y15968430D01*
X23182197Y16039422D01*
X23151381Y16104007D01*
X23090539Y16141678D01*
X23018989Y16140476D01*
X22986365Y16124909D01*
X22548812Y15833207D01*
X22111259Y16124909D01*
X22066447Y16138890D01*
X22123979Y16165163D01*
X22162668Y16225363D01*
X22167812Y16261143D01*
X22167812Y16424429D01*
X23056812Y16424429D01*
X23125473Y16444590D01*
X23172335Y16498671D01*
X23182519Y16569503D01*
X23152792Y16634596D01*
X23092592Y16673285D01*
X23056812Y16678429D01*
X22167812Y16678429D01*
X22167812Y16841715D01*
X22147651Y16910376D01*
X22093570Y16957238D01*
X22022738Y16967422D01*
X21957645Y16937695D01*
X21918956Y16877495D01*
X21913812Y16841715D01*
X21913812Y16261143D01*
X21768669Y16261143D01*
X21768669Y17406327D01*
X21914819Y17406327D01*
X21915262Y17405311D01*
X21915105Y17404212D01*
X21929539Y17372604D01*
X21943448Y17340743D01*
X21944535Y17339769D01*
X21944832Y17339119D01*
X21946343Y17338148D01*
X21970365Y17316616D01*
X22105041Y17226832D01*
X22178342Y17153532D01*
X22217506Y17075204D01*
X22266244Y17022808D01*
X22335573Y17005079D01*
X22403482Y17027647D01*
X22448408Y17083346D01*
X22456091Y17154493D01*
X22444690Y17188796D01*
X22396309Y17285558D01*
X22394688Y17287301D01*
X22394182Y17289627D01*
X22389946Y17295286D01*
X22929812Y17295286D01*
X22929812Y17132000D01*
X22949973Y17063339D01*
X23004054Y17016477D01*
X23074886Y17006293D01*
X23139979Y17036020D01*
X23178668Y17096220D01*
X23183812Y17132000D01*
X23183812Y17712572D01*
X23163651Y17781233D01*
X23109570Y17828095D01*
X23038738Y17838279D01*
X22973645Y17808552D01*
X22934956Y17748352D01*
X22929812Y17712572D01*
X22929812Y17549286D01*
X22040812Y17549286D01*
X22007471Y17539497D01*
X21973956Y17530264D01*
X21973215Y17529438D01*
X21972151Y17529125D01*
X21949382Y17502849D01*
X21926192Y17476977D01*
X21926015Y17475883D01*
X21925289Y17475044D01*
X21920341Y17440635D01*
X21914819Y17406327D01*
X21768669Y17406327D01*
X21768669Y17983422D01*
X23666329Y17983422D01*
X23666329Y12263667D01*
G37*
X10840286Y7593188D02*
X10259714Y7593188D01*
X10550000Y7593188D02*
X10550000Y8609188D01*
X10550000Y8609188D02*
X10453238Y8464045D01*
X10453238Y8464045D02*
X10356476Y8367283D01*
X10356476Y8367283D02*
X10259714Y8318902D01*
G36*
X18752628Y4178103D02*
G01*
X18771867Y4158864D01*
X18797622Y4107354D01*
X18797622Y3925667D01*
X18567812Y3925667D01*
X18567812Y4107354D01*
X18593567Y4158864D01*
X18612806Y4178103D01*
X18664316Y4203858D01*
X18701118Y4203858D01*
X18752628Y4178103D01*
G37*
G36*
X19284819Y4226484D02*
G01*
X19304056Y4207247D01*
X19329812Y4155735D01*
X19329812Y3925667D01*
X19051622Y3925667D01*
X19051622Y4116724D01*
X19084005Y4213873D01*
X19096616Y4226484D01*
X19148126Y4252239D01*
X19233309Y4252239D01*
X19284819Y4226484D01*
G37*
G36*
X19246740Y5280563D02*
G01*
X19304055Y5223249D01*
X19329812Y5171735D01*
X19329812Y5038172D01*
X19304055Y4986658D01*
X19246740Y4929344D01*
X19102512Y4893286D01*
X18795113Y4893286D01*
X18650884Y4929344D01*
X18593567Y4986661D01*
X18567812Y5038171D01*
X18567812Y5171735D01*
X18593567Y5223246D01*
X18650884Y5280563D01*
X18795113Y5316620D01*
X19102512Y5316620D01*
X19246740Y5280563D01*
G37*
G36*
X19246740Y6344944D02*
G01*
X19304055Y6287630D01*
X19329812Y6236116D01*
X19329812Y6102553D01*
X19304055Y6051039D01*
X19246740Y5993725D01*
X19102512Y5957667D01*
X18795113Y5957667D01*
X18650884Y5993725D01*
X18593567Y6051042D01*
X18567812Y6102552D01*
X18567812Y6236116D01*
X18593567Y6287627D01*
X18650884Y6344944D01*
X18795113Y6381001D01*
X19102512Y6381001D01*
X19246740Y6344944D01*
G37*
G36*
X19728955Y3526524D02*
G01*
X18168669Y3526524D01*
X18168669Y3798667D01*
X18313812Y3798667D01*
X18316424Y3789770D01*
X18315105Y3780593D01*
X18326347Y3755975D01*
X18333973Y3730006D01*
X18340980Y3723935D01*
X18344832Y3715500D01*
X18367600Y3700868D01*
X18388054Y3683144D01*
X18397230Y3681825D01*
X18405032Y3676811D01*
X18440812Y3671667D01*
X19456812Y3671667D01*
X19465709Y3674280D01*
X19474886Y3672960D01*
X19499504Y3684203D01*
X19525473Y3691828D01*
X19531544Y3698836D01*
X19539979Y3702687D01*
X19554611Y3725456D01*
X19572335Y3745909D01*
X19573654Y3755086D01*
X19578668Y3762887D01*
X19583812Y3798667D01*
X19583812Y4185715D01*
X19580568Y4196760D01*
X19581805Y4208207D01*
X19570405Y4242510D01*
X19522025Y4339272D01*
X19520403Y4341016D01*
X19519897Y4343342D01*
X19498235Y4372280D01*
X19449854Y4420661D01*
X19447764Y4421803D01*
X19446549Y4423848D01*
X19416847Y4444450D01*
X19320085Y4492831D01*
X19308755Y4494870D01*
X19299069Y4501095D01*
X19263289Y4506239D01*
X19118146Y4506239D01*
X19107100Y4502996D01*
X19095653Y4504232D01*
X19061350Y4492831D01*
X18964588Y4444450D01*
X18962845Y4442830D01*
X18960519Y4442323D01*
X18931581Y4420661D01*
X18897842Y4386923D01*
X18884656Y4396069D01*
X18787894Y4444450D01*
X18776564Y4446489D01*
X18766878Y4452714D01*
X18731098Y4457858D01*
X18634336Y4457858D01*
X18623290Y4454615D01*
X18611843Y4455851D01*
X18577540Y4444450D01*
X18480778Y4396069D01*
X18479035Y4394449D01*
X18476709Y4393942D01*
X18447771Y4372280D01*
X18399390Y4323899D01*
X18398248Y4321810D01*
X18396203Y4320594D01*
X18375601Y4290892D01*
X18327220Y4194130D01*
X18325181Y4182801D01*
X18318956Y4173114D01*
X18313812Y4137334D01*
X18313812Y3798667D01*
X18168669Y3798667D01*
X18168669Y5008191D01*
X18313812Y5008191D01*
X18317055Y4997146D01*
X18315819Y4985698D01*
X18327220Y4951395D01*
X18375601Y4854633D01*
X18377221Y4852891D01*
X18377728Y4850564D01*
X18399390Y4821626D01*
X18496152Y4724865D01*
X18510493Y4717034D01*
X18521689Y4705127D01*
X18555153Y4691459D01*
X18748677Y4643078D01*
X18752127Y4643219D01*
X18779479Y4639286D01*
X19118146Y4639286D01*
X19121458Y4640259D01*
X19148948Y4643078D01*
X19342472Y4691459D01*
X19356566Y4699729D01*
X19372535Y4703202D01*
X19401473Y4724864D01*
X19498234Y4821626D01*
X19499375Y4823716D01*
X19501423Y4824932D01*
X19522025Y4854634D01*
X19570405Y4951396D01*
X19572443Y4962727D01*
X19578668Y4972411D01*
X19583812Y5008191D01*
X19583812Y5201715D01*
X19580568Y5212760D01*
X19581805Y5224207D01*
X19570405Y5258510D01*
X19522025Y5355272D01*
X19520403Y5357016D01*
X19519897Y5359342D01*
X19498234Y5388280D01*
X19401473Y5485042D01*
X19387129Y5492874D01*
X19375936Y5504779D01*
X19342472Y5518447D01*
X19148948Y5566828D01*
X19145497Y5566688D01*
X19118146Y5570620D01*
X18779479Y5570620D01*
X18776166Y5569648D01*
X18748677Y5566828D01*
X18555153Y5518447D01*
X18541058Y5510178D01*
X18525090Y5506704D01*
X18496152Y5485041D01*
X18399390Y5388280D01*
X18398248Y5386191D01*
X18396203Y5384975D01*
X18375601Y5355273D01*
X18327220Y5258511D01*
X18325181Y5247182D01*
X18318956Y5237495D01*
X18313812Y5201715D01*
X18313812Y5008191D01*
X18168669Y5008191D01*
X18168669Y6072572D01*
X18313812Y6072572D01*
X18317055Y6061527D01*
X18315819Y6050079D01*
X18327220Y6015776D01*
X18375601Y5919014D01*
X18377221Y5917272D01*
X18377728Y5914945D01*
X18399390Y5886007D01*
X18496152Y5789246D01*
X18510493Y5781415D01*
X18521689Y5769508D01*
X18555153Y5755840D01*
X18748677Y5707459D01*
X18752127Y5707600D01*
X18779479Y5703667D01*
X19118146Y5703667D01*
X19121458Y5704640D01*
X19148948Y5707459D01*
X19342472Y5755840D01*
X19356566Y5764110D01*
X19372535Y5767583D01*
X19401473Y5789245D01*
X19498234Y5886007D01*
X19499375Y5888097D01*
X19501423Y5889313D01*
X19522025Y5919015D01*
X19570405Y6015777D01*
X19572443Y6027108D01*
X19578668Y6036792D01*
X19583812Y6072572D01*
X19583812Y6266096D01*
X19580568Y6277141D01*
X19581805Y6288588D01*
X19570405Y6322891D01*
X19522025Y6419653D01*
X19520403Y6421397D01*
X19519897Y6423723D01*
X19498234Y6452661D01*
X19401473Y6549423D01*
X19387129Y6557255D01*
X19375936Y6569160D01*
X19342472Y6582828D01*
X19148948Y6631209D01*
X19145497Y6631069D01*
X19118146Y6635001D01*
X18779479Y6635001D01*
X18776166Y6634029D01*
X18748677Y6631209D01*
X18555153Y6582828D01*
X18541058Y6574559D01*
X18525090Y6571085D01*
X18496152Y6549422D01*
X18399390Y6452661D01*
X18398248Y6450572D01*
X18396203Y6449356D01*
X18375601Y6419654D01*
X18327220Y6322892D01*
X18325181Y6311563D01*
X18318956Y6301876D01*
X18313812Y6266096D01*
X18313812Y6072572D01*
X18168669Y6072572D01*
X18168669Y6798286D01*
X18313812Y6798286D01*
X18333973Y6729625D01*
X18388054Y6682763D01*
X18458886Y6672579D01*
X18523979Y6702306D01*
X18562668Y6762506D01*
X18567812Y6798286D01*
X18567812Y6961572D01*
X19456812Y6961572D01*
X19525473Y6981733D01*
X19572335Y7035814D01*
X19582519Y7106646D01*
X19552792Y7171739D01*
X19492592Y7210428D01*
X19456812Y7215572D01*
X18567812Y7215572D01*
X18567812Y7378858D01*
X18547651Y7447519D01*
X18493570Y7494381D01*
X18422738Y7504565D01*
X18357645Y7474838D01*
X18318956Y7414638D01*
X18313812Y7378858D01*
X18313812Y6798286D01*
X18168669Y6798286D01*
X18168669Y7943470D01*
X18314819Y7943470D01*
X18315262Y7942454D01*
X18315105Y7941355D01*
X18329539Y7909747D01*
X18343448Y7877886D01*
X18344535Y7876912D01*
X18344832Y7876262D01*
X18346343Y7875291D01*
X18370365Y7853759D01*
X18505041Y7763975D01*
X18578342Y7690675D01*
X18617506Y7612347D01*
X18666244Y7559951D01*
X18735573Y7542222D01*
X18803482Y7564790D01*
X18848408Y7620489D01*
X18856091Y7691636D01*
X18844690Y7725939D01*
X18796309Y7822701D01*
X18794688Y7824444D01*
X18794182Y7826770D01*
X18789946Y7832429D01*
X19329812Y7832429D01*
X19329812Y7669143D01*
X19349973Y7600482D01*
X19404054Y7553620D01*
X19474886Y7543436D01*
X19539979Y7573163D01*
X19578668Y7633363D01*
X19583812Y7669143D01*
X19583812Y8249715D01*
X19563651Y8318376D01*
X19509570Y8365238D01*
X19438738Y8375422D01*
X19373645Y8345695D01*
X19334956Y8285495D01*
X19329812Y8249715D01*
X19329812Y8086429D01*
X18440812Y8086429D01*
X18407471Y8076640D01*
X18373956Y8067407D01*
X18373215Y8066581D01*
X18372151Y8066268D01*
X18349382Y8039992D01*
X18326192Y8014120D01*
X18326015Y8013026D01*
X18325289Y8012187D01*
X18320341Y7977778D01*
X18314819Y7943470D01*
X18168669Y7943470D01*
X18168669Y8520565D01*
X19728955Y8520565D01*
X19728955Y3526524D01*
G37*
D14*
X11510143Y1457391D02*
X11256143Y1820248D01*
X11074714Y1457391D02*
X11074714Y2219391D01*
X11074714Y2219391D02*
X11365000Y2219391D01*
X11365000Y2219391D02*
X11437571Y2183105D01*
X11437571Y2183105D02*
X11473857Y2146819D01*
X11473857Y2146819D02*
X11510143Y2074248D01*
X11510143Y2074248D02*
X11510143Y1965391D01*
X11510143Y1965391D02*
X11473857Y1892819D01*
X11473857Y1892819D02*
X11437571Y1856534D01*
X11437571Y1856534D02*
X11365000Y1820248D01*
X11365000Y1820248D02*
X11074714Y1820248D01*
X12235857Y1457391D02*
X11800428Y1457391D01*
X12018143Y1457391D02*
X12018143Y2219391D01*
X12018143Y2219391D02*
X11945571Y2110534D01*
X11945571Y2110534D02*
X11873000Y2037962D01*
X11873000Y2037962D02*
X11800428Y2001676D01*
X12925285Y2219391D02*
X12562428Y2219391D01*
X12562428Y2219391D02*
X12526142Y1856534D01*
X12526142Y1856534D02*
X12562428Y1892819D01*
X12562428Y1892819D02*
X12635000Y1929105D01*
X12635000Y1929105D02*
X12816428Y1929105D01*
X12816428Y1929105D02*
X12889000Y1892819D01*
X12889000Y1892819D02*
X12925285Y1856534D01*
X12925285Y1856534D02*
X12961571Y1783962D01*
X12961571Y1783962D02*
X12961571Y1602534D01*
X12961571Y1602534D02*
X12925285Y1529962D01*
X12925285Y1529962D02*
X12889000Y1493676D01*
X12889000Y1493676D02*
X12816428Y1457391D01*
X12816428Y1457391D02*
X12635000Y1457391D01*
X12635000Y1457391D02*
X12562428Y1493676D01*
X12562428Y1493676D02*
X12526142Y1529962D01*
G36*
X13308261Y41836997D02*
G01*
X13317718Y41827540D01*
X13337036Y41788905D01*
X13337036Y41725019D01*
X13317719Y41686385D01*
X13303292Y41671958D01*
X13264658Y41652641D01*
X13092107Y41652641D01*
X13092107Y41861284D01*
X13235400Y41861284D01*
X13308261Y41836997D01*
G37*
G36*
X13267005Y42204825D02*
G01*
X13281431Y42190398D01*
X13300750Y42151762D01*
X13300750Y42124163D01*
X13281431Y42085527D01*
X13267006Y42071102D01*
X13228372Y42051784D01*
X13092107Y42051784D01*
X13092107Y42224141D01*
X13228372Y42224141D01*
X13267005Y42204825D01*
G37*
G36*
X16062874Y41353284D02*
G01*
X11268750Y41353284D01*
X11268750Y41702534D01*
X11377607Y41702534D01*
X11384392Y41681651D01*
X11387663Y41659937D01*
X11423949Y41587365D01*
X11434781Y41576367D01*
X11441791Y41562610D01*
X11478077Y41526324D01*
X11491833Y41519315D01*
X11502832Y41508482D01*
X11575404Y41472196D01*
X11597118Y41468926D01*
X11618000Y41462141D01*
X11763143Y41462141D01*
X11784027Y41468927D01*
X11805740Y41472197D01*
X11878311Y41508482D01*
X11889309Y41519315D01*
X11903066Y41526324D01*
X11939352Y41562610D01*
X11946361Y41576367D01*
X11957194Y41587365D01*
X11993480Y41659937D01*
X11996750Y41681651D01*
X12003536Y41702534D01*
X12003536Y42101676D01*
X12139607Y42101676D01*
X12146392Y42080793D01*
X12149663Y42059078D01*
X12185949Y41986507D01*
X12196782Y41975509D01*
X12203791Y41961753D01*
X12240077Y41925467D01*
X12253833Y41918458D01*
X12264832Y41907625D01*
X12337404Y41871339D01*
X12347900Y41869759D01*
X12356898Y41864128D01*
X12491898Y41830378D01*
X12541291Y41805682D01*
X12555717Y41791255D01*
X12575036Y41752619D01*
X12575036Y41725019D01*
X12555718Y41686385D01*
X12541292Y41671959D01*
X12502658Y41652641D01*
X12359171Y41652641D01*
X12264977Y41684038D01*
X12206111Y41684485D01*
X12158225Y41650245D01*
X12139610Y41594398D01*
X12157375Y41538275D01*
X12204737Y41503314D01*
X12313595Y41467029D01*
X12329031Y41466912D01*
X12343715Y41462141D01*
X12525143Y41462141D01*
X12546024Y41468926D01*
X12567739Y41472196D01*
X12640312Y41508482D01*
X12651311Y41519316D01*
X12665068Y41526325D01*
X12696133Y41557391D01*
X12901607Y41557391D01*
X12906269Y41543043D01*
X12906269Y41527957D01*
X12915135Y41515753D01*
X12919798Y41501404D01*
X12932002Y41492537D01*
X12940870Y41480332D01*
X12955218Y41475670D01*
X12967423Y41466803D01*
X12982509Y41466803D01*
X12996857Y41462141D01*
X13287143Y41462141D01*
X13308027Y41468927D01*
X13329740Y41472197D01*
X13402311Y41508482D01*
X13413309Y41519315D01*
X13427066Y41526324D01*
X13463352Y41562610D01*
X13470361Y41576367D01*
X13481194Y41587365D01*
X13517480Y41659937D01*
X13520750Y41681651D01*
X13527536Y41702534D01*
X13527536Y41811391D01*
X13525310Y41818242D01*
X13668269Y41818242D01*
X13702870Y41770617D01*
X13758857Y41752426D01*
X14339429Y41752426D01*
X14395416Y41770617D01*
X14430017Y41818242D01*
X14430017Y41877110D01*
X14425039Y41883962D01*
X14570750Y41883962D01*
X14574413Y41872687D01*
X14573594Y41860860D01*
X14609880Y41715717D01*
X14615510Y41706719D01*
X14617092Y41696221D01*
X14653378Y41623650D01*
X14664212Y41612651D01*
X14671220Y41598897D01*
X14743791Y41526324D01*
X14763359Y41516354D01*
X14781023Y41503314D01*
X14889880Y41467029D01*
X14905316Y41466912D01*
X14920000Y41462141D01*
X14992572Y41462141D01*
X15007255Y41466912D01*
X15022692Y41467029D01*
X15131549Y41503314D01*
X15149213Y41516354D01*
X15168781Y41526324D01*
X15205067Y41562610D01*
X15231793Y41615062D01*
X15222583Y41673204D01*
X15180957Y41714830D01*
X15122815Y41724040D01*
X15070363Y41697314D01*
X15049976Y41676928D01*
X14977116Y41652641D01*
X14935456Y41652641D01*
X14862595Y41676928D01*
X14816854Y41722669D01*
X14792155Y41772066D01*
X14761250Y41895689D01*
X14761250Y41981093D01*
X14787849Y42087490D01*
X15333812Y42087490D01*
X15360139Y42034837D01*
X15412386Y42007714D01*
X15470597Y42016482D01*
X15543169Y42052768D01*
X15550465Y42059954D01*
X15550465Y41652641D01*
X15428000Y41652641D01*
X15372013Y41634450D01*
X15337412Y41586825D01*
X15337412Y41527957D01*
X15372013Y41480332D01*
X15428000Y41462141D01*
X15863429Y41462141D01*
X15919416Y41480332D01*
X15954017Y41527957D01*
X15954017Y41586825D01*
X15919416Y41634450D01*
X15863429Y41652641D01*
X15740965Y41652641D01*
X15740965Y42319391D01*
X15740345Y42321299D01*
X15740888Y42323230D01*
X15731305Y42349122D01*
X15722774Y42375378D01*
X15721150Y42376558D01*
X15720455Y42378437D01*
X15697492Y42393747D01*
X15675149Y42409979D01*
X15673143Y42409979D01*
X15671474Y42411092D01*
X15643874Y42409979D01*
X15616281Y42409979D01*
X15614659Y42408801D01*
X15612654Y42408720D01*
X15590989Y42391605D01*
X15568656Y42375378D01*
X15568035Y42373470D01*
X15566462Y42372226D01*
X15499119Y42271215D01*
X15444150Y42216244D01*
X15385403Y42186870D01*
X15343462Y42145562D01*
X15333812Y42087490D01*
X14787849Y42087490D01*
X14792156Y42104718D01*
X14816853Y42154111D01*
X14862595Y42199854D01*
X14935457Y42224141D01*
X14977115Y42224141D01*
X15049976Y42199854D01*
X15070363Y42179467D01*
X15122815Y42152741D01*
X15180957Y42161951D01*
X15222583Y42203577D01*
X15231793Y42261719D01*
X15205067Y42314171D01*
X15168781Y42350457D01*
X15149215Y42360427D01*
X15131550Y42373467D01*
X15022693Y42409753D01*
X15007255Y42409871D01*
X14992572Y42414641D01*
X14920000Y42414641D01*
X14905316Y42409871D01*
X14889879Y42409753D01*
X14781022Y42373467D01*
X14763356Y42360427D01*
X14743791Y42350457D01*
X14671220Y42277886D01*
X14664210Y42264130D01*
X14653378Y42253131D01*
X14617092Y42180559D01*
X14615511Y42170063D01*
X14609880Y42161064D01*
X14573594Y42015921D01*
X14574413Y42004095D01*
X14570750Y41992819D01*
X14570750Y41883962D01*
X14425039Y41883962D01*
X14395416Y41924735D01*
X14339429Y41942926D01*
X13758857Y41942926D01*
X13702870Y41924735D01*
X13668269Y41877110D01*
X13668269Y41818242D01*
X13525310Y41818242D01*
X13520750Y41832275D01*
X13517480Y41853989D01*
X13481194Y41926560D01*
X13470360Y41937559D01*
X13463352Y41951314D01*
X13436596Y41978070D01*
X13444908Y41986507D01*
X13481194Y42059078D01*
X13484464Y42080793D01*
X13491250Y42101676D01*
X13491250Y42174248D01*
X13484464Y42195132D01*
X13481194Y42216846D01*
X13444908Y42289417D01*
X13434075Y42300416D01*
X13427067Y42314170D01*
X13390782Y42350456D01*
X13377025Y42357466D01*
X13366026Y42368299D01*
X13293454Y42404585D01*
X13271740Y42407856D01*
X13250857Y42414641D01*
X12996857Y42414641D01*
X12982509Y42409979D01*
X12967423Y42409979D01*
X12955218Y42401113D01*
X12940870Y42396450D01*
X12932002Y42384246D01*
X12919798Y42375378D01*
X12915135Y42361030D01*
X12906269Y42348825D01*
X12906269Y42333740D01*
X12901607Y42319391D01*
X12901607Y41557391D01*
X12696133Y41557391D01*
X12701353Y41562611D01*
X12708361Y41576367D01*
X12719194Y41587365D01*
X12755480Y41659937D01*
X12758750Y41681651D01*
X12765536Y41702534D01*
X12765536Y41775105D01*
X12758750Y41795989D01*
X12755480Y41817703D01*
X12719194Y41890274D01*
X12708361Y41901273D01*
X12701353Y41915027D01*
X12665068Y41951313D01*
X12651311Y41958323D01*
X12640312Y41969156D01*
X12567740Y42005442D01*
X12557243Y42007023D01*
X12548245Y42012654D01*
X12413243Y42046405D01*
X12363851Y42071101D01*
X12349424Y42085528D01*
X12330107Y42124163D01*
X12330107Y42151762D01*
X12349424Y42190397D01*
X12363851Y42204824D01*
X12402486Y42224141D01*
X12545972Y42224141D01*
X12640165Y42192743D01*
X12699031Y42192296D01*
X12746917Y42226535D01*
X12765533Y42282382D01*
X12747768Y42338505D01*
X12700407Y42373467D01*
X12591550Y42409753D01*
X12576112Y42409871D01*
X12561429Y42414641D01*
X12380000Y42414641D01*
X12359116Y42407856D01*
X12337402Y42404585D01*
X12264831Y42368299D01*
X12253832Y42357466D01*
X12240077Y42350457D01*
X12203791Y42314171D01*
X12196782Y42300416D01*
X12185949Y42289417D01*
X12149663Y42216846D01*
X12146392Y42195132D01*
X12139607Y42174248D01*
X12139607Y42101676D01*
X12003536Y42101676D01*
X12003536Y42319391D01*
X11985345Y42375378D01*
X11937720Y42409979D01*
X11878852Y42409979D01*
X11831227Y42375378D01*
X11813036Y42319391D01*
X11813036Y41725019D01*
X11793719Y41686385D01*
X11779292Y41671958D01*
X11740658Y41652641D01*
X11640485Y41652641D01*
X11601851Y41671958D01*
X11587424Y41686385D01*
X11568107Y41725019D01*
X11568107Y42319391D01*
X11549916Y42375378D01*
X11502291Y42409979D01*
X11443423Y42409979D01*
X11395798Y42375378D01*
X11377607Y42319391D01*
X11377607Y41702534D01*
X11268750Y41702534D01*
X11268750Y42523498D01*
X16062874Y42523498D01*
X16062874Y41353284D01*
G37*
X7260143Y29329962D02*
X7223857Y29293676D01*
X7223857Y29293676D02*
X7115000Y29257391D01*
X7115000Y29257391D02*
X7042428Y29257391D01*
X7042428Y29257391D02*
X6933571Y29293676D01*
X6933571Y29293676D02*
X6861000Y29366248D01*
X6861000Y29366248D02*
X6824714Y29438819D01*
X6824714Y29438819D02*
X6788428Y29583962D01*
X6788428Y29583962D02*
X6788428Y29692819D01*
X6788428Y29692819D02*
X6824714Y29837962D01*
X6824714Y29837962D02*
X6861000Y29910534D01*
X6861000Y29910534D02*
X6933571Y29983105D01*
X6933571Y29983105D02*
X7042428Y30019391D01*
X7042428Y30019391D02*
X7115000Y30019391D01*
X7115000Y30019391D02*
X7223857Y29983105D01*
X7223857Y29983105D02*
X7260143Y29946819D01*
X7985857Y29257391D02*
X7550428Y29257391D01*
X7768143Y29257391D02*
X7768143Y30019391D01*
X7768143Y30019391D02*
X7695571Y29910534D01*
X7695571Y29910534D02*
X7623000Y29837962D01*
X7623000Y29837962D02*
X7550428Y29801676D01*
X8457571Y30019391D02*
X8530142Y30019391D01*
X8530142Y30019391D02*
X8602714Y29983105D01*
X8602714Y29983105D02*
X8639000Y29946819D01*
X8639000Y29946819D02*
X8675285Y29874248D01*
X8675285Y29874248D02*
X8711571Y29729105D01*
X8711571Y29729105D02*
X8711571Y29547676D01*
X8711571Y29547676D02*
X8675285Y29402534D01*
X8675285Y29402534D02*
X8639000Y29329962D01*
X8639000Y29329962D02*
X8602714Y29293676D01*
X8602714Y29293676D02*
X8530142Y29257391D01*
X8530142Y29257391D02*
X8457571Y29257391D01*
X8457571Y29257391D02*
X8385000Y29293676D01*
X8385000Y29293676D02*
X8348714Y29329962D01*
X8348714Y29329962D02*
X8312428Y29402534D01*
X8312428Y29402534D02*
X8276142Y29547676D01*
X8276142Y29547676D02*
X8276142Y29729105D01*
X8276142Y29729105D02*
X8312428Y29874248D01*
X8312428Y29874248D02*
X8348714Y29946819D01*
X8348714Y29946819D02*
X8385000Y29983105D01*
X8385000Y29983105D02*
X8457571Y30019391D01*
X7373000Y20729962D02*
X7336714Y20693676D01*
X7336714Y20693676D02*
X7227857Y20657391D01*
X7227857Y20657391D02*
X7155285Y20657391D01*
X7155285Y20657391D02*
X7046428Y20693676D01*
X7046428Y20693676D02*
X6973857Y20766248D01*
X6973857Y20766248D02*
X6937571Y20838819D01*
X6937571Y20838819D02*
X6901285Y20983962D01*
X6901285Y20983962D02*
X6901285Y21092819D01*
X6901285Y21092819D02*
X6937571Y21237962D01*
X6937571Y21237962D02*
X6973857Y21310534D01*
X6973857Y21310534D02*
X7046428Y21383105D01*
X7046428Y21383105D02*
X7155285Y21419391D01*
X7155285Y21419391D02*
X7227857Y21419391D01*
X7227857Y21419391D02*
X7336714Y21383105D01*
X7336714Y21383105D02*
X7373000Y21346819D01*
X8026143Y21165391D02*
X8026143Y20657391D01*
X7844714Y21455676D02*
X7663285Y20911391D01*
X7663285Y20911391D02*
X8135000Y20911391D01*
X12910143Y37757391D02*
X12656143Y38120248D01*
X12474714Y37757391D02*
X12474714Y38519391D01*
X12474714Y38519391D02*
X12765000Y38519391D01*
X12765000Y38519391D02*
X12837571Y38483105D01*
X12837571Y38483105D02*
X12873857Y38446819D01*
X12873857Y38446819D02*
X12910143Y38374248D01*
X12910143Y38374248D02*
X12910143Y38265391D01*
X12910143Y38265391D02*
X12873857Y38192819D01*
X12873857Y38192819D02*
X12837571Y38156534D01*
X12837571Y38156534D02*
X12765000Y38120248D01*
X12765000Y38120248D02*
X12474714Y38120248D01*
X13635857Y37757391D02*
X13200428Y37757391D01*
X13418143Y37757391D02*
X13418143Y38519391D01*
X13418143Y38519391D02*
X13345571Y38410534D01*
X13345571Y38410534D02*
X13273000Y38337962D01*
X13273000Y38337962D02*
X13200428Y38301676D01*
X13889857Y38519391D02*
X14361571Y38519391D01*
X14361571Y38519391D02*
X14107571Y38229105D01*
X14107571Y38229105D02*
X14216428Y38229105D01*
X14216428Y38229105D02*
X14289000Y38192819D01*
X14289000Y38192819D02*
X14325285Y38156534D01*
X14325285Y38156534D02*
X14361571Y38083962D01*
X14361571Y38083962D02*
X14361571Y37902534D01*
X14361571Y37902534D02*
X14325285Y37829962D01*
X14325285Y37829962D02*
X14289000Y37793676D01*
X14289000Y37793676D02*
X14216428Y37757391D01*
X14216428Y37757391D02*
X13998714Y37757391D01*
X13998714Y37757391D02*
X13926142Y37793676D01*
X13926142Y37793676D02*
X13889857Y37829962D01*
X21210143Y23229962D02*
X21173857Y23193676D01*
X21173857Y23193676D02*
X21065000Y23157391D01*
X21065000Y23157391D02*
X20992428Y23157391D01*
X20992428Y23157391D02*
X20883571Y23193676D01*
X20883571Y23193676D02*
X20811000Y23266248D01*
X20811000Y23266248D02*
X20774714Y23338819D01*
X20774714Y23338819D02*
X20738428Y23483962D01*
X20738428Y23483962D02*
X20738428Y23592819D01*
X20738428Y23592819D02*
X20774714Y23737962D01*
X20774714Y23737962D02*
X20811000Y23810534D01*
X20811000Y23810534D02*
X20883571Y23883105D01*
X20883571Y23883105D02*
X20992428Y23919391D01*
X20992428Y23919391D02*
X21065000Y23919391D01*
X21065000Y23919391D02*
X21173857Y23883105D01*
X21173857Y23883105D02*
X21210143Y23846819D01*
X21935857Y23157391D02*
X21500428Y23157391D01*
X21718143Y23157391D02*
X21718143Y23919391D01*
X21718143Y23919391D02*
X21645571Y23810534D01*
X21645571Y23810534D02*
X21573000Y23737962D01*
X21573000Y23737962D02*
X21500428Y23701676D01*
X22189857Y23919391D02*
X22697857Y23919391D01*
X22697857Y23919391D02*
X22371285Y23157391D01*
X25773000Y30329962D02*
X25736714Y30293676D01*
X25736714Y30293676D02*
X25627857Y30257391D01*
X25627857Y30257391D02*
X25555285Y30257391D01*
X25555285Y30257391D02*
X25446428Y30293676D01*
X25446428Y30293676D02*
X25373857Y30366248D01*
X25373857Y30366248D02*
X25337571Y30438819D01*
X25337571Y30438819D02*
X25301285Y30583962D01*
X25301285Y30583962D02*
X25301285Y30692819D01*
X25301285Y30692819D02*
X25337571Y30837962D01*
X25337571Y30837962D02*
X25373857Y30910534D01*
X25373857Y30910534D02*
X25446428Y30983105D01*
X25446428Y30983105D02*
X25555285Y31019391D01*
X25555285Y31019391D02*
X25627857Y31019391D01*
X25627857Y31019391D02*
X25736714Y30983105D01*
X25736714Y30983105D02*
X25773000Y30946819D01*
X26135857Y30257391D02*
X26281000Y30257391D01*
X26281000Y30257391D02*
X26353571Y30293676D01*
X26353571Y30293676D02*
X26389857Y30329962D01*
X26389857Y30329962D02*
X26462428Y30438819D01*
X26462428Y30438819D02*
X26498714Y30583962D01*
X26498714Y30583962D02*
X26498714Y30874248D01*
X26498714Y30874248D02*
X26462428Y30946819D01*
X26462428Y30946819D02*
X26426143Y30983105D01*
X26426143Y30983105D02*
X26353571Y31019391D01*
X26353571Y31019391D02*
X26208428Y31019391D01*
X26208428Y31019391D02*
X26135857Y30983105D01*
X26135857Y30983105D02*
X26099571Y30946819D01*
X26099571Y30946819D02*
X26063285Y30874248D01*
X26063285Y30874248D02*
X26063285Y30692819D01*
X26063285Y30692819D02*
X26099571Y30620248D01*
X26099571Y30620248D02*
X26135857Y30583962D01*
X26135857Y30583962D02*
X26208428Y30547676D01*
X26208428Y30547676D02*
X26353571Y30547676D01*
X26353571Y30547676D02*
X26426143Y30583962D01*
X26426143Y30583962D02*
X26462428Y30620248D01*
X26462428Y30620248D02*
X26498714Y30692819D01*
X19320038Y30410144D02*
X19356324Y30373858D01*
X19356324Y30373858D02*
X19392609Y30265001D01*
X19392609Y30265001D02*
X19392609Y30192429D01*
X19392609Y30192429D02*
X19356324Y30083572D01*
X19356324Y30083572D02*
X19283752Y30011001D01*
X19283752Y30011001D02*
X19211181Y29974715D01*
X19211181Y29974715D02*
X19066038Y29938429D01*
X19066038Y29938429D02*
X18957181Y29938429D01*
X18957181Y29938429D02*
X18812038Y29974715D01*
X18812038Y29974715D02*
X18739466Y30011001D01*
X18739466Y30011001D02*
X18666895Y30083572D01*
X18666895Y30083572D02*
X18630609Y30192429D01*
X18630609Y30192429D02*
X18630609Y30265001D01*
X18630609Y30265001D02*
X18666895Y30373858D01*
X18666895Y30373858D02*
X18703181Y30410144D01*
X19392609Y31135858D02*
X19392609Y30700429D01*
X19392609Y30918144D02*
X18630609Y30918144D01*
X18630609Y30918144D02*
X18739466Y30845572D01*
X18739466Y30845572D02*
X18812038Y30773001D01*
X18812038Y30773001D02*
X18848324Y30700429D01*
X18884609Y31789000D02*
X19392609Y31789000D01*
X18594324Y31607572D02*
X19138609Y31426143D01*
X19138609Y31426143D02*
X19138609Y31897858D01*
X19370038Y16410144D02*
X19406324Y16373858D01*
X19406324Y16373858D02*
X19442609Y16265001D01*
X19442609Y16265001D02*
X19442609Y16192429D01*
X19442609Y16192429D02*
X19406324Y16083572D01*
X19406324Y16083572D02*
X19333752Y16011001D01*
X19333752Y16011001D02*
X19261181Y15974715D01*
X19261181Y15974715D02*
X19116038Y15938429D01*
X19116038Y15938429D02*
X19007181Y15938429D01*
X19007181Y15938429D02*
X18862038Y15974715D01*
X18862038Y15974715D02*
X18789466Y16011001D01*
X18789466Y16011001D02*
X18716895Y16083572D01*
X18716895Y16083572D02*
X18680609Y16192429D01*
X18680609Y16192429D02*
X18680609Y16265001D01*
X18680609Y16265001D02*
X18716895Y16373858D01*
X18716895Y16373858D02*
X18753181Y16410144D01*
X19442609Y17135858D02*
X19442609Y16700429D01*
X19442609Y16918144D02*
X18680609Y16918144D01*
X18680609Y16918144D02*
X18789466Y16845572D01*
X18789466Y16845572D02*
X18862038Y16773001D01*
X18862038Y16773001D02*
X18898324Y16700429D01*
X18680609Y17789000D02*
X18680609Y17643858D01*
X18680609Y17643858D02*
X18716895Y17571286D01*
X18716895Y17571286D02*
X18753181Y17535000D01*
X18753181Y17535000D02*
X18862038Y17462429D01*
X18862038Y17462429D02*
X19007181Y17426143D01*
X19007181Y17426143D02*
X19297466Y17426143D01*
X19297466Y17426143D02*
X19370038Y17462429D01*
X19370038Y17462429D02*
X19406324Y17498715D01*
X19406324Y17498715D02*
X19442609Y17571286D01*
X19442609Y17571286D02*
X19442609Y17716429D01*
X19442609Y17716429D02*
X19406324Y17789000D01*
X19406324Y17789000D02*
X19370038Y17825286D01*
X19370038Y17825286D02*
X19297466Y17861572D01*
X19297466Y17861572D02*
X19116038Y17861572D01*
X19116038Y17861572D02*
X19043466Y17825286D01*
X19043466Y17825286D02*
X19007181Y17789000D01*
X19007181Y17789000D02*
X18970895Y17716429D01*
X18970895Y17716429D02*
X18970895Y17571286D01*
X18970895Y17571286D02*
X19007181Y17498715D01*
X19007181Y17498715D02*
X19043466Y17462429D01*
X19043466Y17462429D02*
X19116038Y17426143D01*
X13270038Y30010144D02*
X13306324Y29973858D01*
X13306324Y29973858D02*
X13342609Y29865001D01*
X13342609Y29865001D02*
X13342609Y29792429D01*
X13342609Y29792429D02*
X13306324Y29683572D01*
X13306324Y29683572D02*
X13233752Y29611001D01*
X13233752Y29611001D02*
X13161181Y29574715D01*
X13161181Y29574715D02*
X13016038Y29538429D01*
X13016038Y29538429D02*
X12907181Y29538429D01*
X12907181Y29538429D02*
X12762038Y29574715D01*
X12762038Y29574715D02*
X12689466Y29611001D01*
X12689466Y29611001D02*
X12616895Y29683572D01*
X12616895Y29683572D02*
X12580609Y29792429D01*
X12580609Y29792429D02*
X12580609Y29865001D01*
X12580609Y29865001D02*
X12616895Y29973858D01*
X12616895Y29973858D02*
X12653181Y30010144D01*
X13342609Y30735858D02*
X13342609Y30300429D01*
X13342609Y30518144D02*
X12580609Y30518144D01*
X12580609Y30518144D02*
X12689466Y30445572D01*
X12689466Y30445572D02*
X12762038Y30373001D01*
X12762038Y30373001D02*
X12798324Y30300429D01*
X13342609Y31461572D02*
X13342609Y31026143D01*
X13342609Y31243858D02*
X12580609Y31243858D01*
X12580609Y31243858D02*
X12689466Y31171286D01*
X12689466Y31171286D02*
X12762038Y31098715D01*
X12762038Y31098715D02*
X12798324Y31026143D01*
X21473000Y32057391D02*
X21219000Y32420248D01*
X21037571Y32057391D02*
X21037571Y32819391D01*
X21037571Y32819391D02*
X21327857Y32819391D01*
X21327857Y32819391D02*
X21400428Y32783105D01*
X21400428Y32783105D02*
X21436714Y32746819D01*
X21436714Y32746819D02*
X21473000Y32674248D01*
X21473000Y32674248D02*
X21473000Y32565391D01*
X21473000Y32565391D02*
X21436714Y32492819D01*
X21436714Y32492819D02*
X21400428Y32456534D01*
X21400428Y32456534D02*
X21327857Y32420248D01*
X21327857Y32420248D02*
X21037571Y32420248D01*
X21727000Y32819391D02*
X22198714Y32819391D01*
X22198714Y32819391D02*
X21944714Y32529105D01*
X21944714Y32529105D02*
X22053571Y32529105D01*
X22053571Y32529105D02*
X22126143Y32492819D01*
X22126143Y32492819D02*
X22162428Y32456534D01*
X22162428Y32456534D02*
X22198714Y32383962D01*
X22198714Y32383962D02*
X22198714Y32202534D01*
X22198714Y32202534D02*
X22162428Y32129962D01*
X22162428Y32129962D02*
X22126143Y32093676D01*
X22126143Y32093676D02*
X22053571Y32057391D01*
X22053571Y32057391D02*
X21835857Y32057391D01*
X21835857Y32057391D02*
X21763285Y32093676D01*
X21763285Y32093676D02*
X21727000Y32129962D01*
X6573000Y24479962D02*
X6536714Y24443676D01*
X6536714Y24443676D02*
X6427857Y24407391D01*
X6427857Y24407391D02*
X6355285Y24407391D01*
X6355285Y24407391D02*
X6246428Y24443676D01*
X6246428Y24443676D02*
X6173857Y24516248D01*
X6173857Y24516248D02*
X6137571Y24588819D01*
X6137571Y24588819D02*
X6101285Y24733962D01*
X6101285Y24733962D02*
X6101285Y24842819D01*
X6101285Y24842819D02*
X6137571Y24987962D01*
X6137571Y24987962D02*
X6173857Y25060534D01*
X6173857Y25060534D02*
X6246428Y25133105D01*
X6246428Y25133105D02*
X6355285Y25169391D01*
X6355285Y25169391D02*
X6427857Y25169391D01*
X6427857Y25169391D02*
X6536714Y25133105D01*
X6536714Y25133105D02*
X6573000Y25096819D01*
X6827000Y25169391D02*
X7298714Y25169391D01*
X7298714Y25169391D02*
X7044714Y24879105D01*
X7044714Y24879105D02*
X7153571Y24879105D01*
X7153571Y24879105D02*
X7226143Y24842819D01*
X7226143Y24842819D02*
X7262428Y24806534D01*
X7262428Y24806534D02*
X7298714Y24733962D01*
X7298714Y24733962D02*
X7298714Y24552534D01*
X7298714Y24552534D02*
X7262428Y24479962D01*
X7262428Y24479962D02*
X7226143Y24443676D01*
X7226143Y24443676D02*
X7153571Y24407391D01*
X7153571Y24407391D02*
X6935857Y24407391D01*
X6935857Y24407391D02*
X6863285Y24443676D01*
X6863285Y24443676D02*
X6827000Y24479962D01*
X12910143Y38979962D02*
X12873857Y38943676D01*
X12873857Y38943676D02*
X12765000Y38907391D01*
X12765000Y38907391D02*
X12692428Y38907391D01*
X12692428Y38907391D02*
X12583571Y38943676D01*
X12583571Y38943676D02*
X12511000Y39016248D01*
X12511000Y39016248D02*
X12474714Y39088819D01*
X12474714Y39088819D02*
X12438428Y39233962D01*
X12438428Y39233962D02*
X12438428Y39342819D01*
X12438428Y39342819D02*
X12474714Y39487962D01*
X12474714Y39487962D02*
X12511000Y39560534D01*
X12511000Y39560534D02*
X12583571Y39633105D01*
X12583571Y39633105D02*
X12692428Y39669391D01*
X12692428Y39669391D02*
X12765000Y39669391D01*
X12765000Y39669391D02*
X12873857Y39633105D01*
X12873857Y39633105D02*
X12910143Y39596819D01*
X13200428Y39596819D02*
X13236714Y39633105D01*
X13236714Y39633105D02*
X13309286Y39669391D01*
X13309286Y39669391D02*
X13490714Y39669391D01*
X13490714Y39669391D02*
X13563286Y39633105D01*
X13563286Y39633105D02*
X13599571Y39596819D01*
X13599571Y39596819D02*
X13635857Y39524248D01*
X13635857Y39524248D02*
X13635857Y39451676D01*
X13635857Y39451676D02*
X13599571Y39342819D01*
X13599571Y39342819D02*
X13164143Y38907391D01*
X13164143Y38907391D02*
X13635857Y38907391D01*
X13889857Y39669391D02*
X14361571Y39669391D01*
X14361571Y39669391D02*
X14107571Y39379105D01*
X14107571Y39379105D02*
X14216428Y39379105D01*
X14216428Y39379105D02*
X14289000Y39342819D01*
X14289000Y39342819D02*
X14325285Y39306534D01*
X14325285Y39306534D02*
X14361571Y39233962D01*
X14361571Y39233962D02*
X14361571Y39052534D01*
X14361571Y39052534D02*
X14325285Y38979962D01*
X14325285Y38979962D02*
X14289000Y38943676D01*
X14289000Y38943676D02*
X14216428Y38907391D01*
X14216428Y38907391D02*
X13998714Y38907391D01*
X13998714Y38907391D02*
X13926142Y38943676D01*
X13926142Y38943676D02*
X13889857Y38979962D01*
X19592609Y32973001D02*
X19592609Y32610144D01*
X19592609Y32610144D02*
X18830609Y32610144D01*
X19592609Y33626144D02*
X19592609Y33190715D01*
X19592609Y33408430D02*
X18830609Y33408430D01*
X18830609Y33408430D02*
X18939466Y33335858D01*
X18939466Y33335858D02*
X19012038Y33263287D01*
X19012038Y33263287D02*
X19048324Y33190715D01*
X21470038Y30010144D02*
X21506324Y29973858D01*
X21506324Y29973858D02*
X21542609Y29865001D01*
X21542609Y29865001D02*
X21542609Y29792429D01*
X21542609Y29792429D02*
X21506324Y29683572D01*
X21506324Y29683572D02*
X21433752Y29611001D01*
X21433752Y29611001D02*
X21361181Y29574715D01*
X21361181Y29574715D02*
X21216038Y29538429D01*
X21216038Y29538429D02*
X21107181Y29538429D01*
X21107181Y29538429D02*
X20962038Y29574715D01*
X20962038Y29574715D02*
X20889466Y29611001D01*
X20889466Y29611001D02*
X20816895Y29683572D01*
X20816895Y29683572D02*
X20780609Y29792429D01*
X20780609Y29792429D02*
X20780609Y29865001D01*
X20780609Y29865001D02*
X20816895Y29973858D01*
X20816895Y29973858D02*
X20853181Y30010144D01*
X21542609Y30735858D02*
X21542609Y30300429D01*
X21542609Y30518144D02*
X20780609Y30518144D01*
X20780609Y30518144D02*
X20889466Y30445572D01*
X20889466Y30445572D02*
X20962038Y30373001D01*
X20962038Y30373001D02*
X20998324Y30300429D01*
X21107181Y31171286D02*
X21070895Y31098715D01*
X21070895Y31098715D02*
X21034609Y31062429D01*
X21034609Y31062429D02*
X20962038Y31026143D01*
X20962038Y31026143D02*
X20925752Y31026143D01*
X20925752Y31026143D02*
X20853181Y31062429D01*
X20853181Y31062429D02*
X20816895Y31098715D01*
X20816895Y31098715D02*
X20780609Y31171286D01*
X20780609Y31171286D02*
X20780609Y31316429D01*
X20780609Y31316429D02*
X20816895Y31389000D01*
X20816895Y31389000D02*
X20853181Y31425286D01*
X20853181Y31425286D02*
X20925752Y31461572D01*
X20925752Y31461572D02*
X20962038Y31461572D01*
X20962038Y31461572D02*
X21034609Y31425286D01*
X21034609Y31425286D02*
X21070895Y31389000D01*
X21070895Y31389000D02*
X21107181Y31316429D01*
X21107181Y31316429D02*
X21107181Y31171286D01*
X21107181Y31171286D02*
X21143466Y31098715D01*
X21143466Y31098715D02*
X21179752Y31062429D01*
X21179752Y31062429D02*
X21252324Y31026143D01*
X21252324Y31026143D02*
X21397466Y31026143D01*
X21397466Y31026143D02*
X21470038Y31062429D01*
X21470038Y31062429D02*
X21506324Y31098715D01*
X21506324Y31098715D02*
X21542609Y31171286D01*
X21542609Y31171286D02*
X21542609Y31316429D01*
X21542609Y31316429D02*
X21506324Y31389000D01*
X21506324Y31389000D02*
X21470038Y31425286D01*
X21470038Y31425286D02*
X21397466Y31461572D01*
X21397466Y31461572D02*
X21252324Y31461572D01*
X21252324Y31461572D02*
X21179752Y31425286D01*
X21179752Y31425286D02*
X21143466Y31389000D01*
X21143466Y31389000D02*
X21107181Y31316429D01*
X21542609Y16073001D02*
X21179752Y15819001D01*
X21542609Y15637572D02*
X20780609Y15637572D01*
X20780609Y15637572D02*
X20780609Y15927858D01*
X20780609Y15927858D02*
X20816895Y16000429D01*
X20816895Y16000429D02*
X20853181Y16036715D01*
X20853181Y16036715D02*
X20925752Y16073001D01*
X20925752Y16073001D02*
X21034609Y16073001D01*
X21034609Y16073001D02*
X21107181Y16036715D01*
X21107181Y16036715D02*
X21143466Y16000429D01*
X21143466Y16000429D02*
X21179752Y15927858D01*
X21179752Y15927858D02*
X21179752Y15637572D01*
X20853181Y16363286D02*
X20816895Y16399572D01*
X20816895Y16399572D02*
X20780609Y16472143D01*
X20780609Y16472143D02*
X20780609Y16653572D01*
X20780609Y16653572D02*
X20816895Y16726143D01*
X20816895Y16726143D02*
X20853181Y16762429D01*
X20853181Y16762429D02*
X20925752Y16798715D01*
X20925752Y16798715D02*
X20998324Y16798715D01*
X20998324Y16798715D02*
X21107181Y16762429D01*
X21107181Y16762429D02*
X21542609Y16327001D01*
X21542609Y16327001D02*
X21542609Y16798715D01*
D10*
X14203238Y16446426D02*
X14106476Y16494807D01*
X14106476Y16494807D02*
X14009714Y16591568D01*
X14009714Y16591568D02*
X13864571Y16736711D01*
X13864571Y16736711D02*
X13767809Y16785092D01*
X13767809Y16785092D02*
X13671047Y16785092D01*
X13719428Y16543188D02*
X13622666Y16591568D01*
X13622666Y16591568D02*
X13525904Y16688330D01*
X13525904Y16688330D02*
X13477523Y16881854D01*
X13477523Y16881854D02*
X13477523Y17220521D01*
X13477523Y17220521D02*
X13525904Y17414045D01*
X13525904Y17414045D02*
X13622666Y17510807D01*
X13622666Y17510807D02*
X13719428Y17559188D01*
X13719428Y17559188D02*
X13912952Y17559188D01*
X13912952Y17559188D02*
X14009714Y17510807D01*
X14009714Y17510807D02*
X14106476Y17414045D01*
X14106476Y17414045D02*
X14154857Y17220521D01*
X14154857Y17220521D02*
X14154857Y16881854D01*
X14154857Y16881854D02*
X14106476Y16688330D01*
X14106476Y16688330D02*
X14009714Y16591568D01*
X14009714Y16591568D02*
X13912952Y16543188D01*
X13912952Y16543188D02*
X13719428Y16543188D01*
X15122476Y16543188D02*
X14541904Y16543188D01*
X14832190Y16543188D02*
X14832190Y17559188D01*
X14832190Y17559188D02*
X14735428Y17414045D01*
X14735428Y17414045D02*
X14638666Y17317283D01*
X14638666Y17317283D02*
X14541904Y17268902D01*
X15727428Y16543188D02*
X15630666Y16591568D01*
X15630666Y16591568D02*
X15582285Y16639949D01*
X15582285Y16639949D02*
X15533904Y16736711D01*
X15533904Y16736711D02*
X15533904Y17026997D01*
X15533904Y17026997D02*
X15582285Y17123759D01*
X15582285Y17123759D02*
X15630666Y17172140D01*
X15630666Y17172140D02*
X15727428Y17220521D01*
X15727428Y17220521D02*
X15872571Y17220521D01*
X15872571Y17220521D02*
X15969333Y17172140D01*
X15969333Y17172140D02*
X16017714Y17123759D01*
X16017714Y17123759D02*
X16066095Y17026997D01*
X16066095Y17026997D02*
X16066095Y16736711D01*
X16066095Y16736711D02*
X16017714Y16639949D01*
X16017714Y16639949D02*
X15969333Y16591568D01*
X15969333Y16591568D02*
X15872571Y16543188D01*
X15872571Y16543188D02*
X15727428Y16543188D01*
D14*
X20673000Y20629962D02*
X20636714Y20593676D01*
X20636714Y20593676D02*
X20527857Y20557391D01*
X20527857Y20557391D02*
X20455285Y20557391D01*
X20455285Y20557391D02*
X20346428Y20593676D01*
X20346428Y20593676D02*
X20273857Y20666248D01*
X20273857Y20666248D02*
X20237571Y20738819D01*
X20237571Y20738819D02*
X20201285Y20883962D01*
X20201285Y20883962D02*
X20201285Y20992819D01*
X20201285Y20992819D02*
X20237571Y21137962D01*
X20237571Y21137962D02*
X20273857Y21210534D01*
X20273857Y21210534D02*
X20346428Y21283105D01*
X20346428Y21283105D02*
X20455285Y21319391D01*
X20455285Y21319391D02*
X20527857Y21319391D01*
X20527857Y21319391D02*
X20636714Y21283105D01*
X20636714Y21283105D02*
X20673000Y21246819D01*
X21108428Y20992819D02*
X21035857Y21029105D01*
X21035857Y21029105D02*
X20999571Y21065391D01*
X20999571Y21065391D02*
X20963285Y21137962D01*
X20963285Y21137962D02*
X20963285Y21174248D01*
X20963285Y21174248D02*
X20999571Y21246819D01*
X20999571Y21246819D02*
X21035857Y21283105D01*
X21035857Y21283105D02*
X21108428Y21319391D01*
X21108428Y21319391D02*
X21253571Y21319391D01*
X21253571Y21319391D02*
X21326143Y21283105D01*
X21326143Y21283105D02*
X21362428Y21246819D01*
X21362428Y21246819D02*
X21398714Y21174248D01*
X21398714Y21174248D02*
X21398714Y21137962D01*
X21398714Y21137962D02*
X21362428Y21065391D01*
X21362428Y21065391D02*
X21326143Y21029105D01*
X21326143Y21029105D02*
X21253571Y20992819D01*
X21253571Y20992819D02*
X21108428Y20992819D01*
X21108428Y20992819D02*
X21035857Y20956534D01*
X21035857Y20956534D02*
X20999571Y20920248D01*
X20999571Y20920248D02*
X20963285Y20847676D01*
X20963285Y20847676D02*
X20963285Y20702534D01*
X20963285Y20702534D02*
X20999571Y20629962D01*
X20999571Y20629962D02*
X21035857Y20593676D01*
X21035857Y20593676D02*
X21108428Y20557391D01*
X21108428Y20557391D02*
X21253571Y20557391D01*
X21253571Y20557391D02*
X21326143Y20593676D01*
X21326143Y20593676D02*
X21362428Y20629962D01*
X21362428Y20629962D02*
X21398714Y20702534D01*
X21398714Y20702534D02*
X21398714Y20847676D01*
X21398714Y20847676D02*
X21362428Y20920248D01*
X21362428Y20920248D02*
X21326143Y20956534D01*
X21326143Y20956534D02*
X21253571Y20992819D01*
X12270038Y16210144D02*
X12306324Y16173858D01*
X12306324Y16173858D02*
X12342609Y16065001D01*
X12342609Y16065001D02*
X12342609Y15992429D01*
X12342609Y15992429D02*
X12306324Y15883572D01*
X12306324Y15883572D02*
X12233752Y15811001D01*
X12233752Y15811001D02*
X12161181Y15774715D01*
X12161181Y15774715D02*
X12016038Y15738429D01*
X12016038Y15738429D02*
X11907181Y15738429D01*
X11907181Y15738429D02*
X11762038Y15774715D01*
X11762038Y15774715D02*
X11689466Y15811001D01*
X11689466Y15811001D02*
X11616895Y15883572D01*
X11616895Y15883572D02*
X11580609Y15992429D01*
X11580609Y15992429D02*
X11580609Y16065001D01*
X11580609Y16065001D02*
X11616895Y16173858D01*
X11616895Y16173858D02*
X11653181Y16210144D01*
X11653181Y16500429D02*
X11616895Y16536715D01*
X11616895Y16536715D02*
X11580609Y16609286D01*
X11580609Y16609286D02*
X11580609Y16790715D01*
X11580609Y16790715D02*
X11616895Y16863286D01*
X11616895Y16863286D02*
X11653181Y16899572D01*
X11653181Y16899572D02*
X11725752Y16935858D01*
X11725752Y16935858D02*
X11798324Y16935858D01*
X11798324Y16935858D02*
X11907181Y16899572D01*
X11907181Y16899572D02*
X12342609Y16464144D01*
X12342609Y16464144D02*
X12342609Y16935858D01*
X12342609Y17661572D02*
X12342609Y17226143D01*
X12342609Y17443858D02*
X11580609Y17443858D01*
X11580609Y17443858D02*
X11689466Y17371286D01*
X11689466Y17371286D02*
X11762038Y17298715D01*
X11762038Y17298715D02*
X11798324Y17226143D01*
X21410143Y25429962D02*
X21373857Y25393676D01*
X21373857Y25393676D02*
X21265000Y25357391D01*
X21265000Y25357391D02*
X21192428Y25357391D01*
X21192428Y25357391D02*
X21083571Y25393676D01*
X21083571Y25393676D02*
X21011000Y25466248D01*
X21011000Y25466248D02*
X20974714Y25538819D01*
X20974714Y25538819D02*
X20938428Y25683962D01*
X20938428Y25683962D02*
X20938428Y25792819D01*
X20938428Y25792819D02*
X20974714Y25937962D01*
X20974714Y25937962D02*
X21011000Y26010534D01*
X21011000Y26010534D02*
X21083571Y26083105D01*
X21083571Y26083105D02*
X21192428Y26119391D01*
X21192428Y26119391D02*
X21265000Y26119391D01*
X21265000Y26119391D02*
X21373857Y26083105D01*
X21373857Y26083105D02*
X21410143Y26046819D01*
X22135857Y25357391D02*
X21700428Y25357391D01*
X21918143Y25357391D02*
X21918143Y26119391D01*
X21918143Y26119391D02*
X21845571Y26010534D01*
X21845571Y26010534D02*
X21773000Y25937962D01*
X21773000Y25937962D02*
X21700428Y25901676D01*
X22498714Y25357391D02*
X22643857Y25357391D01*
X22643857Y25357391D02*
X22716428Y25393676D01*
X22716428Y25393676D02*
X22752714Y25429962D01*
X22752714Y25429962D02*
X22825285Y25538819D01*
X22825285Y25538819D02*
X22861571Y25683962D01*
X22861571Y25683962D02*
X22861571Y25974248D01*
X22861571Y25974248D02*
X22825285Y26046819D01*
X22825285Y26046819D02*
X22789000Y26083105D01*
X22789000Y26083105D02*
X22716428Y26119391D01*
X22716428Y26119391D02*
X22571285Y26119391D01*
X22571285Y26119391D02*
X22498714Y26083105D01*
X22498714Y26083105D02*
X22462428Y26046819D01*
X22462428Y26046819D02*
X22426142Y25974248D01*
X22426142Y25974248D02*
X22426142Y25792819D01*
X22426142Y25792819D02*
X22462428Y25720248D01*
X22462428Y25720248D02*
X22498714Y25683962D01*
X22498714Y25683962D02*
X22571285Y25647676D01*
X22571285Y25647676D02*
X22716428Y25647676D01*
X22716428Y25647676D02*
X22789000Y25683962D01*
X22789000Y25683962D02*
X22825285Y25720248D01*
X22825285Y25720248D02*
X22861571Y25792819D01*
X18760143Y41404962D02*
X18723857Y41368676D01*
X18723857Y41368676D02*
X18615000Y41332391D01*
X18615000Y41332391D02*
X18542428Y41332391D01*
X18542428Y41332391D02*
X18433571Y41368676D01*
X18433571Y41368676D02*
X18361000Y41441248D01*
X18361000Y41441248D02*
X18324714Y41513819D01*
X18324714Y41513819D02*
X18288428Y41658962D01*
X18288428Y41658962D02*
X18288428Y41767819D01*
X18288428Y41767819D02*
X18324714Y41912962D01*
X18324714Y41912962D02*
X18361000Y41985534D01*
X18361000Y41985534D02*
X18433571Y42058105D01*
X18433571Y42058105D02*
X18542428Y42094391D01*
X18542428Y42094391D02*
X18615000Y42094391D01*
X18615000Y42094391D02*
X18723857Y42058105D01*
X18723857Y42058105D02*
X18760143Y42021819D01*
X19050428Y42021819D02*
X19086714Y42058105D01*
X19086714Y42058105D02*
X19159286Y42094391D01*
X19159286Y42094391D02*
X19340714Y42094391D01*
X19340714Y42094391D02*
X19413286Y42058105D01*
X19413286Y42058105D02*
X19449571Y42021819D01*
X19449571Y42021819D02*
X19485857Y41949248D01*
X19485857Y41949248D02*
X19485857Y41876676D01*
X19485857Y41876676D02*
X19449571Y41767819D01*
X19449571Y41767819D02*
X19014143Y41332391D01*
X19014143Y41332391D02*
X19485857Y41332391D01*
X19776142Y42021819D02*
X19812428Y42058105D01*
X19812428Y42058105D02*
X19885000Y42094391D01*
X19885000Y42094391D02*
X20066428Y42094391D01*
X20066428Y42094391D02*
X20139000Y42058105D01*
X20139000Y42058105D02*
X20175285Y42021819D01*
X20175285Y42021819D02*
X20211571Y41949248D01*
X20211571Y41949248D02*
X20211571Y41876676D01*
X20211571Y41876676D02*
X20175285Y41767819D01*
X20175285Y41767819D02*
X19739857Y41332391D01*
X19739857Y41332391D02*
X20211571Y41332391D01*
X20470038Y16373001D02*
X20506324Y16336715D01*
X20506324Y16336715D02*
X20542609Y16227858D01*
X20542609Y16227858D02*
X20542609Y16155286D01*
X20542609Y16155286D02*
X20506324Y16046429D01*
X20506324Y16046429D02*
X20433752Y15973858D01*
X20433752Y15973858D02*
X20361181Y15937572D01*
X20361181Y15937572D02*
X20216038Y15901286D01*
X20216038Y15901286D02*
X20107181Y15901286D01*
X20107181Y15901286D02*
X19962038Y15937572D01*
X19962038Y15937572D02*
X19889466Y15973858D01*
X19889466Y15973858D02*
X19816895Y16046429D01*
X19816895Y16046429D02*
X19780609Y16155286D01*
X19780609Y16155286D02*
X19780609Y16227858D01*
X19780609Y16227858D02*
X19816895Y16336715D01*
X19816895Y16336715D02*
X19853181Y16373001D01*
X19853181Y16663286D02*
X19816895Y16699572D01*
X19816895Y16699572D02*
X19780609Y16772143D01*
X19780609Y16772143D02*
X19780609Y16953572D01*
X19780609Y16953572D02*
X19816895Y17026143D01*
X19816895Y17026143D02*
X19853181Y17062429D01*
X19853181Y17062429D02*
X19925752Y17098715D01*
X19925752Y17098715D02*
X19998324Y17098715D01*
X19998324Y17098715D02*
X20107181Y17062429D01*
X20107181Y17062429D02*
X20542609Y16627001D01*
X20542609Y16627001D02*
X20542609Y17098715D01*
X23270038Y32410144D02*
X23306324Y32373858D01*
X23306324Y32373858D02*
X23342609Y32265001D01*
X23342609Y32265001D02*
X23342609Y32192429D01*
X23342609Y32192429D02*
X23306324Y32083572D01*
X23306324Y32083572D02*
X23233752Y32011001D01*
X23233752Y32011001D02*
X23161181Y31974715D01*
X23161181Y31974715D02*
X23016038Y31938429D01*
X23016038Y31938429D02*
X22907181Y31938429D01*
X22907181Y31938429D02*
X22762038Y31974715D01*
X22762038Y31974715D02*
X22689466Y32011001D01*
X22689466Y32011001D02*
X22616895Y32083572D01*
X22616895Y32083572D02*
X22580609Y32192429D01*
X22580609Y32192429D02*
X22580609Y32265001D01*
X22580609Y32265001D02*
X22616895Y32373858D01*
X22616895Y32373858D02*
X22653181Y32410144D01*
X23342609Y33135858D02*
X23342609Y32700429D01*
X23342609Y32918144D02*
X22580609Y32918144D01*
X22580609Y32918144D02*
X22689466Y32845572D01*
X22689466Y32845572D02*
X22762038Y32773001D01*
X22762038Y32773001D02*
X22798324Y32700429D01*
X22653181Y33426143D02*
X22616895Y33462429D01*
X22616895Y33462429D02*
X22580609Y33535000D01*
X22580609Y33535000D02*
X22580609Y33716429D01*
X22580609Y33716429D02*
X22616895Y33789000D01*
X22616895Y33789000D02*
X22653181Y33825286D01*
X22653181Y33825286D02*
X22725752Y33861572D01*
X22725752Y33861572D02*
X22798324Y33861572D01*
X22798324Y33861572D02*
X22907181Y33825286D01*
X22907181Y33825286D02*
X23342609Y33389858D01*
X23342609Y33389858D02*
X23342609Y33861572D01*
X15010143Y29029962D02*
X14973857Y28993676D01*
X14973857Y28993676D02*
X14865000Y28957391D01*
X14865000Y28957391D02*
X14792428Y28957391D01*
X14792428Y28957391D02*
X14683571Y28993676D01*
X14683571Y28993676D02*
X14611000Y29066248D01*
X14611000Y29066248D02*
X14574714Y29138819D01*
X14574714Y29138819D02*
X14538428Y29283962D01*
X14538428Y29283962D02*
X14538428Y29392819D01*
X14538428Y29392819D02*
X14574714Y29537962D01*
X14574714Y29537962D02*
X14611000Y29610534D01*
X14611000Y29610534D02*
X14683571Y29683105D01*
X14683571Y29683105D02*
X14792428Y29719391D01*
X14792428Y29719391D02*
X14865000Y29719391D01*
X14865000Y29719391D02*
X14973857Y29683105D01*
X14973857Y29683105D02*
X15010143Y29646819D01*
X15735857Y28957391D02*
X15300428Y28957391D01*
X15518143Y28957391D02*
X15518143Y29719391D01*
X15518143Y29719391D02*
X15445571Y29610534D01*
X15445571Y29610534D02*
X15373000Y29537962D01*
X15373000Y29537962D02*
X15300428Y29501676D01*
X15989857Y29719391D02*
X16461571Y29719391D01*
X16461571Y29719391D02*
X16207571Y29429105D01*
X16207571Y29429105D02*
X16316428Y29429105D01*
X16316428Y29429105D02*
X16389000Y29392819D01*
X16389000Y29392819D02*
X16425285Y29356534D01*
X16425285Y29356534D02*
X16461571Y29283962D01*
X16461571Y29283962D02*
X16461571Y29102534D01*
X16461571Y29102534D02*
X16425285Y29029962D01*
X16425285Y29029962D02*
X16389000Y28993676D01*
X16389000Y28993676D02*
X16316428Y28957391D01*
X16316428Y28957391D02*
X16098714Y28957391D01*
X16098714Y28957391D02*
X16026142Y28993676D01*
X16026142Y28993676D02*
X15989857Y29029962D01*
X9619428Y29819391D02*
X9619428Y29202534D01*
X9619428Y29202534D02*
X9655714Y29129962D01*
X9655714Y29129962D02*
X9692000Y29093676D01*
X9692000Y29093676D02*
X9764571Y29057391D01*
X9764571Y29057391D02*
X9909714Y29057391D01*
X9909714Y29057391D02*
X9982285Y29093676D01*
X9982285Y29093676D02*
X10018571Y29129962D01*
X10018571Y29129962D02*
X10054857Y29202534D01*
X10054857Y29202534D02*
X10054857Y29819391D01*
X10345143Y29819391D02*
X10816857Y29819391D01*
X10816857Y29819391D02*
X10562857Y29529105D01*
X10562857Y29529105D02*
X10671714Y29529105D01*
X10671714Y29529105D02*
X10744286Y29492819D01*
X10744286Y29492819D02*
X10780571Y29456534D01*
X10780571Y29456534D02*
X10816857Y29383962D01*
X10816857Y29383962D02*
X10816857Y29202534D01*
X10816857Y29202534D02*
X10780571Y29129962D01*
X10780571Y29129962D02*
X10744286Y29093676D01*
X10744286Y29093676D02*
X10671714Y29057391D01*
X10671714Y29057391D02*
X10454000Y29057391D01*
X10454000Y29057391D02*
X10381428Y29093676D01*
X10381428Y29093676D02*
X10345143Y29129962D01*
D15*
X7871933Y27082310D02*
X7932410Y27203262D01*
X7932410Y27203262D02*
X7992886Y27263739D01*
X7992886Y27263739D02*
X8113838Y27324215D01*
X8113838Y27324215D02*
X8476695Y27324215D01*
X8476695Y27324215D02*
X8597648Y27263739D01*
X8597648Y27263739D02*
X8658124Y27203262D01*
X8658124Y27203262D02*
X8718600Y27082310D01*
X8718600Y27082310D02*
X8718600Y26900881D01*
X8718600Y26900881D02*
X8658124Y26779929D01*
X8658124Y26779929D02*
X8597648Y26719453D01*
X8597648Y26719453D02*
X8476695Y26658977D01*
X8476695Y26658977D02*
X8113838Y26658977D01*
X8113838Y26658977D02*
X7992886Y26719453D01*
X7992886Y26719453D02*
X7932410Y26779929D01*
X7932410Y26779929D02*
X7871933Y26900881D01*
X7871933Y26900881D02*
X7871933Y27082310D01*
D13*
X22768712Y34960833D02*
X22768712Y34537500D01*
X22768712Y34537500D02*
X21879712Y34537500D01*
X21964379Y35214834D02*
X21922045Y35257167D01*
X21922045Y35257167D02*
X21879712Y35341834D01*
X21879712Y35341834D02*
X21879712Y35553500D01*
X21879712Y35553500D02*
X21922045Y35638167D01*
X21922045Y35638167D02*
X21964379Y35680500D01*
X21964379Y35680500D02*
X22049045Y35722834D01*
X22049045Y35722834D02*
X22133712Y35722834D01*
X22133712Y35722834D02*
X22260712Y35680500D01*
X22260712Y35680500D02*
X22768712Y35172500D01*
X22768712Y35172500D02*
X22768712Y35722834D01*
D14*
X20973000Y18029962D02*
X20936714Y17993676D01*
X20936714Y17993676D02*
X20827857Y17957391D01*
X20827857Y17957391D02*
X20755285Y17957391D01*
X20755285Y17957391D02*
X20646428Y17993676D01*
X20646428Y17993676D02*
X20573857Y18066248D01*
X20573857Y18066248D02*
X20537571Y18138819D01*
X20537571Y18138819D02*
X20501285Y18283962D01*
X20501285Y18283962D02*
X20501285Y18392819D01*
X20501285Y18392819D02*
X20537571Y18537962D01*
X20537571Y18537962D02*
X20573857Y18610534D01*
X20573857Y18610534D02*
X20646428Y18683105D01*
X20646428Y18683105D02*
X20755285Y18719391D01*
X20755285Y18719391D02*
X20827857Y18719391D01*
X20827857Y18719391D02*
X20936714Y18683105D01*
X20936714Y18683105D02*
X20973000Y18646819D01*
X21227000Y18719391D02*
X21735000Y18719391D01*
X21735000Y18719391D02*
X21408428Y17957391D01*
X19794428Y39469391D02*
X19794428Y38852534D01*
X19794428Y38852534D02*
X19830714Y38779962D01*
X19830714Y38779962D02*
X19867000Y38743676D01*
X19867000Y38743676D02*
X19939571Y38707391D01*
X19939571Y38707391D02*
X20084714Y38707391D01*
X20084714Y38707391D02*
X20157285Y38743676D01*
X20157285Y38743676D02*
X20193571Y38779962D01*
X20193571Y38779962D02*
X20229857Y38852534D01*
X20229857Y38852534D02*
X20229857Y39469391D01*
X20556428Y39396819D02*
X20592714Y39433105D01*
X20592714Y39433105D02*
X20665286Y39469391D01*
X20665286Y39469391D02*
X20846714Y39469391D01*
X20846714Y39469391D02*
X20919286Y39433105D01*
X20919286Y39433105D02*
X20955571Y39396819D01*
X20955571Y39396819D02*
X20991857Y39324248D01*
X20991857Y39324248D02*
X20991857Y39251676D01*
X20991857Y39251676D02*
X20955571Y39142819D01*
X20955571Y39142819D02*
X20520143Y38707391D01*
X20520143Y38707391D02*
X20991857Y38707391D01*
X19990613Y37625161D02*
X19918042Y37661446D01*
X19918042Y37661446D02*
X19881756Y37697732D01*
X19881756Y37697732D02*
X19845470Y37770304D01*
X19845470Y37770304D02*
X19845470Y37988018D01*
X19845470Y37988018D02*
X19881756Y38060589D01*
X19881756Y38060589D02*
X19918042Y38096875D01*
X19918042Y38096875D02*
X19990613Y38133161D01*
X19990613Y38133161D02*
X20099470Y38133161D01*
X20099470Y38133161D02*
X20172042Y38096875D01*
X20172042Y38096875D02*
X20208328Y38060589D01*
X20208328Y38060589D02*
X20244613Y37988018D01*
X20244613Y37988018D02*
X20244613Y37770304D01*
X20244613Y37770304D02*
X20208328Y37697732D01*
X20208328Y37697732D02*
X20172042Y37661446D01*
X20172042Y37661446D02*
X20099470Y37625161D01*
X20099470Y37625161D02*
X19990613Y37625161D01*
X17170038Y16060144D02*
X17206324Y16023858D01*
X17206324Y16023858D02*
X17242609Y15915001D01*
X17242609Y15915001D02*
X17242609Y15842429D01*
X17242609Y15842429D02*
X17206324Y15733572D01*
X17206324Y15733572D02*
X17133752Y15661001D01*
X17133752Y15661001D02*
X17061181Y15624715D01*
X17061181Y15624715D02*
X16916038Y15588429D01*
X16916038Y15588429D02*
X16807181Y15588429D01*
X16807181Y15588429D02*
X16662038Y15624715D01*
X16662038Y15624715D02*
X16589466Y15661001D01*
X16589466Y15661001D02*
X16516895Y15733572D01*
X16516895Y15733572D02*
X16480609Y15842429D01*
X16480609Y15842429D02*
X16480609Y15915001D01*
X16480609Y15915001D02*
X16516895Y16023858D01*
X16516895Y16023858D02*
X16553181Y16060144D01*
X16553181Y16350429D02*
X16516895Y16386715D01*
X16516895Y16386715D02*
X16480609Y16459286D01*
X16480609Y16459286D02*
X16480609Y16640715D01*
X16480609Y16640715D02*
X16516895Y16713286D01*
X16516895Y16713286D02*
X16553181Y16749572D01*
X16553181Y16749572D02*
X16625752Y16785858D01*
X16625752Y16785858D02*
X16698324Y16785858D01*
X16698324Y16785858D02*
X16807181Y16749572D01*
X16807181Y16749572D02*
X17242609Y16314144D01*
X17242609Y16314144D02*
X17242609Y16785858D01*
X16480609Y17257572D02*
X16480609Y17330143D01*
X16480609Y17330143D02*
X16516895Y17402715D01*
X16516895Y17402715D02*
X16553181Y17439000D01*
X16553181Y17439000D02*
X16625752Y17475286D01*
X16625752Y17475286D02*
X16770895Y17511572D01*
X16770895Y17511572D02*
X16952324Y17511572D01*
X16952324Y17511572D02*
X17097466Y17475286D01*
X17097466Y17475286D02*
X17170038Y17439000D01*
X17170038Y17439000D02*
X17206324Y17402715D01*
X17206324Y17402715D02*
X17242609Y17330143D01*
X17242609Y17330143D02*
X17242609Y17257572D01*
X17242609Y17257572D02*
X17206324Y17185000D01*
X17206324Y17185000D02*
X17170038Y17148715D01*
X17170038Y17148715D02*
X17097466Y17112429D01*
X17097466Y17112429D02*
X16952324Y17076143D01*
X16952324Y17076143D02*
X16770895Y17076143D01*
X16770895Y17076143D02*
X16625752Y17112429D01*
X16625752Y17112429D02*
X16553181Y17148715D01*
X16553181Y17148715D02*
X16516895Y17185000D01*
X16516895Y17185000D02*
X16480609Y17257572D01*
X14610143Y34829962D02*
X14573857Y34793676D01*
X14573857Y34793676D02*
X14465000Y34757391D01*
X14465000Y34757391D02*
X14392428Y34757391D01*
X14392428Y34757391D02*
X14283571Y34793676D01*
X14283571Y34793676D02*
X14211000Y34866248D01*
X14211000Y34866248D02*
X14174714Y34938819D01*
X14174714Y34938819D02*
X14138428Y35083962D01*
X14138428Y35083962D02*
X14138428Y35192819D01*
X14138428Y35192819D02*
X14174714Y35337962D01*
X14174714Y35337962D02*
X14211000Y35410534D01*
X14211000Y35410534D02*
X14283571Y35483105D01*
X14283571Y35483105D02*
X14392428Y35519391D01*
X14392428Y35519391D02*
X14465000Y35519391D01*
X14465000Y35519391D02*
X14573857Y35483105D01*
X14573857Y35483105D02*
X14610143Y35446819D01*
X14900428Y35446819D02*
X14936714Y35483105D01*
X14936714Y35483105D02*
X15009286Y35519391D01*
X15009286Y35519391D02*
X15190714Y35519391D01*
X15190714Y35519391D02*
X15263286Y35483105D01*
X15263286Y35483105D02*
X15299571Y35446819D01*
X15299571Y35446819D02*
X15335857Y35374248D01*
X15335857Y35374248D02*
X15335857Y35301676D01*
X15335857Y35301676D02*
X15299571Y35192819D01*
X15299571Y35192819D02*
X14864143Y34757391D01*
X14864143Y34757391D02*
X15335857Y34757391D01*
X15989000Y35265391D02*
X15989000Y34757391D01*
X15807571Y35555676D02*
X15626142Y35011391D01*
X15626142Y35011391D02*
X16097857Y35011391D01*
X22042609Y9910144D02*
X21679752Y9656144D01*
X22042609Y9474715D02*
X21280609Y9474715D01*
X21280609Y9474715D02*
X21280609Y9765001D01*
X21280609Y9765001D02*
X21316895Y9837572D01*
X21316895Y9837572D02*
X21353181Y9873858D01*
X21353181Y9873858D02*
X21425752Y9910144D01*
X21425752Y9910144D02*
X21534609Y9910144D01*
X21534609Y9910144D02*
X21607181Y9873858D01*
X21607181Y9873858D02*
X21643466Y9837572D01*
X21643466Y9837572D02*
X21679752Y9765001D01*
X21679752Y9765001D02*
X21679752Y9474715D01*
X22042609Y10635858D02*
X22042609Y10200429D01*
X22042609Y10418144D02*
X21280609Y10418144D01*
X21280609Y10418144D02*
X21389466Y10345572D01*
X21389466Y10345572D02*
X21462038Y10273001D01*
X21462038Y10273001D02*
X21498324Y10200429D01*
X22042609Y11361572D02*
X22042609Y10926143D01*
X22042609Y11143858D02*
X21280609Y11143858D01*
X21280609Y11143858D02*
X21389466Y11071286D01*
X21389466Y11071286D02*
X21462038Y10998715D01*
X21462038Y10998715D02*
X21498324Y10926143D01*
X6773000Y32657391D02*
X6519000Y33020248D01*
X6337571Y32657391D02*
X6337571Y33419391D01*
X6337571Y33419391D02*
X6627857Y33419391D01*
X6627857Y33419391D02*
X6700428Y33383105D01*
X6700428Y33383105D02*
X6736714Y33346819D01*
X6736714Y33346819D02*
X6773000Y33274248D01*
X6773000Y33274248D02*
X6773000Y33165391D01*
X6773000Y33165391D02*
X6736714Y33092819D01*
X6736714Y33092819D02*
X6700428Y33056534D01*
X6700428Y33056534D02*
X6627857Y33020248D01*
X6627857Y33020248D02*
X6337571Y33020248D01*
X7498714Y32657391D02*
X7063285Y32657391D01*
X7281000Y32657391D02*
X7281000Y33419391D01*
X7281000Y33419391D02*
X7208428Y33310534D01*
X7208428Y33310534D02*
X7135857Y33237962D01*
X7135857Y33237962D02*
X7063285Y33201676D01*
X8270038Y40573001D02*
X8306324Y40536715D01*
X8306324Y40536715D02*
X8342609Y40427858D01*
X8342609Y40427858D02*
X8342609Y40355286D01*
X8342609Y40355286D02*
X8306324Y40246429D01*
X8306324Y40246429D02*
X8233752Y40173858D01*
X8233752Y40173858D02*
X8161181Y40137572D01*
X8161181Y40137572D02*
X8016038Y40101286D01*
X8016038Y40101286D02*
X7907181Y40101286D01*
X7907181Y40101286D02*
X7762038Y40137572D01*
X7762038Y40137572D02*
X7689466Y40173858D01*
X7689466Y40173858D02*
X7616895Y40246429D01*
X7616895Y40246429D02*
X7580609Y40355286D01*
X7580609Y40355286D02*
X7580609Y40427858D01*
X7580609Y40427858D02*
X7616895Y40536715D01*
X7616895Y40536715D02*
X7653181Y40573001D01*
X8342609Y41298715D02*
X8342609Y40863286D01*
X8342609Y41081001D02*
X7580609Y41081001D01*
X7580609Y41081001D02*
X7689466Y41008429D01*
X7689466Y41008429D02*
X7762038Y40935858D01*
X7762038Y40935858D02*
X7798324Y40863286D01*
X6319428Y31419391D02*
X6319428Y30802534D01*
X6319428Y30802534D02*
X6355714Y30729962D01*
X6355714Y30729962D02*
X6392000Y30693676D01*
X6392000Y30693676D02*
X6464571Y30657391D01*
X6464571Y30657391D02*
X6609714Y30657391D01*
X6609714Y30657391D02*
X6682285Y30693676D01*
X6682285Y30693676D02*
X6718571Y30729962D01*
X6718571Y30729962D02*
X6754857Y30802534D01*
X6754857Y30802534D02*
X6754857Y31419391D01*
X7516857Y30657391D02*
X7081428Y30657391D01*
X7299143Y30657391D02*
X7299143Y31419391D01*
X7299143Y31419391D02*
X7226571Y31310534D01*
X7226571Y31310534D02*
X7154000Y31237962D01*
X7154000Y31237962D02*
X7081428Y31201676D01*
X8157571Y35285819D02*
X8193857Y35322105D01*
X8193857Y35322105D02*
X8266429Y35358391D01*
X8266429Y35358391D02*
X8447857Y35358391D01*
X8447857Y35358391D02*
X8520429Y35322105D01*
X8520429Y35322105D02*
X8556714Y35285819D01*
X8556714Y35285819D02*
X8593000Y35213248D01*
X8593000Y35213248D02*
X8593000Y35140676D01*
X8593000Y35140676D02*
X8556714Y35031819D01*
X8556714Y35031819D02*
X8121286Y34596391D01*
X8121286Y34596391D02*
X8593000Y34596391D01*
X9064714Y35358391D02*
X9137285Y35358391D01*
X9137285Y35358391D02*
X9209857Y35322105D01*
X9209857Y35322105D02*
X9246143Y35285819D01*
X9246143Y35285819D02*
X9282428Y35213248D01*
X9282428Y35213248D02*
X9318714Y35068105D01*
X9318714Y35068105D02*
X9318714Y34886676D01*
X9318714Y34886676D02*
X9282428Y34741534D01*
X9282428Y34741534D02*
X9246143Y34668962D01*
X9246143Y34668962D02*
X9209857Y34632676D01*
X9209857Y34632676D02*
X9137285Y34596391D01*
X9137285Y34596391D02*
X9064714Y34596391D01*
X9064714Y34596391D02*
X8992143Y34632676D01*
X8992143Y34632676D02*
X8955857Y34668962D01*
X8955857Y34668962D02*
X8919571Y34741534D01*
X8919571Y34741534D02*
X8883285Y34886676D01*
X8883285Y34886676D02*
X8883285Y35068105D01*
X8883285Y35068105D02*
X8919571Y35213248D01*
X8919571Y35213248D02*
X8955857Y35285819D01*
X8955857Y35285819D02*
X8992143Y35322105D01*
X8992143Y35322105D02*
X9064714Y35358391D01*
X9754142Y35031819D02*
X9681571Y35068105D01*
X9681571Y35068105D02*
X9645285Y35104391D01*
X9645285Y35104391D02*
X9608999Y35176962D01*
X9608999Y35176962D02*
X9608999Y35213248D01*
X9608999Y35213248D02*
X9645285Y35285819D01*
X9645285Y35285819D02*
X9681571Y35322105D01*
X9681571Y35322105D02*
X9754142Y35358391D01*
X9754142Y35358391D02*
X9899285Y35358391D01*
X9899285Y35358391D02*
X9971857Y35322105D01*
X9971857Y35322105D02*
X10008142Y35285819D01*
X10008142Y35285819D02*
X10044428Y35213248D01*
X10044428Y35213248D02*
X10044428Y35176962D01*
X10044428Y35176962D02*
X10008142Y35104391D01*
X10008142Y35104391D02*
X9971857Y35068105D01*
X9971857Y35068105D02*
X9899285Y35031819D01*
X9899285Y35031819D02*
X9754142Y35031819D01*
X9754142Y35031819D02*
X9681571Y34995534D01*
X9681571Y34995534D02*
X9645285Y34959248D01*
X9645285Y34959248D02*
X9608999Y34886676D01*
X9608999Y34886676D02*
X9608999Y34741534D01*
X9608999Y34741534D02*
X9645285Y34668962D01*
X9645285Y34668962D02*
X9681571Y34632676D01*
X9681571Y34632676D02*
X9754142Y34596391D01*
X9754142Y34596391D02*
X9899285Y34596391D01*
X9899285Y34596391D02*
X9971857Y34632676D01*
X9971857Y34632676D02*
X10008142Y34668962D01*
X10008142Y34668962D02*
X10044428Y34741534D01*
X10044428Y34741534D02*
X10044428Y34886676D01*
X10044428Y34886676D02*
X10008142Y34959248D01*
X10008142Y34959248D02*
X9971857Y34995534D01*
X9971857Y34995534D02*
X9899285Y35031819D01*
X10370999Y34596391D02*
X10370999Y35104391D01*
X10370999Y35031819D02*
X10407285Y35068105D01*
X10407285Y35068105D02*
X10479856Y35104391D01*
X10479856Y35104391D02*
X10588713Y35104391D01*
X10588713Y35104391D02*
X10661285Y35068105D01*
X10661285Y35068105D02*
X10697571Y34995534D01*
X10697571Y34995534D02*
X10697571Y34596391D01*
X10697571Y34995534D02*
X10733856Y35068105D01*
X10733856Y35068105D02*
X10806428Y35104391D01*
X10806428Y35104391D02*
X10915285Y35104391D01*
X10915285Y35104391D02*
X10987856Y35068105D01*
X10987856Y35068105D02*
X11024142Y34995534D01*
X11024142Y34995534D02*
X11024142Y34596391D01*
X11386999Y34596391D02*
X11386999Y35104391D01*
X11386999Y35358391D02*
X11350713Y35322105D01*
X11350713Y35322105D02*
X11386999Y35285819D01*
X11386999Y35285819D02*
X11423285Y35322105D01*
X11423285Y35322105D02*
X11386999Y35358391D01*
X11386999Y35358391D02*
X11386999Y35285819D01*
X11858713Y34596391D02*
X11786142Y34632676D01*
X11786142Y34632676D02*
X11749856Y34705248D01*
X11749856Y34705248D02*
X11749856Y35358391D01*
D11*
X8054761Y35797927D02*
X8199904Y35749547D01*
X8199904Y35749547D02*
X8441809Y35749547D01*
X8441809Y35749547D02*
X8538571Y35797927D01*
X8538571Y35797927D02*
X8586952Y35846308D01*
X8586952Y35846308D02*
X8635333Y35943070D01*
X8635333Y35943070D02*
X8635333Y36039832D01*
X8635333Y36039832D02*
X8586952Y36136594D01*
X8586952Y36136594D02*
X8538571Y36184975D01*
X8538571Y36184975D02*
X8441809Y36233356D01*
X8441809Y36233356D02*
X8248285Y36281737D01*
X8248285Y36281737D02*
X8151523Y36330118D01*
X8151523Y36330118D02*
X8103142Y36378499D01*
X8103142Y36378499D02*
X8054761Y36475261D01*
X8054761Y36475261D02*
X8054761Y36572023D01*
X8054761Y36572023D02*
X8103142Y36668785D01*
X8103142Y36668785D02*
X8151523Y36717166D01*
X8151523Y36717166D02*
X8248285Y36765547D01*
X8248285Y36765547D02*
X8490190Y36765547D01*
X8490190Y36765547D02*
X8635333Y36717166D01*
X9264285Y36765547D02*
X9457809Y36765547D01*
X9457809Y36765547D02*
X9554571Y36717166D01*
X9554571Y36717166D02*
X9651333Y36620404D01*
X9651333Y36620404D02*
X9699714Y36426880D01*
X9699714Y36426880D02*
X9699714Y36088213D01*
X9699714Y36088213D02*
X9651333Y35894689D01*
X9651333Y35894689D02*
X9554571Y35797927D01*
X9554571Y35797927D02*
X9457809Y35749547D01*
X9457809Y35749547D02*
X9264285Y35749547D01*
X9264285Y35749547D02*
X9167523Y35797927D01*
X9167523Y35797927D02*
X9070761Y35894689D01*
X9070761Y35894689D02*
X9022380Y36088213D01*
X9022380Y36088213D02*
X9022380Y36426880D01*
X9022380Y36426880D02*
X9070761Y36620404D01*
X9070761Y36620404D02*
X9167523Y36717166D01*
X9167523Y36717166D02*
X9264285Y36765547D01*
X10135142Y36136594D02*
X10909238Y36136594D01*
X11538190Y36330118D02*
X11441428Y36378499D01*
X11441428Y36378499D02*
X11393047Y36426880D01*
X11393047Y36426880D02*
X11344666Y36523642D01*
X11344666Y36523642D02*
X11344666Y36572023D01*
X11344666Y36572023D02*
X11393047Y36668785D01*
X11393047Y36668785D02*
X11441428Y36717166D01*
X11441428Y36717166D02*
X11538190Y36765547D01*
X11538190Y36765547D02*
X11731714Y36765547D01*
X11731714Y36765547D02*
X11828476Y36717166D01*
X11828476Y36717166D02*
X11876857Y36668785D01*
X11876857Y36668785D02*
X11925238Y36572023D01*
X11925238Y36572023D02*
X11925238Y36523642D01*
X11925238Y36523642D02*
X11876857Y36426880D01*
X11876857Y36426880D02*
X11828476Y36378499D01*
X11828476Y36378499D02*
X11731714Y36330118D01*
X11731714Y36330118D02*
X11538190Y36330118D01*
X11538190Y36330118D02*
X11441428Y36281737D01*
X11441428Y36281737D02*
X11393047Y36233356D01*
X11393047Y36233356D02*
X11344666Y36136594D01*
X11344666Y36136594D02*
X11344666Y35943070D01*
X11344666Y35943070D02*
X11393047Y35846308D01*
X11393047Y35846308D02*
X11441428Y35797927D01*
X11441428Y35797927D02*
X11538190Y35749547D01*
X11538190Y35749547D02*
X11731714Y35749547D01*
X11731714Y35749547D02*
X11828476Y35797927D01*
X11828476Y35797927D02*
X11876857Y35846308D01*
X11876857Y35846308D02*
X11925238Y35943070D01*
X11925238Y35943070D02*
X11925238Y36136594D01*
X11925238Y36136594D02*
X11876857Y36233356D01*
X11876857Y36233356D02*
X11828476Y36281737D01*
X11828476Y36281737D02*
X11731714Y36330118D01*
D14*
X18342609Y16073001D02*
X17979752Y15819001D01*
X18342609Y15637572D02*
X17580609Y15637572D01*
X17580609Y15637572D02*
X17580609Y15927858D01*
X17580609Y15927858D02*
X17616895Y16000429D01*
X17616895Y16000429D02*
X17653181Y16036715D01*
X17653181Y16036715D02*
X17725752Y16073001D01*
X17725752Y16073001D02*
X17834609Y16073001D01*
X17834609Y16073001D02*
X17907181Y16036715D01*
X17907181Y16036715D02*
X17943466Y16000429D01*
X17943466Y16000429D02*
X17979752Y15927858D01*
X17979752Y15927858D02*
X17979752Y15637572D01*
X18342609Y16435858D02*
X18342609Y16581001D01*
X18342609Y16581001D02*
X18306324Y16653572D01*
X18306324Y16653572D02*
X18270038Y16689858D01*
X18270038Y16689858D02*
X18161181Y16762429D01*
X18161181Y16762429D02*
X18016038Y16798715D01*
X18016038Y16798715D02*
X17725752Y16798715D01*
X17725752Y16798715D02*
X17653181Y16762429D01*
X17653181Y16762429D02*
X17616895Y16726143D01*
X17616895Y16726143D02*
X17580609Y16653572D01*
X17580609Y16653572D02*
X17580609Y16508429D01*
X17580609Y16508429D02*
X17616895Y16435858D01*
X17616895Y16435858D02*
X17653181Y16399572D01*
X17653181Y16399572D02*
X17725752Y16363286D01*
X17725752Y16363286D02*
X17907181Y16363286D01*
X17907181Y16363286D02*
X17979752Y16399572D01*
X17979752Y16399572D02*
X18016038Y16435858D01*
X18016038Y16435858D02*
X18052324Y16508429D01*
X18052324Y16508429D02*
X18052324Y16653572D01*
X18052324Y16653572D02*
X18016038Y16726143D01*
X18016038Y16726143D02*
X17979752Y16762429D01*
X17979752Y16762429D02*
X17907181Y16798715D01*
X14360143Y33629962D02*
X14323857Y33593676D01*
X14323857Y33593676D02*
X14215000Y33557391D01*
X14215000Y33557391D02*
X14142428Y33557391D01*
X14142428Y33557391D02*
X14033571Y33593676D01*
X14033571Y33593676D02*
X13961000Y33666248D01*
X13961000Y33666248D02*
X13924714Y33738819D01*
X13924714Y33738819D02*
X13888428Y33883962D01*
X13888428Y33883962D02*
X13888428Y33992819D01*
X13888428Y33992819D02*
X13924714Y34137962D01*
X13924714Y34137962D02*
X13961000Y34210534D01*
X13961000Y34210534D02*
X14033571Y34283105D01*
X14033571Y34283105D02*
X14142428Y34319391D01*
X14142428Y34319391D02*
X14215000Y34319391D01*
X14215000Y34319391D02*
X14323857Y34283105D01*
X14323857Y34283105D02*
X14360143Y34246819D01*
X14650428Y34246819D02*
X14686714Y34283105D01*
X14686714Y34283105D02*
X14759286Y34319391D01*
X14759286Y34319391D02*
X14940714Y34319391D01*
X14940714Y34319391D02*
X15013286Y34283105D01*
X15013286Y34283105D02*
X15049571Y34246819D01*
X15049571Y34246819D02*
X15085857Y34174248D01*
X15085857Y34174248D02*
X15085857Y34101676D01*
X15085857Y34101676D02*
X15049571Y33992819D01*
X15049571Y33992819D02*
X14614143Y33557391D01*
X14614143Y33557391D02*
X15085857Y33557391D01*
X15775285Y34319391D02*
X15412428Y34319391D01*
X15412428Y34319391D02*
X15376142Y33956534D01*
X15376142Y33956534D02*
X15412428Y33992819D01*
X15412428Y33992819D02*
X15485000Y34029105D01*
X15485000Y34029105D02*
X15666428Y34029105D01*
X15666428Y34029105D02*
X15739000Y33992819D01*
X15739000Y33992819D02*
X15775285Y33956534D01*
X15775285Y33956534D02*
X15811571Y33883962D01*
X15811571Y33883962D02*
X15811571Y33702534D01*
X15811571Y33702534D02*
X15775285Y33629962D01*
X15775285Y33629962D02*
X15739000Y33593676D01*
X15739000Y33593676D02*
X15666428Y33557391D01*
X15666428Y33557391D02*
X15485000Y33557391D01*
X15485000Y33557391D02*
X15412428Y33593676D01*
X15412428Y33593676D02*
X15376142Y33629962D01*
X13160143Y36257391D02*
X12906143Y36620248D01*
X12724714Y36257391D02*
X12724714Y37019391D01*
X12724714Y37019391D02*
X13015000Y37019391D01*
X13015000Y37019391D02*
X13087571Y36983105D01*
X13087571Y36983105D02*
X13123857Y36946819D01*
X13123857Y36946819D02*
X13160143Y36874248D01*
X13160143Y36874248D02*
X13160143Y36765391D01*
X13160143Y36765391D02*
X13123857Y36692819D01*
X13123857Y36692819D02*
X13087571Y36656534D01*
X13087571Y36656534D02*
X13015000Y36620248D01*
X13015000Y36620248D02*
X12724714Y36620248D01*
X13885857Y36257391D02*
X13450428Y36257391D01*
X13668143Y36257391D02*
X13668143Y37019391D01*
X13668143Y37019391D02*
X13595571Y36910534D01*
X13595571Y36910534D02*
X13523000Y36837962D01*
X13523000Y36837962D02*
X13450428Y36801676D01*
X14539000Y36765391D02*
X14539000Y36257391D01*
X14357571Y37055676D02*
X14176142Y36511391D01*
X14176142Y36511391D02*
X14647857Y36511391D01*
G36*
X13137293Y3304823D02*
G01*
X13180278Y3261838D01*
X13207321Y3153667D01*
X13207321Y2923116D01*
X13185652Y2836442D01*
X13152209Y2869886D01*
X13138452Y2876896D01*
X13127454Y2887728D01*
X13054883Y2924013D01*
X13033170Y2927284D01*
X13012286Y2934069D01*
X12939714Y2934069D01*
X12891036Y2918254D01*
X12889821Y2923118D01*
X12889821Y3153665D01*
X12916864Y3261838D01*
X12959850Y3304823D01*
X12998486Y3324141D01*
X13098657Y3324141D01*
X13137293Y3304823D01*
G37*
G36*
X16404873Y2382000D02*
G01*
X12590464Y2382000D01*
X12590464Y2911391D01*
X12699321Y2911391D01*
X12702984Y2900116D01*
X12702165Y2888289D01*
X12738451Y2743146D01*
X12751950Y2721574D01*
X12763505Y2698896D01*
X12836077Y2626324D01*
X12849833Y2619315D01*
X12860832Y2608482D01*
X12933404Y2572196D01*
X12955118Y2568926D01*
X12976000Y2562141D01*
X13121143Y2562141D01*
X13142027Y2568927D01*
X13163740Y2572197D01*
X13174906Y2577781D01*
X13198935Y2553752D01*
X13212689Y2546744D01*
X13223688Y2535911D01*
X13296259Y2499625D01*
X13354471Y2490857D01*
X13406718Y2517980D01*
X13433045Y2570633D01*
X13423395Y2628704D01*
X13381455Y2670013D01*
X13330321Y2695580D01*
X13333638Y2698896D01*
X13345192Y2721573D01*
X13358692Y2743147D01*
X13394977Y2888290D01*
X13394157Y2900117D01*
X13397821Y2911391D01*
X13397821Y3165391D01*
X13394157Y3176666D01*
X13394977Y3188492D01*
X13358692Y3333635D01*
X13345193Y3355208D01*
X13333638Y3377886D01*
X13314194Y3397329D01*
X13463912Y3397329D01*
X13645340Y2635329D01*
X13648765Y2629717D01*
X13649117Y2623150D01*
X13663836Y2605019D01*
X13676004Y2585078D01*
X13682075Y2582550D01*
X13686219Y2577446D01*
X13708781Y2571430D01*
X13730348Y2562449D01*
X13736745Y2563973D01*
X13743099Y2562278D01*
X13764895Y2570675D01*
X13787616Y2576084D01*
X13791895Y2581076D01*
X13798031Y2583439D01*
X13810727Y2603042D01*
X13825931Y2620775D01*
X13826459Y2627330D01*
X13830034Y2632849D01*
X13883143Y2832008D01*
X13936252Y2632849D01*
X13939826Y2627330D01*
X13940355Y2620775D01*
X13955558Y2603042D01*
X13968255Y2583439D01*
X13974390Y2581076D01*
X13978670Y2576084D01*
X14001391Y2570675D01*
X14023187Y2562278D01*
X14029539Y2563973D01*
X14035937Y2562449D01*
X14057502Y2571429D01*
X14080067Y2577446D01*
X14084210Y2582550D01*
X14090282Y2585078D01*
X14102449Y2605019D01*
X14117169Y2623150D01*
X14117520Y2629717D01*
X14120946Y2635329D01*
X14255791Y3201676D01*
X14368464Y3201676D01*
X14375249Y3180793D01*
X14378520Y3159078D01*
X14414806Y3086507D01*
X14425639Y3075509D01*
X14432648Y3061753D01*
X14468934Y3025467D01*
X14482690Y3018458D01*
X14493689Y3007625D01*
X14566261Y2971339D01*
X14576757Y2969759D01*
X14585755Y2964128D01*
X14720755Y2930378D01*
X14770148Y2905682D01*
X14784574Y2891255D01*
X14803893Y2852619D01*
X14803893Y2825019D01*
X14784575Y2786385D01*
X14770149Y2771959D01*
X14731515Y2752641D01*
X14588028Y2752641D01*
X14493834Y2784038D01*
X14434968Y2784485D01*
X14387082Y2750245D01*
X14368467Y2694398D01*
X14386232Y2638275D01*
X14433594Y2603314D01*
X14542452Y2567029D01*
X14557888Y2566912D01*
X14572572Y2562141D01*
X14754000Y2562141D01*
X14774881Y2568926D01*
X14796596Y2572196D01*
X14869169Y2608482D01*
X14880168Y2619316D01*
X14893925Y2626325D01*
X14930210Y2662611D01*
X14937218Y2676367D01*
X14948051Y2687365D01*
X14984337Y2759937D01*
X14987607Y2781651D01*
X14994393Y2802534D01*
X14994393Y2875105D01*
X14987607Y2895989D01*
X14984337Y2917703D01*
X14948051Y2990274D01*
X14937218Y3001273D01*
X14930210Y3015027D01*
X14893925Y3051313D01*
X14880168Y3058323D01*
X14869169Y3069156D01*
X14796597Y3105442D01*
X14786100Y3107023D01*
X14777102Y3112654D01*
X14642100Y3146405D01*
X14592708Y3171101D01*
X14578281Y3185528D01*
X14558964Y3224163D01*
X14558964Y3251762D01*
X14578281Y3290397D01*
X14592708Y3304824D01*
X14631343Y3324141D01*
X14774829Y3324141D01*
X14869022Y3292743D01*
X14927888Y3292296D01*
X14975774Y3326535D01*
X14994390Y3382382D01*
X14991992Y3389957D01*
X15026269Y3389957D01*
X15060870Y3342332D01*
X15116857Y3324141D01*
X15239321Y3324141D01*
X15239321Y2657391D01*
X15257512Y2601404D01*
X15305137Y2566803D01*
X15364005Y2566803D01*
X15411630Y2601404D01*
X15429821Y2657391D01*
X15429821Y3187490D01*
X15675811Y3187490D01*
X15702138Y3134837D01*
X15754385Y3107714D01*
X15812596Y3116482D01*
X15885168Y3152768D01*
X15892464Y3159954D01*
X15892464Y2752641D01*
X15769999Y2752641D01*
X15714012Y2734450D01*
X15679411Y2686825D01*
X15679411Y2627957D01*
X15714012Y2580332D01*
X15769999Y2562141D01*
X16205428Y2562141D01*
X16261415Y2580332D01*
X16296016Y2627957D01*
X16296016Y2686825D01*
X16261415Y2734450D01*
X16205428Y2752641D01*
X16082964Y2752641D01*
X16082964Y3419391D01*
X16082344Y3421299D01*
X16082887Y3423230D01*
X16073304Y3449122D01*
X16064773Y3475378D01*
X16063149Y3476558D01*
X16062454Y3478437D01*
X16039491Y3493747D01*
X16017148Y3509979D01*
X16015142Y3509979D01*
X16013473Y3511092D01*
X15985873Y3509979D01*
X15958280Y3509979D01*
X15956658Y3508801D01*
X15954653Y3508720D01*
X15932988Y3491605D01*
X15910655Y3475378D01*
X15910034Y3473470D01*
X15908461Y3472226D01*
X15841118Y3371215D01*
X15786149Y3316244D01*
X15727402Y3286870D01*
X15685461Y3245562D01*
X15675811Y3187490D01*
X15429821Y3187490D01*
X15429821Y3324141D01*
X15552286Y3324141D01*
X15608273Y3342332D01*
X15642874Y3389957D01*
X15642874Y3448825D01*
X15608273Y3496450D01*
X15552286Y3514641D01*
X15116857Y3514641D01*
X15060870Y3496450D01*
X15026269Y3448825D01*
X15026269Y3389957D01*
X14991992Y3389957D01*
X14976625Y3438505D01*
X14929264Y3473467D01*
X14820407Y3509753D01*
X14804969Y3509871D01*
X14790286Y3514641D01*
X14608857Y3514641D01*
X14587973Y3507856D01*
X14566259Y3504585D01*
X14493688Y3468299D01*
X14482689Y3457466D01*
X14468934Y3450457D01*
X14432648Y3414171D01*
X14425639Y3400416D01*
X14414806Y3389417D01*
X14378520Y3316846D01*
X14375249Y3295132D01*
X14368464Y3274248D01*
X14368464Y3201676D01*
X14255791Y3201676D01*
X14302375Y3397329D01*
X14297646Y3456007D01*
X14259331Y3500698D01*
X14202064Y3514333D01*
X14147719Y3491704D01*
X14117055Y3441453D01*
X14023057Y3046666D01*
X13975177Y3226218D01*
X13972308Y3230647D01*
X13972026Y3235917D01*
X13956535Y3254999D01*
X13943174Y3275628D01*
X13938248Y3277526D01*
X13934924Y3281621D01*
X13911180Y3287953D01*
X13888242Y3296789D01*
X13883143Y3295430D01*
X13878044Y3296789D01*
X13855105Y3287953D01*
X13831362Y3281621D01*
X13828037Y3277526D01*
X13823112Y3275628D01*
X13809750Y3254999D01*
X13794260Y3235917D01*
X13793977Y3230647D01*
X13791109Y3226218D01*
X13743228Y3046667D01*
X13649232Y3441453D01*
X13618568Y3491704D01*
X13564224Y3514333D01*
X13506956Y3500698D01*
X13468641Y3456007D01*
X13463912Y3397329D01*
X13314194Y3397329D01*
X13261065Y3450457D01*
X13247311Y3457465D01*
X13236312Y3468299D01*
X13163741Y3504585D01*
X13142026Y3507856D01*
X13121143Y3514641D01*
X12976000Y3514641D01*
X12955116Y3507856D01*
X12933402Y3504585D01*
X12860831Y3468299D01*
X12849832Y3457467D01*
X12836078Y3450458D01*
X12763506Y3377886D01*
X12751951Y3355212D01*
X12738451Y3333636D01*
X12702165Y3188493D01*
X12702984Y3176667D01*
X12699321Y3165391D01*
X12699321Y2911391D01*
X12590464Y2911391D01*
X12590464Y3623498D01*
X16404873Y3623498D01*
X16404873Y2382000D01*
G37*
D10*
X12040286Y3293188D02*
X11459714Y3293188D01*
X11750000Y3293188D02*
X11750000Y4309188D01*
X11750000Y4309188D02*
X11653238Y4164045D01*
X11653238Y4164045D02*
X11556476Y4067283D01*
X11556476Y4067283D02*
X11459714Y4018902D01*
D14*
X8870038Y22760144D02*
X8906324Y22723858D01*
X8906324Y22723858D02*
X8942609Y22615001D01*
X8942609Y22615001D02*
X8942609Y22542429D01*
X8942609Y22542429D02*
X8906324Y22433572D01*
X8906324Y22433572D02*
X8833752Y22361001D01*
X8833752Y22361001D02*
X8761181Y22324715D01*
X8761181Y22324715D02*
X8616038Y22288429D01*
X8616038Y22288429D02*
X8507181Y22288429D01*
X8507181Y22288429D02*
X8362038Y22324715D01*
X8362038Y22324715D02*
X8289466Y22361001D01*
X8289466Y22361001D02*
X8216895Y22433572D01*
X8216895Y22433572D02*
X8180609Y22542429D01*
X8180609Y22542429D02*
X8180609Y22615001D01*
X8180609Y22615001D02*
X8216895Y22723858D01*
X8216895Y22723858D02*
X8253181Y22760144D01*
X8942609Y23485858D02*
X8942609Y23050429D01*
X8942609Y23268144D02*
X8180609Y23268144D01*
X8180609Y23268144D02*
X8289466Y23195572D01*
X8289466Y23195572D02*
X8362038Y23123001D01*
X8362038Y23123001D02*
X8398324Y23050429D01*
X8180609Y24175286D02*
X8180609Y23812429D01*
X8180609Y23812429D02*
X8543466Y23776143D01*
X8543466Y23776143D02*
X8507181Y23812429D01*
X8507181Y23812429D02*
X8470895Y23885000D01*
X8470895Y23885000D02*
X8470895Y24066429D01*
X8470895Y24066429D02*
X8507181Y24139000D01*
X8507181Y24139000D02*
X8543466Y24175286D01*
X8543466Y24175286D02*
X8616038Y24211572D01*
X8616038Y24211572D02*
X8797466Y24211572D01*
X8797466Y24211572D02*
X8870038Y24175286D01*
X8870038Y24175286D02*
X8906324Y24139000D01*
X8906324Y24139000D02*
X8942609Y24066429D01*
X8942609Y24066429D02*
X8942609Y23885000D01*
X8942609Y23885000D02*
X8906324Y23812429D01*
X8906324Y23812429D02*
X8870038Y23776143D01*
X11170038Y16573001D02*
X11206324Y16536715D01*
X11206324Y16536715D02*
X11242609Y16427858D01*
X11242609Y16427858D02*
X11242609Y16355286D01*
X11242609Y16355286D02*
X11206324Y16246429D01*
X11206324Y16246429D02*
X11133752Y16173858D01*
X11133752Y16173858D02*
X11061181Y16137572D01*
X11061181Y16137572D02*
X10916038Y16101286D01*
X10916038Y16101286D02*
X10807181Y16101286D01*
X10807181Y16101286D02*
X10662038Y16137572D01*
X10662038Y16137572D02*
X10589466Y16173858D01*
X10589466Y16173858D02*
X10516895Y16246429D01*
X10516895Y16246429D02*
X10480609Y16355286D01*
X10480609Y16355286D02*
X10480609Y16427858D01*
X10480609Y16427858D02*
X10516895Y16536715D01*
X10516895Y16536715D02*
X10553181Y16573001D01*
X10480609Y17226143D02*
X10480609Y17081001D01*
X10480609Y17081001D02*
X10516895Y17008429D01*
X10516895Y17008429D02*
X10553181Y16972143D01*
X10553181Y16972143D02*
X10662038Y16899572D01*
X10662038Y16899572D02*
X10807181Y16863286D01*
X10807181Y16863286D02*
X11097466Y16863286D01*
X11097466Y16863286D02*
X11170038Y16899572D01*
X11170038Y16899572D02*
X11206324Y16935858D01*
X11206324Y16935858D02*
X11242609Y17008429D01*
X11242609Y17008429D02*
X11242609Y17153572D01*
X11242609Y17153572D02*
X11206324Y17226143D01*
X11206324Y17226143D02*
X11170038Y17262429D01*
X11170038Y17262429D02*
X11097466Y17298715D01*
X11097466Y17298715D02*
X10916038Y17298715D01*
X10916038Y17298715D02*
X10843466Y17262429D01*
X10843466Y17262429D02*
X10807181Y17226143D01*
X10807181Y17226143D02*
X10770895Y17153572D01*
X10770895Y17153572D02*
X10770895Y17008429D01*
X10770895Y17008429D02*
X10807181Y16935858D01*
X10807181Y16935858D02*
X10843466Y16899572D01*
X10843466Y16899572D02*
X10916038Y16863286D01*
X9870038Y16573001D02*
X9906324Y16536715D01*
X9906324Y16536715D02*
X9942609Y16427858D01*
X9942609Y16427858D02*
X9942609Y16355286D01*
X9942609Y16355286D02*
X9906324Y16246429D01*
X9906324Y16246429D02*
X9833752Y16173858D01*
X9833752Y16173858D02*
X9761181Y16137572D01*
X9761181Y16137572D02*
X9616038Y16101286D01*
X9616038Y16101286D02*
X9507181Y16101286D01*
X9507181Y16101286D02*
X9362038Y16137572D01*
X9362038Y16137572D02*
X9289466Y16173858D01*
X9289466Y16173858D02*
X9216895Y16246429D01*
X9216895Y16246429D02*
X9180609Y16355286D01*
X9180609Y16355286D02*
X9180609Y16427858D01*
X9180609Y16427858D02*
X9216895Y16536715D01*
X9216895Y16536715D02*
X9253181Y16573001D01*
X9180609Y17262429D02*
X9180609Y16899572D01*
X9180609Y16899572D02*
X9543466Y16863286D01*
X9543466Y16863286D02*
X9507181Y16899572D01*
X9507181Y16899572D02*
X9470895Y16972143D01*
X9470895Y16972143D02*
X9470895Y17153572D01*
X9470895Y17153572D02*
X9507181Y17226143D01*
X9507181Y17226143D02*
X9543466Y17262429D01*
X9543466Y17262429D02*
X9616038Y17298715D01*
X9616038Y17298715D02*
X9797466Y17298715D01*
X9797466Y17298715D02*
X9870038Y17262429D01*
X9870038Y17262429D02*
X9906324Y17226143D01*
X9906324Y17226143D02*
X9942609Y17153572D01*
X9942609Y17153572D02*
X9942609Y16972143D01*
X9942609Y16972143D02*
X9906324Y16899572D01*
X9906324Y16899572D02*
X9870038Y16863286D01*
D10*
%TO.C,LED1*%
X16062100Y1444500D02*
X16062100Y619000D01*
X15909700Y479300D02*
X16049400Y606300D01*
X15909700Y1571500D02*
X16062100Y1444500D01*
D16*
X15897000Y415800D02*
X14881000Y415800D01*
D10*
X15897000Y517400D02*
X15897000Y1558800D01*
D16*
X14881000Y1635000D02*
X15897000Y1635000D01*
D17*
X14677800Y754400D02*
X14547800Y644400D01*
D18*
X14600000Y1110000D02*
X14600000Y890000D01*
D17*
X14546200Y645400D02*
X14626200Y655400D01*
X14546200Y645400D02*
X14546200Y725400D01*
X14470800Y775400D02*
X14340800Y665400D01*
D18*
X14410000Y890000D02*
X14510000Y990000D01*
X14410000Y1110000D02*
X14520000Y1010000D01*
X14410000Y1110000D02*
X14410000Y890000D01*
D17*
X14330800Y645400D02*
X14410800Y655400D01*
X14330800Y645400D02*
X14330800Y725400D01*
D18*
X14240000Y1000000D02*
X14760000Y1000000D01*
D19*
%TO.C,R10*%
X17504000Y41555500D02*
X16996000Y41555500D01*
X17504000Y42444500D02*
X16996000Y42444500D01*
%TO.C,R7*%
X15144500Y32754000D02*
X15144500Y32246000D01*
X14255500Y32754000D02*
X14255500Y32246000D01*
D10*
%TO.C,D1*%
X23350000Y40750000D02*
X23350000Y45750000D01*
X20650000Y42120000D02*
X23350000Y42120000D01*
X20650000Y42560000D02*
X23350000Y42560000D01*
X20650000Y45750000D02*
X20650000Y40750000D01*
D19*
%TO.C,R6*%
X16044500Y32754000D02*
X16044500Y32246000D01*
X15155500Y32754000D02*
X15155500Y32246000D01*
%TO.C,R18*%
X8844500Y15004000D02*
X8844500Y14496000D01*
X7955500Y15004000D02*
X7955500Y14496000D01*
%TO.C,R17*%
X7744500Y15004000D02*
X7744500Y14496000D01*
X6855500Y15004000D02*
X6855500Y14496000D01*
D10*
%TO.C,RST1*%
X8950000Y8850000D02*
X8850000Y8850000D01*
X8950000Y8850000D02*
X8950000Y4650000D01*
X6750000Y8850000D02*
X7750000Y8850000D01*
X5650000Y8850000D02*
X5550000Y8850000D01*
X5550000Y8850000D02*
X5550000Y4650000D01*
X8950000Y4650000D02*
X8850000Y4650000D01*
X6750000Y4650000D02*
X7750000Y4650000D01*
X5550000Y4650000D02*
X5650000Y4650000D01*
D19*
%TO.C,R5*%
X9996000Y42444500D02*
X10504000Y42444500D01*
X9996000Y41555500D02*
X10504000Y41555500D01*
%TO.C,R12*%
X15046000Y40944500D02*
X15554000Y40944500D01*
X15046000Y40055500D02*
X15554000Y40055500D01*
%TO.C,R8*%
X22754000Y27705500D02*
X22246000Y27705500D01*
X22754000Y28594500D02*
X22246000Y28594500D01*
%TO.C,R4*%
X22246000Y29694500D02*
X22754000Y29694500D01*
X22246000Y28805500D02*
X22754000Y28805500D01*
D10*
%TO.C,pUEXT1*%
X9801000Y12800000D02*
X19199000Y12800000D01*
X19199000Y10746000D02*
X9801000Y10746000D01*
X9801000Y12800000D01*
X19199000Y12800000D01*
X19199000Y10746000D01*
G36*
X19199000Y10746000D02*
G01*
X9801000Y10746000D01*
X9801000Y12800000D01*
X19199000Y12800000D01*
X19199000Y10746000D01*
G37*
%TO.C,BOOT1*%
X23450000Y8850000D02*
X23350000Y8850000D01*
X23450000Y8850000D02*
X23450000Y4650000D01*
X21250000Y8850000D02*
X22250000Y8850000D01*
X20150000Y8850000D02*
X20050000Y8850000D01*
X20050000Y8850000D02*
X20050000Y4650000D01*
X23450000Y4650000D02*
X23350000Y4650000D01*
X21250000Y4650000D02*
X22250000Y4650000D01*
X20050000Y4650000D02*
X20150000Y4650000D01*
D19*
%TO.C,R15*%
X12254000Y555500D02*
X11746000Y555500D01*
X12254000Y1444500D02*
X11746000Y1444500D01*
D10*
%TO.C,USB-C1*%
X10030000Y45950000D02*
X10030000Y47250000D01*
X18970000Y45950000D02*
X18970000Y47250000D01*
X18970000Y49950000D02*
X18970000Y51818000D01*
X10030000Y51818000D02*
X10030000Y49950000D01*
X18970000Y51818000D02*
X10030000Y51818000D01*
D19*
%TO.C,C10*%
X8004000Y27755500D02*
X7496000Y27755500D01*
X8004000Y28644500D02*
X7496000Y28644500D01*
%TO.C,C4*%
X7944500Y19454000D02*
X7944500Y18946000D01*
X7055500Y19454000D02*
X7055500Y18946000D01*
%TO.C,R13*%
X15554000Y37655500D02*
X15046000Y37655500D01*
X15554000Y38544500D02*
X15046000Y38544500D01*
%TO.C,C17*%
X22346000Y22844500D02*
X22854000Y22844500D01*
X22346000Y21955500D02*
X22854000Y21955500D01*
%TO.C,C9*%
X22246000Y30694500D02*
X22754000Y30694500D01*
X22246000Y29805500D02*
X22754000Y29805500D01*
%TO.C,C14*%
X17246000Y31444500D02*
X17754000Y31444500D01*
X17246000Y30555500D02*
X17754000Y30555500D01*
%TO.C,C16*%
X19544500Y14754000D02*
X19544500Y14246000D01*
X18655500Y14754000D02*
X18655500Y14246000D01*
%TO.C,C11*%
X13355500Y32246000D02*
X13355500Y32754000D01*
X14244500Y32246000D02*
X14244500Y32754000D01*
%TO.C,R3*%
X20694500Y32754000D02*
X20694500Y32246000D01*
X19805500Y32754000D02*
X19805500Y32246000D01*
%TO.C,C3*%
X6954000Y25555500D02*
X6446000Y25555500D01*
X6954000Y26444500D02*
X6446000Y26444500D01*
%TO.C,C23*%
X15554000Y38805500D02*
X15046000Y38805500D01*
X15554000Y39694500D02*
X15046000Y39694500D01*
D10*
%TO.C,L1*%
X17450000Y33550000D02*
X17550000Y33550000D01*
X17450000Y31950000D02*
X17550000Y31950000D01*
D19*
%TO.C,C18*%
X20694500Y30854000D02*
X20694500Y30346000D01*
X19805500Y30854000D02*
X19805500Y30346000D01*
%TO.C,R2*%
X20755500Y14246000D02*
X20755500Y14754000D01*
X21644500Y14246000D02*
X21644500Y14754000D01*
D10*
%TO.C,Q1*%
X14196800Y13480000D02*
X14603200Y13480000D01*
X14196800Y16020000D02*
X14603200Y16020000D01*
D19*
%TO.C,C8*%
X22346000Y21744500D02*
X22854000Y21744500D01*
X22346000Y20855500D02*
X22854000Y20855500D01*
%TO.C,C21*%
X11455500Y14496000D02*
X11455500Y15004000D01*
X12344500Y14496000D02*
X12344500Y15004000D01*
%TO.C,C19*%
X22246000Y27544500D02*
X22754000Y27544500D01*
X22246000Y26655500D02*
X22754000Y26655500D01*
%TO.C,Logo_OLIMEX_80*%
D20*
X6550520Y40683670D02*
X6550520Y40565560D01*
X6137135Y40565538D01*
X5723750Y40565516D01*
X5708510Y40542201D01*
X5688852Y40519413D01*
X5660103Y40494732D01*
X5627288Y40472010D01*
X5595432Y40455096D01*
X5594138Y40454549D01*
X5552865Y40444092D01*
X5505699Y40442886D01*
X5458625Y40450640D01*
X5425796Y40462735D01*
X5377660Y40493619D01*
X5334707Y40535067D01*
X5301609Y40582441D01*
X5297791Y40589757D01*
X5281142Y40639277D01*
X5277587Y40685126D01*
X5445620Y40685126D01*
X5447395Y40659471D01*
X5451928Y40638642D01*
X5455349Y40631368D01*
X5473345Y40618147D01*
X5499891Y40611167D01*
X5529667Y40610437D01*
X5557350Y40615968D01*
X5577617Y40627768D01*
X5580503Y40631138D01*
X5588286Y40651243D01*
X5590836Y40678749D01*
X5588449Y40707520D01*
X5581426Y40731420D01*
X5575160Y40740820D01*
X5560476Y40750675D01*
X5539019Y40755275D01*
X5518010Y40756060D01*
X5483815Y40752993D01*
X5461758Y40742425D01*
X5449743Y40722302D01*
X5445675Y40690571D01*
X5445620Y40685126D01*
X5277587Y40685126D01*
X5276996Y40692753D01*
X5285355Y40745427D01*
X5297791Y40777583D01*
X5330713Y40829067D01*
X5371705Y40869907D01*
X5418748Y40899544D01*
X5469825Y40917419D01*
X5522916Y40922973D01*
X5576002Y40915647D01*
X5627066Y40894880D01*
X5654862Y40876533D01*
X5677796Y40856762D01*
X5698611Y40835316D01*
X5705295Y40827091D01*
X5723750Y40802200D01*
X6137135Y40801990D01*
X6550520Y40801780D01*
X6550520Y40756060D01*
X6550520Y40683670D01*
G36*
X6550520Y40683670D02*
G01*
X6550520Y40565560D01*
X6137135Y40565538D01*
X5723750Y40565516D01*
X5708510Y40542201D01*
X5688852Y40519413D01*
X5660103Y40494732D01*
X5627288Y40472010D01*
X5595432Y40455096D01*
X5594138Y40454549D01*
X5552865Y40444092D01*
X5505699Y40442886D01*
X5458625Y40450640D01*
X5425796Y40462735D01*
X5377660Y40493619D01*
X5334707Y40535067D01*
X5301609Y40582441D01*
X5297791Y40589757D01*
X5281142Y40639277D01*
X5277587Y40685126D01*
X5445620Y40685126D01*
X5447395Y40659471D01*
X5451928Y40638642D01*
X5455349Y40631368D01*
X5473345Y40618147D01*
X5499891Y40611167D01*
X5529667Y40610437D01*
X5557350Y40615968D01*
X5577617Y40627768D01*
X5580503Y40631138D01*
X5588286Y40651243D01*
X5590836Y40678749D01*
X5588449Y40707520D01*
X5581426Y40731420D01*
X5575160Y40740820D01*
X5560476Y40750675D01*
X5539019Y40755275D01*
X5518010Y40756060D01*
X5483815Y40752993D01*
X5461758Y40742425D01*
X5449743Y40722302D01*
X5445675Y40690571D01*
X5445620Y40685126D01*
X5277587Y40685126D01*
X5276996Y40692753D01*
X5285355Y40745427D01*
X5297791Y40777583D01*
X5330713Y40829067D01*
X5371705Y40869907D01*
X5418748Y40899544D01*
X5469825Y40917419D01*
X5522916Y40922973D01*
X5576002Y40915647D01*
X5627066Y40894880D01*
X5654862Y40876533D01*
X5677796Y40856762D01*
X5698611Y40835316D01*
X5705295Y40827091D01*
X5723750Y40802200D01*
X6137135Y40801990D01*
X6550520Y40801780D01*
X6550520Y40756060D01*
X6550520Y40683670D01*
G37*
X7112973Y40743446D02*
X7119359Y40700351D01*
X7119700Y40656433D01*
X7113637Y40617990D01*
X7110617Y40608730D01*
X7095013Y40577232D01*
X7072825Y40544103D01*
X7047987Y40514560D01*
X7024432Y40493817D01*
X7023459Y40493170D01*
X7000144Y40477930D01*
X7000122Y40315760D01*
X6999844Y40256492D01*
X6998956Y40210586D01*
X6997349Y40176176D01*
X6994914Y40151391D01*
X6991544Y40134363D01*
X6989176Y40127445D01*
X6979540Y40112116D01*
X6960971Y40088862D01*
X6935670Y40059949D01*
X6905840Y40027643D01*
X6873686Y39994208D01*
X6841409Y39961910D01*
X6811213Y39933015D01*
X6785300Y39909788D01*
X6765874Y39894495D01*
X6758410Y39890136D01*
X6751664Y39888273D01*
X6740195Y39886637D01*
X6723117Y39885213D01*
X6699543Y39883988D01*
X6668586Y39882951D01*
X6629358Y39882086D01*
X6580974Y39881381D01*
X6522546Y39880822D01*
X6453186Y39880397D01*
X6372009Y39880091D01*
X6278128Y39879892D01*
X6170654Y39879787D01*
X6066895Y39879760D01*
X5399900Y39879760D01*
X5399900Y39997870D01*
X5399900Y40115980D01*
X6030659Y40115980D01*
X6661419Y40115980D01*
X6712649Y40167606D01*
X6763880Y40219232D01*
X6763858Y40348581D01*
X6763836Y40477930D01*
X6740521Y40493170D01*
X6718018Y40512566D01*
X6693525Y40540957D01*
X6670942Y40573281D01*
X6654166Y40604477D01*
X6653345Y40606403D01*
X6643490Y40645253D01*
X6641946Y40685126D01*
X6809600Y40685126D01*
X6811375Y40659471D01*
X6815908Y40638642D01*
X6819329Y40631368D01*
X6837325Y40618147D01*
X6863871Y40611167D01*
X6893647Y40610437D01*
X6921330Y40615968D01*
X6941597Y40627768D01*
X6944483Y40631138D01*
X6952266Y40651243D01*
X6954816Y40678749D01*
X6952429Y40707520D01*
X6945406Y40731420D01*
X6939140Y40740820D01*
X6924456Y40750675D01*
X6902999Y40755275D01*
X6881990Y40756060D01*
X6847795Y40752993D01*
X6825738Y40742425D01*
X6813723Y40722302D01*
X6809655Y40690571D01*
X6809600Y40685126D01*
X6641946Y40685126D01*
X6641731Y40690671D01*
X6647766Y40736507D01*
X6661292Y40776611D01*
X6661771Y40777583D01*
X6690317Y40822011D01*
X6728143Y40862501D01*
X6770504Y40894246D01*
X6784683Y40901992D01*
X6824928Y40915280D01*
X6872094Y40920842D01*
X6920273Y40918654D01*
X6963558Y40908694D01*
X6977742Y40902745D01*
X7014381Y40879207D01*
X7050932Y40846461D01*
X7082350Y40809560D01*
X7100900Y40779422D01*
X7108740Y40756060D01*
X7112973Y40743446D01*
G36*
X7112973Y40743446D02*
G01*
X7119359Y40700351D01*
X7119700Y40656433D01*
X7113637Y40617990D01*
X7110617Y40608730D01*
X7095013Y40577232D01*
X7072825Y40544103D01*
X7047987Y40514560D01*
X7024432Y40493817D01*
X7023459Y40493170D01*
X7000144Y40477930D01*
X7000122Y40315760D01*
X6999844Y40256492D01*
X6998956Y40210586D01*
X6997349Y40176176D01*
X6994914Y40151391D01*
X6991544Y40134363D01*
X6989176Y40127445D01*
X6979540Y40112116D01*
X6960971Y40088862D01*
X6935670Y40059949D01*
X6905840Y40027643D01*
X6873686Y39994208D01*
X6841409Y39961910D01*
X6811213Y39933015D01*
X6785300Y39909788D01*
X6765874Y39894495D01*
X6758410Y39890136D01*
X6751664Y39888273D01*
X6740195Y39886637D01*
X6723117Y39885213D01*
X6699543Y39883988D01*
X6668586Y39882951D01*
X6629358Y39882086D01*
X6580974Y39881381D01*
X6522546Y39880822D01*
X6453186Y39880397D01*
X6372009Y39880091D01*
X6278128Y39879892D01*
X6170654Y39879787D01*
X6066895Y39879760D01*
X5399900Y39879760D01*
X5399900Y39997870D01*
X5399900Y40115980D01*
X6030659Y40115980D01*
X6661419Y40115980D01*
X6712649Y40167606D01*
X6763880Y40219232D01*
X6763858Y40348581D01*
X6763836Y40477930D01*
X6740521Y40493170D01*
X6718018Y40512566D01*
X6693525Y40540957D01*
X6670942Y40573281D01*
X6654166Y40604477D01*
X6653345Y40606403D01*
X6643490Y40645253D01*
X6641946Y40685126D01*
X6809600Y40685126D01*
X6811375Y40659471D01*
X6815908Y40638642D01*
X6819329Y40631368D01*
X6837325Y40618147D01*
X6863871Y40611167D01*
X6893647Y40610437D01*
X6921330Y40615968D01*
X6941597Y40627768D01*
X6944483Y40631138D01*
X6952266Y40651243D01*
X6954816Y40678749D01*
X6952429Y40707520D01*
X6945406Y40731420D01*
X6939140Y40740820D01*
X6924456Y40750675D01*
X6902999Y40755275D01*
X6881990Y40756060D01*
X6847795Y40752993D01*
X6825738Y40742425D01*
X6813723Y40722302D01*
X6809655Y40690571D01*
X6809600Y40685126D01*
X6641946Y40685126D01*
X6641731Y40690671D01*
X6647766Y40736507D01*
X6661292Y40776611D01*
X6661771Y40777583D01*
X6690317Y40822011D01*
X6728143Y40862501D01*
X6770504Y40894246D01*
X6784683Y40901992D01*
X6824928Y40915280D01*
X6872094Y40920842D01*
X6920273Y40918654D01*
X6963558Y40908694D01*
X6977742Y40902745D01*
X7014381Y40879207D01*
X7050932Y40846461D01*
X7082350Y40809560D01*
X7100900Y40779422D01*
X7108740Y40756060D01*
X7112973Y40743446D01*
G37*
X6992102Y39526839D02*
X6994766Y39511810D01*
X6996904Y39483967D01*
X6998531Y39445595D01*
X6999660Y39398978D01*
X7000304Y39346400D01*
X7000478Y39290144D01*
X7000195Y39232497D01*
X6999470Y39175740D01*
X6998314Y39122160D01*
X6996743Y39074039D01*
X6994770Y39033663D01*
X6992409Y39003314D01*
X6989672Y38985279D01*
X6988842Y38982748D01*
X6979161Y38967702D01*
X6960578Y38944750D01*
X6945121Y38927260D01*
X6935295Y38916142D01*
X6905509Y38884127D01*
X6873423Y38850953D01*
X6841234Y38818872D01*
X6811144Y38790131D01*
X6785352Y38766980D01*
X6766058Y38751669D01*
X6758410Y38747136D01*
X6747799Y38744109D01*
X6730833Y38741687D01*
X6706081Y38739815D01*
X6672113Y38738439D01*
X6627498Y38737505D01*
X6570806Y38736958D01*
X6500605Y38736746D01*
X6484090Y38736738D01*
X6234290Y38736716D01*
X6219050Y38713401D01*
X6199392Y38690613D01*
X6170643Y38665932D01*
X6137828Y38643210D01*
X6105972Y38626296D01*
X6104678Y38625749D01*
X6072773Y38617498D01*
X6033296Y38614355D01*
X5993035Y38616317D01*
X5958775Y38623386D01*
X5952422Y38625749D01*
X5920723Y38642320D01*
X5887845Y38664869D01*
X5858813Y38689544D01*
X5838652Y38712496D01*
X5838050Y38713401D01*
X5822810Y38736716D01*
X5749011Y38736738D01*
X5714419Y38737565D01*
X5683387Y38739761D01*
X5660589Y38742935D01*
X5653761Y38744756D01*
X5640425Y38753218D01*
X5618949Y38770811D01*
X5591473Y38795415D01*
X5560132Y38824908D01*
X5527930Y38856326D01*
X5956160Y38856326D01*
X5957935Y38830671D01*
X5962468Y38809842D01*
X5965889Y38802568D01*
X5983885Y38789347D01*
X6010431Y38782367D01*
X6040207Y38781637D01*
X6067890Y38787168D01*
X6088157Y38798968D01*
X6091043Y38802338D01*
X6098826Y38822443D01*
X6101376Y38849949D01*
X6098989Y38878720D01*
X6091966Y38902620D01*
X6085700Y38912020D01*
X6071016Y38921875D01*
X6049559Y38926475D01*
X6028550Y38927260D01*
X5994355Y38924193D01*
X5972298Y38913625D01*
X5960283Y38893502D01*
X5956215Y38861771D01*
X5956160Y38856326D01*
X5527930Y38856326D01*
X5527067Y38857168D01*
X5494414Y38890076D01*
X5464312Y38921508D01*
X5438899Y38949344D01*
X5420313Y38971462D01*
X5410692Y38985742D01*
X5410545Y38986070D01*
X5407317Y39001337D01*
X5404613Y39029520D01*
X5402434Y39068305D01*
X5402156Y39076232D01*
X5636120Y39076232D01*
X5687351Y39024606D01*
X5711358Y39000714D01*
X5728321Y38985636D01*
X5741906Y38977344D01*
X5755780Y38973812D01*
X5773609Y38973012D01*
X5780696Y38973002D01*
X5805693Y38973817D01*
X5820776Y38977666D01*
X5831243Y38986707D01*
X5838050Y38996339D01*
X5859443Y39021007D01*
X5890045Y39046443D01*
X5924561Y39068743D01*
X5956302Y39083520D01*
X6009092Y39094400D01*
X6063326Y39091596D01*
X6116152Y39076045D01*
X6164717Y39048684D01*
X6206166Y39010449D01*
X6215835Y38998291D01*
X6234290Y38973400D01*
X6447459Y38973190D01*
X6660627Y38972980D01*
X6712254Y39024211D01*
X6763880Y39075441D01*
X6763880Y39258321D01*
X6763880Y39441200D01*
X6716475Y39489030D01*
X6669070Y39536860D01*
X6204221Y39536860D01*
X5739372Y39536860D01*
X5687746Y39485629D01*
X5636120Y39434399D01*
X5636120Y39255316D01*
X5636120Y39076232D01*
X5402156Y39076232D01*
X5400782Y39115377D01*
X5399656Y39168421D01*
X5399059Y39225123D01*
X5398991Y39283167D01*
X5399454Y39340240D01*
X5400448Y39394026D01*
X5401976Y39442210D01*
X5404038Y39482479D01*
X5406635Y39512517D01*
X5409768Y39530009D01*
X5410276Y39531390D01*
X5419892Y39546011D01*
X5438763Y39568405D01*
X5464624Y39596368D01*
X5495211Y39627698D01*
X5528257Y39660192D01*
X5561498Y39691646D01*
X5592667Y39719858D01*
X5619499Y39742625D01*
X5639729Y39757743D01*
X5647585Y39762156D01*
X5660744Y39764462D01*
X5687583Y39766527D01*
X5726565Y39768350D01*
X5776156Y39769931D01*
X5834819Y39771271D01*
X5901019Y39772367D01*
X5973219Y39773221D01*
X6049885Y39773831D01*
X6129480Y39774197D01*
X6210469Y39774319D01*
X6291315Y39774196D01*
X6370484Y39773828D01*
X6446439Y39773215D01*
X6517645Y39772356D01*
X6582565Y39771251D01*
X6639665Y39769900D01*
X6687407Y39768301D01*
X6724258Y39766455D01*
X6748680Y39764361D01*
X6758410Y39762436D01*
X6772554Y39753077D01*
X6794533Y39734708D01*
X6822183Y39709511D01*
X6853335Y39679672D01*
X6885824Y39647374D01*
X6917484Y39614802D01*
X6946148Y39584138D01*
X6969650Y39557568D01*
X6985824Y39537274D01*
X6986073Y39536860D01*
X6992102Y39526839D01*
G36*
X6992102Y39526839D02*
G01*
X6994766Y39511810D01*
X6996904Y39483967D01*
X6998531Y39445595D01*
X6999660Y39398978D01*
X7000304Y39346400D01*
X7000478Y39290144D01*
X7000195Y39232497D01*
X6999470Y39175740D01*
X6998314Y39122160D01*
X6996743Y39074039D01*
X6994770Y39033663D01*
X6992409Y39003314D01*
X6989672Y38985279D01*
X6988842Y38982748D01*
X6979161Y38967702D01*
X6960578Y38944750D01*
X6945121Y38927260D01*
X6935295Y38916142D01*
X6905509Y38884127D01*
X6873423Y38850953D01*
X6841234Y38818872D01*
X6811144Y38790131D01*
X6785352Y38766980D01*
X6766058Y38751669D01*
X6758410Y38747136D01*
X6747799Y38744109D01*
X6730833Y38741687D01*
X6706081Y38739815D01*
X6672113Y38738439D01*
X6627498Y38737505D01*
X6570806Y38736958D01*
X6500605Y38736746D01*
X6484090Y38736738D01*
X6234290Y38736716D01*
X6219050Y38713401D01*
X6199392Y38690613D01*
X6170643Y38665932D01*
X6137828Y38643210D01*
X6105972Y38626296D01*
X6104678Y38625749D01*
X6072773Y38617498D01*
X6033296Y38614355D01*
X5993035Y38616317D01*
X5958775Y38623386D01*
X5952422Y38625749D01*
X5920723Y38642320D01*
X5887845Y38664869D01*
X5858813Y38689544D01*
X5838652Y38712496D01*
X5838050Y38713401D01*
X5822810Y38736716D01*
X5749011Y38736738D01*
X5714419Y38737565D01*
X5683387Y38739761D01*
X5660589Y38742935D01*
X5653761Y38744756D01*
X5640425Y38753218D01*
X5618949Y38770811D01*
X5591473Y38795415D01*
X5560132Y38824908D01*
X5527930Y38856326D01*
X5956160Y38856326D01*
X5957935Y38830671D01*
X5962468Y38809842D01*
X5965889Y38802568D01*
X5983885Y38789347D01*
X6010431Y38782367D01*
X6040207Y38781637D01*
X6067890Y38787168D01*
X6088157Y38798968D01*
X6091043Y38802338D01*
X6098826Y38822443D01*
X6101376Y38849949D01*
X6098989Y38878720D01*
X6091966Y38902620D01*
X6085700Y38912020D01*
X6071016Y38921875D01*
X6049559Y38926475D01*
X6028550Y38927260D01*
X5994355Y38924193D01*
X5972298Y38913625D01*
X5960283Y38893502D01*
X5956215Y38861771D01*
X5956160Y38856326D01*
X5527930Y38856326D01*
X5527067Y38857168D01*
X5494414Y38890076D01*
X5464312Y38921508D01*
X5438899Y38949344D01*
X5420313Y38971462D01*
X5410692Y38985742D01*
X5410545Y38986070D01*
X5407317Y39001337D01*
X5404613Y39029520D01*
X5402434Y39068305D01*
X5402156Y39076232D01*
X5636120Y39076232D01*
X5687351Y39024606D01*
X5711358Y39000714D01*
X5728321Y38985636D01*
X5741906Y38977344D01*
X5755780Y38973812D01*
X5773609Y38973012D01*
X5780696Y38973002D01*
X5805693Y38973817D01*
X5820776Y38977666D01*
X5831243Y38986707D01*
X5838050Y38996339D01*
X5859443Y39021007D01*
X5890045Y39046443D01*
X5924561Y39068743D01*
X5956302Y39083520D01*
X6009092Y39094400D01*
X6063326Y39091596D01*
X6116152Y39076045D01*
X6164717Y39048684D01*
X6206166Y39010449D01*
X6215835Y38998291D01*
X6234290Y38973400D01*
X6447459Y38973190D01*
X6660627Y38972980D01*
X6712254Y39024211D01*
X6763880Y39075441D01*
X6763880Y39258321D01*
X6763880Y39441200D01*
X6716475Y39489030D01*
X6669070Y39536860D01*
X6204221Y39536860D01*
X5739372Y39536860D01*
X5687746Y39485629D01*
X5636120Y39434399D01*
X5636120Y39255316D01*
X5636120Y39076232D01*
X5402156Y39076232D01*
X5400782Y39115377D01*
X5399656Y39168421D01*
X5399059Y39225123D01*
X5398991Y39283167D01*
X5399454Y39340240D01*
X5400448Y39394026D01*
X5401976Y39442210D01*
X5404038Y39482479D01*
X5406635Y39512517D01*
X5409768Y39530009D01*
X5410276Y39531390D01*
X5419892Y39546011D01*
X5438763Y39568405D01*
X5464624Y39596368D01*
X5495211Y39627698D01*
X5528257Y39660192D01*
X5561498Y39691646D01*
X5592667Y39719858D01*
X5619499Y39742625D01*
X5639729Y39757743D01*
X5647585Y39762156D01*
X5660744Y39764462D01*
X5687583Y39766527D01*
X5726565Y39768350D01*
X5776156Y39769931D01*
X5834819Y39771271D01*
X5901019Y39772367D01*
X5973219Y39773221D01*
X6049885Y39773831D01*
X6129480Y39774197D01*
X6210469Y39774319D01*
X6291315Y39774196D01*
X6370484Y39773828D01*
X6446439Y39773215D01*
X6517645Y39772356D01*
X6582565Y39771251D01*
X6639665Y39769900D01*
X6687407Y39768301D01*
X6724258Y39766455D01*
X6748680Y39764361D01*
X6758410Y39762436D01*
X6772554Y39753077D01*
X6794533Y39734708D01*
X6822183Y39709511D01*
X6853335Y39679672D01*
X6885824Y39647374D01*
X6917484Y39614802D01*
X6946148Y39584138D01*
X6969650Y39557568D01*
X6985824Y39537274D01*
X6986073Y39536860D01*
X6992102Y39526839D01*
G37*
X7114041Y42682719D02*
X7119235Y42635735D01*
X7116672Y42587475D01*
X7106373Y42543850D01*
X7100312Y42529463D01*
X7072247Y42486301D01*
X7033753Y42446304D01*
X6989570Y42414119D01*
X6974204Y42405835D01*
X6931365Y42391288D01*
X6883759Y42385474D01*
X6837372Y42388683D01*
X6805862Y42397649D01*
X6774163Y42414220D01*
X6741285Y42436769D01*
X6712253Y42461444D01*
X6692092Y42484396D01*
X6691490Y42485301D01*
X6676250Y42508616D01*
X6156185Y42508638D01*
X5636120Y42508660D01*
X5636120Y42476219D01*
X5636327Y42467486D01*
X5637644Y42459286D01*
X5641112Y42450402D01*
X5647775Y42439618D01*
X5658673Y42425714D01*
X5674850Y42407476D01*
X5697347Y42383683D01*
X5727208Y42353121D01*
X5765473Y42314571D01*
X5813186Y42266816D01*
X5828580Y42251429D01*
X6021040Y42059080D01*
X6093375Y42059102D01*
X6126999Y42059267D01*
X6148842Y42060354D01*
X6162361Y42063283D01*
X6171015Y42068977D01*
X6178263Y42078356D01*
X6180950Y42082439D01*
X6203062Y42107862D01*
X6234597Y42133698D01*
X6270331Y42156162D01*
X6302820Y42170732D01*
X6346481Y42179257D01*
X6395256Y42178654D01*
X6442406Y42169370D01*
X6467202Y42159776D01*
X6503587Y42136615D01*
X6540053Y42104112D01*
X6571572Y42067284D01*
X6590524Y42036722D01*
X6598141Y42013360D01*
X6603501Y41996919D01*
X6608695Y41949935D01*
X6606132Y41901675D01*
X6595833Y41858050D01*
X6589772Y41843664D01*
X6561707Y41800501D01*
X6523213Y41760504D01*
X6479030Y41728319D01*
X6463664Y41720035D01*
X6420825Y41705488D01*
X6373219Y41699674D01*
X6326832Y41702883D01*
X6295322Y41711849D01*
X6263623Y41728420D01*
X6230745Y41750969D01*
X6201713Y41775644D01*
X6181552Y41798596D01*
X6180950Y41799501D01*
X6173405Y41810306D01*
X6165600Y41817120D01*
X6154078Y41820864D01*
X6135379Y41822460D01*
X6106046Y41822828D01*
X6093375Y41822838D01*
X6021040Y41822860D01*
X5828580Y41630511D01*
X5777999Y41579924D01*
X5737160Y41538887D01*
X5705022Y41506183D01*
X5680543Y41480594D01*
X5662679Y41460904D01*
X5650390Y41445895D01*
X5642632Y41434350D01*
X5638364Y41425051D01*
X5636543Y41416781D01*
X5636127Y41408323D01*
X5636120Y41405721D01*
X5636120Y41373280D01*
X6156185Y41373302D01*
X6676250Y41373324D01*
X6691490Y41396639D01*
X6713602Y41422062D01*
X6745137Y41447898D01*
X6780871Y41470362D01*
X6813360Y41484932D01*
X6857021Y41493457D01*
X6905796Y41492854D01*
X6952946Y41483570D01*
X6977742Y41473976D01*
X7014213Y41450756D01*
X7050694Y41418205D01*
X7082136Y41381367D01*
X7100900Y41350922D01*
X7108751Y41327560D01*
X7112874Y41315292D01*
X7119290Y41272536D01*
X7119784Y41228917D01*
X7113993Y41190697D01*
X7110770Y41180674D01*
X7084326Y41130807D01*
X7046044Y41085449D01*
X6999288Y41048000D01*
X6957577Y41025823D01*
X6926138Y41017731D01*
X6887049Y41014648D01*
X6847051Y41016564D01*
X6812885Y41023468D01*
X6805862Y41026049D01*
X6774163Y41042620D01*
X6741285Y41065169D01*
X6712253Y41089844D01*
X6692092Y41112796D01*
X6691490Y41113701D01*
X6676250Y41137016D01*
X6038075Y41137038D01*
X5399900Y41137060D01*
X5399900Y41256626D01*
X6809600Y41256626D01*
X6811375Y41230971D01*
X6815908Y41210142D01*
X6819329Y41202868D01*
X6837325Y41189647D01*
X6863871Y41182667D01*
X6893647Y41181937D01*
X6921330Y41187468D01*
X6941597Y41199268D01*
X6944483Y41202638D01*
X6952266Y41222743D01*
X6954816Y41250249D01*
X6952429Y41279020D01*
X6945406Y41302920D01*
X6939140Y41312320D01*
X6924456Y41322175D01*
X6902999Y41326775D01*
X6881990Y41327560D01*
X6847795Y41324493D01*
X6825738Y41313925D01*
X6813723Y41293802D01*
X6809655Y41262071D01*
X6809600Y41256626D01*
X5399900Y41256626D01*
X5399900Y41319444D01*
X5400240Y41378251D01*
X5401214Y41429650D01*
X5402748Y41471798D01*
X5404771Y41502855D01*
X5407211Y41520979D01*
X5407880Y41523279D01*
X5414977Y41533473D01*
X5431654Y41553018D01*
X5456643Y41580561D01*
X5488674Y41614748D01*
X5526481Y41654224D01*
X5568795Y41697637D01*
X5613621Y41742904D01*
X5811383Y41941079D01*
X5810030Y41942426D01*
X6299060Y41942426D01*
X6300835Y41916771D01*
X6305368Y41895942D01*
X6308789Y41888668D01*
X6326785Y41875447D01*
X6353331Y41868467D01*
X6383107Y41867737D01*
X6410790Y41873268D01*
X6431057Y41885068D01*
X6433943Y41888438D01*
X6441726Y41908543D01*
X6444276Y41936049D01*
X6441889Y41964820D01*
X6434866Y41988720D01*
X6428600Y41998120D01*
X6413916Y42007975D01*
X6392459Y42012575D01*
X6371450Y42013360D01*
X6337255Y42010293D01*
X6315198Y41999725D01*
X6303183Y41979602D01*
X6299115Y41947871D01*
X6299060Y41942426D01*
X5810030Y41942426D01*
X5616304Y42135335D01*
X5570887Y42180938D01*
X5528625Y42224097D01*
X5490823Y42263422D01*
X5458791Y42297523D01*
X5433835Y42325009D01*
X5417264Y42344491D01*
X5410563Y42354110D01*
X5406940Y42366272D01*
X5404172Y42385130D01*
X5402172Y42412393D01*
X5400852Y42449768D01*
X5400123Y42498961D01*
X5399900Y42561679D01*
X5399900Y42561755D01*
X5399900Y42628226D01*
X6809600Y42628226D01*
X6811375Y42602571D01*
X6815908Y42581742D01*
X6819329Y42574468D01*
X6837325Y42561247D01*
X6863871Y42554267D01*
X6893647Y42553537D01*
X6921330Y42559068D01*
X6941597Y42570868D01*
X6944483Y42574238D01*
X6952266Y42594343D01*
X6954816Y42621849D01*
X6952429Y42650620D01*
X6945406Y42674520D01*
X6939140Y42683920D01*
X6924456Y42693775D01*
X6902999Y42698375D01*
X6881990Y42699160D01*
X6847795Y42696093D01*
X6825738Y42685525D01*
X6813723Y42665402D01*
X6809655Y42633671D01*
X6809600Y42628226D01*
X5399900Y42628226D01*
X5399900Y42744880D01*
X6038075Y42744902D01*
X6676250Y42744924D01*
X6691490Y42768239D01*
X6713602Y42793662D01*
X6745137Y42819498D01*
X6780871Y42841962D01*
X6813360Y42856532D01*
X6857021Y42865057D01*
X6905796Y42864454D01*
X6952946Y42855170D01*
X6977742Y42845576D01*
X7014127Y42822415D01*
X7050594Y42789912D01*
X7082112Y42753084D01*
X7101065Y42722522D01*
X7108681Y42699160D01*
X7114041Y42682719D01*
G36*
X7114041Y42682719D02*
G01*
X7119235Y42635735D01*
X7116672Y42587475D01*
X7106373Y42543850D01*
X7100312Y42529463D01*
X7072247Y42486301D01*
X7033753Y42446304D01*
X6989570Y42414119D01*
X6974204Y42405835D01*
X6931365Y42391288D01*
X6883759Y42385474D01*
X6837372Y42388683D01*
X6805862Y42397649D01*
X6774163Y42414220D01*
X6741285Y42436769D01*
X6712253Y42461444D01*
X6692092Y42484396D01*
X6691490Y42485301D01*
X6676250Y42508616D01*
X6156185Y42508638D01*
X5636120Y42508660D01*
X5636120Y42476219D01*
X5636327Y42467486D01*
X5637644Y42459286D01*
X5641112Y42450402D01*
X5647775Y42439618D01*
X5658673Y42425714D01*
X5674850Y42407476D01*
X5697347Y42383683D01*
X5727208Y42353121D01*
X5765473Y42314571D01*
X5813186Y42266816D01*
X5828580Y42251429D01*
X6021040Y42059080D01*
X6093375Y42059102D01*
X6126999Y42059267D01*
X6148842Y42060354D01*
X6162361Y42063283D01*
X6171015Y42068977D01*
X6178263Y42078356D01*
X6180950Y42082439D01*
X6203062Y42107862D01*
X6234597Y42133698D01*
X6270331Y42156162D01*
X6302820Y42170732D01*
X6346481Y42179257D01*
X6395256Y42178654D01*
X6442406Y42169370D01*
X6467202Y42159776D01*
X6503587Y42136615D01*
X6540053Y42104112D01*
X6571572Y42067284D01*
X6590524Y42036722D01*
X6598141Y42013360D01*
X6603501Y41996919D01*
X6608695Y41949935D01*
X6606132Y41901675D01*
X6595833Y41858050D01*
X6589772Y41843664D01*
X6561707Y41800501D01*
X6523213Y41760504D01*
X6479030Y41728319D01*
X6463664Y41720035D01*
X6420825Y41705488D01*
X6373219Y41699674D01*
X6326832Y41702883D01*
X6295322Y41711849D01*
X6263623Y41728420D01*
X6230745Y41750969D01*
X6201713Y41775644D01*
X6181552Y41798596D01*
X6180950Y41799501D01*
X6173405Y41810306D01*
X6165600Y41817120D01*
X6154078Y41820864D01*
X6135379Y41822460D01*
X6106046Y41822828D01*
X6093375Y41822838D01*
X6021040Y41822860D01*
X5828580Y41630511D01*
X5777999Y41579924D01*
X5737160Y41538887D01*
X5705022Y41506183D01*
X5680543Y41480594D01*
X5662679Y41460904D01*
X5650390Y41445895D01*
X5642632Y41434350D01*
X5638364Y41425051D01*
X5636543Y41416781D01*
X5636127Y41408323D01*
X5636120Y41405721D01*
X5636120Y41373280D01*
X6156185Y41373302D01*
X6676250Y41373324D01*
X6691490Y41396639D01*
X6713602Y41422062D01*
X6745137Y41447898D01*
X6780871Y41470362D01*
X6813360Y41484932D01*
X6857021Y41493457D01*
X6905796Y41492854D01*
X6952946Y41483570D01*
X6977742Y41473976D01*
X7014213Y41450756D01*
X7050694Y41418205D01*
X7082136Y41381367D01*
X7100900Y41350922D01*
X7108751Y41327560D01*
X7112874Y41315292D01*
X7119290Y41272536D01*
X7119784Y41228917D01*
X7113993Y41190697D01*
X7110770Y41180674D01*
X7084326Y41130807D01*
X7046044Y41085449D01*
X6999288Y41048000D01*
X6957577Y41025823D01*
X6926138Y41017731D01*
X6887049Y41014648D01*
X6847051Y41016564D01*
X6812885Y41023468D01*
X6805862Y41026049D01*
X6774163Y41042620D01*
X6741285Y41065169D01*
X6712253Y41089844D01*
X6692092Y41112796D01*
X6691490Y41113701D01*
X6676250Y41137016D01*
X6038075Y41137038D01*
X5399900Y41137060D01*
X5399900Y41256626D01*
X6809600Y41256626D01*
X6811375Y41230971D01*
X6815908Y41210142D01*
X6819329Y41202868D01*
X6837325Y41189647D01*
X6863871Y41182667D01*
X6893647Y41181937D01*
X6921330Y41187468D01*
X6941597Y41199268D01*
X6944483Y41202638D01*
X6952266Y41222743D01*
X6954816Y41250249D01*
X6952429Y41279020D01*
X6945406Y41302920D01*
X6939140Y41312320D01*
X6924456Y41322175D01*
X6902999Y41326775D01*
X6881990Y41327560D01*
X6847795Y41324493D01*
X6825738Y41313925D01*
X6813723Y41293802D01*
X6809655Y41262071D01*
X6809600Y41256626D01*
X5399900Y41256626D01*
X5399900Y41319444D01*
X5400240Y41378251D01*
X5401214Y41429650D01*
X5402748Y41471798D01*
X5404771Y41502855D01*
X5407211Y41520979D01*
X5407880Y41523279D01*
X5414977Y41533473D01*
X5431654Y41553018D01*
X5456643Y41580561D01*
X5488674Y41614748D01*
X5526481Y41654224D01*
X5568795Y41697637D01*
X5613621Y41742904D01*
X5811383Y41941079D01*
X5810030Y41942426D01*
X6299060Y41942426D01*
X6300835Y41916771D01*
X6305368Y41895942D01*
X6308789Y41888668D01*
X6326785Y41875447D01*
X6353331Y41868467D01*
X6383107Y41867737D01*
X6410790Y41873268D01*
X6431057Y41885068D01*
X6433943Y41888438D01*
X6441726Y41908543D01*
X6444276Y41936049D01*
X6441889Y41964820D01*
X6434866Y41988720D01*
X6428600Y41998120D01*
X6413916Y42007975D01*
X6392459Y42012575D01*
X6371450Y42013360D01*
X6337255Y42010293D01*
X6315198Y41999725D01*
X6303183Y41979602D01*
X6299115Y41947871D01*
X6299060Y41942426D01*
X5810030Y41942426D01*
X5616304Y42135335D01*
X5570887Y42180938D01*
X5528625Y42224097D01*
X5490823Y42263422D01*
X5458791Y42297523D01*
X5433835Y42325009D01*
X5417264Y42344491D01*
X5410563Y42354110D01*
X5406940Y42366272D01*
X5404172Y42385130D01*
X5402172Y42412393D01*
X5400852Y42449768D01*
X5400123Y42498961D01*
X5399900Y42561679D01*
X5399900Y42561755D01*
X5399900Y42628226D01*
X6809600Y42628226D01*
X6811375Y42602571D01*
X6815908Y42581742D01*
X6819329Y42574468D01*
X6837325Y42561247D01*
X6863871Y42554267D01*
X6893647Y42553537D01*
X6921330Y42559068D01*
X6941597Y42570868D01*
X6944483Y42574238D01*
X6952266Y42594343D01*
X6954816Y42621849D01*
X6952429Y42650620D01*
X6945406Y42674520D01*
X6939140Y42683920D01*
X6924456Y42693775D01*
X6902999Y42698375D01*
X6881990Y42699160D01*
X6847795Y42696093D01*
X6825738Y42685525D01*
X6813723Y42665402D01*
X6809655Y42633671D01*
X6809600Y42628226D01*
X5399900Y42628226D01*
X5399900Y42744880D01*
X6038075Y42744902D01*
X6676250Y42744924D01*
X6691490Y42768239D01*
X6713602Y42793662D01*
X6745137Y42819498D01*
X6780871Y42841962D01*
X6813360Y42856532D01*
X6857021Y42865057D01*
X6905796Y42864454D01*
X6952946Y42855170D01*
X6977742Y42845576D01*
X7014127Y42822415D01*
X7050594Y42789912D01*
X7082112Y42753084D01*
X7101065Y42722522D01*
X7108681Y42699160D01*
X7114041Y42682719D01*
G37*
X7112874Y44805252D02*
X7119290Y44762496D01*
X7119784Y44718877D01*
X7113993Y44680657D01*
X7110770Y44670634D01*
X7084326Y44620767D01*
X7046044Y44575409D01*
X6999288Y44537960D01*
X6957577Y44515783D01*
X6925803Y44507614D01*
X6886414Y44504589D01*
X6846131Y44506685D01*
X6811675Y44513879D01*
X6805133Y44516314D01*
X6776015Y44528480D01*
X6663267Y44415920D01*
X6550520Y44303361D01*
X6550520Y44261311D01*
X6550520Y44219261D01*
X6795123Y43975465D01*
X6846019Y43924437D01*
X6893788Y43875963D01*
X6937287Y43831248D01*
X6975369Y43791496D01*
X7006888Y43757911D01*
X7030701Y43731696D01*
X7045660Y43714057D01*
X7050393Y43707150D01*
X7053808Y43691417D01*
X7056628Y43662922D01*
X7058854Y43624134D01*
X7060484Y43577518D01*
X7061516Y43525543D01*
X7061948Y43470675D01*
X7061780Y43415381D01*
X7061009Y43362129D01*
X7059635Y43313386D01*
X7057655Y43271618D01*
X7055069Y43239294D01*
X7051874Y43218880D01*
X7050684Y43215170D01*
X7041068Y43200549D01*
X7022197Y43178155D01*
X6996336Y43150192D01*
X6965749Y43118862D01*
X6932703Y43086368D01*
X6899462Y43054914D01*
X6868293Y43026702D01*
X6841461Y43003935D01*
X6821231Y42988817D01*
X6813375Y42984404D01*
X6800253Y42982119D01*
X6773392Y42980070D01*
X6734292Y42978257D01*
X6684453Y42976681D01*
X6625374Y42975342D01*
X6558556Y42974239D01*
X6485497Y42973373D01*
X6407698Y42972744D01*
X6326658Y42972351D01*
X6243877Y42972194D01*
X6160854Y42972275D01*
X6079089Y42972591D01*
X6000082Y42973145D01*
X5925333Y42973935D01*
X5856340Y42974961D01*
X5794604Y42976224D01*
X5741625Y42977724D01*
X5698901Y42979460D01*
X5667933Y42981433D01*
X5650221Y42983642D01*
X5647585Y42984404D01*
X5632256Y42994040D01*
X5609002Y43012609D01*
X5580089Y43037910D01*
X5547783Y43067739D01*
X5514348Y43099894D01*
X5482050Y43132171D01*
X5453155Y43162367D01*
X5429928Y43188280D01*
X5414635Y43207706D01*
X5410276Y43215170D01*
X5406881Y43231101D01*
X5404093Y43259757D01*
X5401913Y43298674D01*
X5400339Y43345382D01*
X5399369Y43397415D01*
X5399001Y43452307D01*
X5399235Y43507589D01*
X5400068Y43560794D01*
X5401500Y43609456D01*
X5403529Y43651107D01*
X5406153Y43683281D01*
X5409372Y43703509D01*
X5410567Y43707150D01*
X5418079Y43717514D01*
X5435309Y43737362D01*
X5461112Y43765490D01*
X5494343Y43800695D01*
X5533855Y43841772D01*
X5578504Y43887517D01*
X5627144Y43936727D01*
X5665837Y43975465D01*
X5910440Y44219261D01*
X5910440Y44261311D01*
X5910440Y44303361D01*
X5797692Y44415920D01*
X5684945Y44528480D01*
X5655827Y44516314D01*
X5613661Y44505577D01*
X5565810Y44504378D01*
X5518244Y44512440D01*
X5486756Y44524195D01*
X5438620Y44555079D01*
X5395667Y44596527D01*
X5362569Y44643901D01*
X5358751Y44651217D01*
X5342102Y44700737D01*
X5338547Y44746586D01*
X5506580Y44746586D01*
X5508355Y44720931D01*
X5512888Y44700102D01*
X5516309Y44692828D01*
X5534305Y44679607D01*
X5560851Y44672627D01*
X5590627Y44671897D01*
X5618310Y44677428D01*
X5638577Y44689228D01*
X5641463Y44692597D01*
X5649246Y44712703D01*
X5651796Y44740209D01*
X5649409Y44768980D01*
X5642386Y44792880D01*
X5636120Y44802280D01*
X5621436Y44812135D01*
X5599979Y44816735D01*
X5578970Y44817520D01*
X5544775Y44814454D01*
X5522718Y44803885D01*
X5510703Y44783762D01*
X5506635Y44752031D01*
X5506580Y44746586D01*
X5338547Y44746586D01*
X5337956Y44754213D01*
X5346315Y44806887D01*
X5358751Y44839043D01*
X5387297Y44883471D01*
X5425123Y44923961D01*
X5467484Y44955706D01*
X5481663Y44963452D01*
X5505926Y44973498D01*
X5531259Y44979052D01*
X5563559Y44981201D01*
X5578970Y44981350D01*
X5628951Y44977866D01*
X5670444Y44966083D01*
X5708189Y44944006D01*
X5745206Y44911366D01*
X5783813Y44864104D01*
X5806034Y44817520D01*
X5807805Y44813808D01*
X5817346Y44764594D01*
X5820509Y44722270D01*
X5975600Y44566060D01*
X6015836Y44525079D01*
X6052749Y44486617D01*
X6084885Y44452256D01*
X6110793Y44423578D01*
X6129023Y44402163D01*
X6138121Y44389594D01*
X6138675Y44388399D01*
X6142570Y44369362D01*
X6145197Y44339132D01*
X6146594Y44301425D01*
X6146801Y44259957D01*
X6145855Y44218445D01*
X6143795Y44180604D01*
X6140659Y44150150D01*
X6136487Y44130800D01*
X6135993Y44129570D01*
X6128481Y44119206D01*
X6111251Y44099358D01*
X6085448Y44071230D01*
X6052217Y44036025D01*
X6012705Y43994948D01*
X5968056Y43949203D01*
X5919416Y43899993D01*
X5880723Y43861255D01*
X5636120Y43617459D01*
X5636120Y43464810D01*
X5636120Y43312161D01*
X5687746Y43260931D01*
X5739372Y43209700D01*
X5912536Y43209700D01*
X6085700Y43209700D01*
X6085678Y43360195D01*
X6085656Y43510690D01*
X6062341Y43525930D01*
X6039837Y43545326D01*
X6015345Y43573717D01*
X5992762Y43606041D01*
X5975986Y43637237D01*
X5975165Y43639163D01*
X5965310Y43678013D01*
X5963766Y43717886D01*
X6131420Y43717886D01*
X6133195Y43692231D01*
X6137728Y43671402D01*
X6141149Y43664128D01*
X6159145Y43650907D01*
X6185691Y43643927D01*
X6215467Y43643197D01*
X6243150Y43648728D01*
X6263417Y43660528D01*
X6266303Y43663897D01*
X6274086Y43684003D01*
X6276636Y43711509D01*
X6274249Y43740280D01*
X6267226Y43764180D01*
X6260960Y43773580D01*
X6246276Y43783435D01*
X6224819Y43788035D01*
X6203810Y43788820D01*
X6169615Y43785754D01*
X6147558Y43775185D01*
X6135543Y43755062D01*
X6131475Y43723331D01*
X6131420Y43717886D01*
X5963766Y43717886D01*
X5963551Y43723431D01*
X5969586Y43769267D01*
X5983112Y43809371D01*
X5983591Y43810343D01*
X6012137Y43854771D01*
X6049963Y43895261D01*
X6092324Y43927006D01*
X6106503Y43934752D01*
X6146748Y43948040D01*
X6193914Y43953602D01*
X6242093Y43951414D01*
X6285378Y43941454D01*
X6299562Y43935505D01*
X6336149Y43912011D01*
X6372619Y43879355D01*
X6403954Y43842561D01*
X6422616Y43812182D01*
X6430398Y43788820D01*
X6436912Y43769263D01*
X6442798Y43720660D01*
X6439826Y43673111D01*
X6433572Y43647800D01*
X6417662Y43612860D01*
X6394849Y43577246D01*
X6368921Y43546185D01*
X6345279Y43525930D01*
X6321964Y43510690D01*
X6321942Y43360195D01*
X6321920Y43209700D01*
X6522149Y43209700D01*
X6722379Y43209700D01*
X6773609Y43261326D01*
X6824840Y43312952D01*
X6824840Y43465206D01*
X6824840Y43617459D01*
X6580237Y43861255D01*
X6529341Y43912283D01*
X6481572Y43960757D01*
X6438073Y44005472D01*
X6399991Y44045224D01*
X6368471Y44078809D01*
X6344659Y44105024D01*
X6329700Y44122663D01*
X6324967Y44129570D01*
X6320076Y44149377D01*
X6316587Y44180554D01*
X6314500Y44219296D01*
X6313815Y44261795D01*
X6314532Y44304248D01*
X6316652Y44342849D01*
X6320174Y44373791D01*
X6324957Y44392950D01*
X6333043Y44404620D01*
X6350536Y44425292D01*
X6375926Y44453337D01*
X6407701Y44487123D01*
X6444352Y44525021D01*
X6484368Y44565398D01*
X6488787Y44569799D01*
X6641960Y44722127D01*
X6641960Y44746586D01*
X6809600Y44746586D01*
X6811375Y44720931D01*
X6815908Y44700102D01*
X6819329Y44692828D01*
X6837325Y44679607D01*
X6863871Y44672627D01*
X6893647Y44671897D01*
X6921330Y44677428D01*
X6941597Y44689228D01*
X6944483Y44692597D01*
X6952266Y44712703D01*
X6954816Y44740209D01*
X6952429Y44768980D01*
X6945406Y44792880D01*
X6939140Y44802280D01*
X6924456Y44812135D01*
X6902999Y44816735D01*
X6881990Y44817520D01*
X6847795Y44814454D01*
X6825738Y44803885D01*
X6813723Y44783762D01*
X6809655Y44752031D01*
X6809600Y44746586D01*
X6641960Y44746586D01*
X6641960Y44760707D01*
X6648929Y44805054D01*
X6668360Y44850370D01*
X6698042Y44893514D01*
X6735763Y44931342D01*
X6779309Y44960713D01*
X6784683Y44963452D01*
X6824928Y44976740D01*
X6872094Y44982302D01*
X6920273Y44980114D01*
X6963558Y44970154D01*
X6977742Y44964205D01*
X7014381Y44940667D01*
X7050932Y44907921D01*
X7082350Y44871020D01*
X7100900Y44840882D01*
X7108751Y44817520D01*
X7112874Y44805252D01*
G36*
X7112874Y44805252D02*
G01*
X7119290Y44762496D01*
X7119784Y44718877D01*
X7113993Y44680657D01*
X7110770Y44670634D01*
X7084326Y44620767D01*
X7046044Y44575409D01*
X6999288Y44537960D01*
X6957577Y44515783D01*
X6925803Y44507614D01*
X6886414Y44504589D01*
X6846131Y44506685D01*
X6811675Y44513879D01*
X6805133Y44516314D01*
X6776015Y44528480D01*
X6663267Y44415920D01*
X6550520Y44303361D01*
X6550520Y44261311D01*
X6550520Y44219261D01*
X6795123Y43975465D01*
X6846019Y43924437D01*
X6893788Y43875963D01*
X6937287Y43831248D01*
X6975369Y43791496D01*
X7006888Y43757911D01*
X7030701Y43731696D01*
X7045660Y43714057D01*
X7050393Y43707150D01*
X7053808Y43691417D01*
X7056628Y43662922D01*
X7058854Y43624134D01*
X7060484Y43577518D01*
X7061516Y43525543D01*
X7061948Y43470675D01*
X7061780Y43415381D01*
X7061009Y43362129D01*
X7059635Y43313386D01*
X7057655Y43271618D01*
X7055069Y43239294D01*
X7051874Y43218880D01*
X7050684Y43215170D01*
X7041068Y43200549D01*
X7022197Y43178155D01*
X6996336Y43150192D01*
X6965749Y43118862D01*
X6932703Y43086368D01*
X6899462Y43054914D01*
X6868293Y43026702D01*
X6841461Y43003935D01*
X6821231Y42988817D01*
X6813375Y42984404D01*
X6800253Y42982119D01*
X6773392Y42980070D01*
X6734292Y42978257D01*
X6684453Y42976681D01*
X6625374Y42975342D01*
X6558556Y42974239D01*
X6485497Y42973373D01*
X6407698Y42972744D01*
X6326658Y42972351D01*
X6243877Y42972194D01*
X6160854Y42972275D01*
X6079089Y42972591D01*
X6000082Y42973145D01*
X5925333Y42973935D01*
X5856340Y42974961D01*
X5794604Y42976224D01*
X5741625Y42977724D01*
X5698901Y42979460D01*
X5667933Y42981433D01*
X5650221Y42983642D01*
X5647585Y42984404D01*
X5632256Y42994040D01*
X5609002Y43012609D01*
X5580089Y43037910D01*
X5547783Y43067739D01*
X5514348Y43099894D01*
X5482050Y43132171D01*
X5453155Y43162367D01*
X5429928Y43188280D01*
X5414635Y43207706D01*
X5410276Y43215170D01*
X5406881Y43231101D01*
X5404093Y43259757D01*
X5401913Y43298674D01*
X5400339Y43345382D01*
X5399369Y43397415D01*
X5399001Y43452307D01*
X5399235Y43507589D01*
X5400068Y43560794D01*
X5401500Y43609456D01*
X5403529Y43651107D01*
X5406153Y43683281D01*
X5409372Y43703509D01*
X5410567Y43707150D01*
X5418079Y43717514D01*
X5435309Y43737362D01*
X5461112Y43765490D01*
X5494343Y43800695D01*
X5533855Y43841772D01*
X5578504Y43887517D01*
X5627144Y43936727D01*
X5665837Y43975465D01*
X5910440Y44219261D01*
X5910440Y44261311D01*
X5910440Y44303361D01*
X5797692Y44415920D01*
X5684945Y44528480D01*
X5655827Y44516314D01*
X5613661Y44505577D01*
X5565810Y44504378D01*
X5518244Y44512440D01*
X5486756Y44524195D01*
X5438620Y44555079D01*
X5395667Y44596527D01*
X5362569Y44643901D01*
X5358751Y44651217D01*
X5342102Y44700737D01*
X5338547Y44746586D01*
X5506580Y44746586D01*
X5508355Y44720931D01*
X5512888Y44700102D01*
X5516309Y44692828D01*
X5534305Y44679607D01*
X5560851Y44672627D01*
X5590627Y44671897D01*
X5618310Y44677428D01*
X5638577Y44689228D01*
X5641463Y44692597D01*
X5649246Y44712703D01*
X5651796Y44740209D01*
X5649409Y44768980D01*
X5642386Y44792880D01*
X5636120Y44802280D01*
X5621436Y44812135D01*
X5599979Y44816735D01*
X5578970Y44817520D01*
X5544775Y44814454D01*
X5522718Y44803885D01*
X5510703Y44783762D01*
X5506635Y44752031D01*
X5506580Y44746586D01*
X5338547Y44746586D01*
X5337956Y44754213D01*
X5346315Y44806887D01*
X5358751Y44839043D01*
X5387297Y44883471D01*
X5425123Y44923961D01*
X5467484Y44955706D01*
X5481663Y44963452D01*
X5505926Y44973498D01*
X5531259Y44979052D01*
X5563559Y44981201D01*
X5578970Y44981350D01*
X5628951Y44977866D01*
X5670444Y44966083D01*
X5708189Y44944006D01*
X5745206Y44911366D01*
X5783813Y44864104D01*
X5806034Y44817520D01*
X5807805Y44813808D01*
X5817346Y44764594D01*
X5820509Y44722270D01*
X5975600Y44566060D01*
X6015836Y44525079D01*
X6052749Y44486617D01*
X6084885Y44452256D01*
X6110793Y44423578D01*
X6129023Y44402163D01*
X6138121Y44389594D01*
X6138675Y44388399D01*
X6142570Y44369362D01*
X6145197Y44339132D01*
X6146594Y44301425D01*
X6146801Y44259957D01*
X6145855Y44218445D01*
X6143795Y44180604D01*
X6140659Y44150150D01*
X6136487Y44130800D01*
X6135993Y44129570D01*
X6128481Y44119206D01*
X6111251Y44099358D01*
X6085448Y44071230D01*
X6052217Y44036025D01*
X6012705Y43994948D01*
X5968056Y43949203D01*
X5919416Y43899993D01*
X5880723Y43861255D01*
X5636120Y43617459D01*
X5636120Y43464810D01*
X5636120Y43312161D01*
X5687746Y43260931D01*
X5739372Y43209700D01*
X5912536Y43209700D01*
X6085700Y43209700D01*
X6085678Y43360195D01*
X6085656Y43510690D01*
X6062341Y43525930D01*
X6039837Y43545326D01*
X6015345Y43573717D01*
X5992762Y43606041D01*
X5975986Y43637237D01*
X5975165Y43639163D01*
X5965310Y43678013D01*
X5963766Y43717886D01*
X6131420Y43717886D01*
X6133195Y43692231D01*
X6137728Y43671402D01*
X6141149Y43664128D01*
X6159145Y43650907D01*
X6185691Y43643927D01*
X6215467Y43643197D01*
X6243150Y43648728D01*
X6263417Y43660528D01*
X6266303Y43663897D01*
X6274086Y43684003D01*
X6276636Y43711509D01*
X6274249Y43740280D01*
X6267226Y43764180D01*
X6260960Y43773580D01*
X6246276Y43783435D01*
X6224819Y43788035D01*
X6203810Y43788820D01*
X6169615Y43785754D01*
X6147558Y43775185D01*
X6135543Y43755062D01*
X6131475Y43723331D01*
X6131420Y43717886D01*
X5963766Y43717886D01*
X5963551Y43723431D01*
X5969586Y43769267D01*
X5983112Y43809371D01*
X5983591Y43810343D01*
X6012137Y43854771D01*
X6049963Y43895261D01*
X6092324Y43927006D01*
X6106503Y43934752D01*
X6146748Y43948040D01*
X6193914Y43953602D01*
X6242093Y43951414D01*
X6285378Y43941454D01*
X6299562Y43935505D01*
X6336149Y43912011D01*
X6372619Y43879355D01*
X6403954Y43842561D01*
X6422616Y43812182D01*
X6430398Y43788820D01*
X6436912Y43769263D01*
X6442798Y43720660D01*
X6439826Y43673111D01*
X6433572Y43647800D01*
X6417662Y43612860D01*
X6394849Y43577246D01*
X6368921Y43546185D01*
X6345279Y43525930D01*
X6321964Y43510690D01*
X6321942Y43360195D01*
X6321920Y43209700D01*
X6522149Y43209700D01*
X6722379Y43209700D01*
X6773609Y43261326D01*
X6824840Y43312952D01*
X6824840Y43465206D01*
X6824840Y43617459D01*
X6580237Y43861255D01*
X6529341Y43912283D01*
X6481572Y43960757D01*
X6438073Y44005472D01*
X6399991Y44045224D01*
X6368471Y44078809D01*
X6344659Y44105024D01*
X6329700Y44122663D01*
X6324967Y44129570D01*
X6320076Y44149377D01*
X6316587Y44180554D01*
X6314500Y44219296D01*
X6313815Y44261795D01*
X6314532Y44304248D01*
X6316652Y44342849D01*
X6320174Y44373791D01*
X6324957Y44392950D01*
X6333043Y44404620D01*
X6350536Y44425292D01*
X6375926Y44453337D01*
X6407701Y44487123D01*
X6444352Y44525021D01*
X6484368Y44565398D01*
X6488787Y44569799D01*
X6641960Y44722127D01*
X6641960Y44746586D01*
X6809600Y44746586D01*
X6811375Y44720931D01*
X6815908Y44700102D01*
X6819329Y44692828D01*
X6837325Y44679607D01*
X6863871Y44672627D01*
X6893647Y44671897D01*
X6921330Y44677428D01*
X6941597Y44689228D01*
X6944483Y44692597D01*
X6952266Y44712703D01*
X6954816Y44740209D01*
X6952429Y44768980D01*
X6945406Y44792880D01*
X6939140Y44802280D01*
X6924456Y44812135D01*
X6902999Y44816735D01*
X6881990Y44817520D01*
X6847795Y44814454D01*
X6825738Y44803885D01*
X6813723Y44783762D01*
X6809655Y44752031D01*
X6809600Y44746586D01*
X6641960Y44746586D01*
X6641960Y44760707D01*
X6648929Y44805054D01*
X6668360Y44850370D01*
X6698042Y44893514D01*
X6735763Y44931342D01*
X6779309Y44960713D01*
X6784683Y44963452D01*
X6824928Y44976740D01*
X6872094Y44982302D01*
X6920273Y44980114D01*
X6963558Y44970154D01*
X6977742Y44964205D01*
X7014381Y44940667D01*
X7050932Y44907921D01*
X7082350Y44871020D01*
X7100900Y44840882D01*
X7108751Y44817520D01*
X7112874Y44805252D01*
G37*
D10*
%TO.C,C22*%
X18744000Y39488000D02*
X17728000Y39488000D01*
X18744000Y41012000D02*
X17728000Y41012000D01*
D19*
%TO.C,C2*%
X20644500Y14754000D02*
X20644500Y14246000D01*
X19755500Y14754000D02*
X19755500Y14246000D01*
%TO.C,C12*%
X22246000Y31694500D02*
X22754000Y31694500D01*
X22246000Y30805500D02*
X22754000Y30805500D01*
%TO.C,C13*%
X17246000Y30444500D02*
X17754000Y30444500D01*
X17246000Y29555500D02*
X17754000Y29555500D01*
D10*
%TO.C,U3*%
X9100000Y28650000D02*
X10250000Y28650000D01*
X19500000Y28250000D02*
X19500000Y27500000D01*
X18750000Y28250000D02*
X19500000Y28250000D01*
X9500000Y28250000D02*
X10250000Y28250000D01*
X9500000Y27950000D02*
X9800000Y28250000D01*
X9500000Y27750000D02*
X10000000Y28250000D01*
X9500000Y27500000D02*
X10250000Y28250000D01*
X9500000Y27500000D02*
X9500000Y28250000D01*
X9100000Y27500000D02*
X9100000Y28650000D01*
X19500000Y19000000D02*
X19500000Y18250000D01*
X19500000Y18250000D02*
X18750000Y18250000D01*
X10250000Y18250000D02*
X9500000Y18250000D01*
X9500000Y18250000D02*
X9500000Y19000000D01*
%TO.C,L2*%
X20950000Y37200000D02*
X20950000Y37300000D01*
X22550000Y37200000D02*
X22550000Y37300000D01*
D19*
%TO.C,C7*%
X22246000Y19694500D02*
X22754000Y19694500D01*
X22246000Y18805500D02*
X22754000Y18805500D01*
D10*
%TO.C,U2*%
X17600000Y39150001D02*
X18900000Y39150001D01*
X19150000Y37350000D02*
X17600000Y37349999D01*
D19*
%TO.C,C20*%
X17344500Y14754000D02*
X17344500Y14246000D01*
X16455500Y14754000D02*
X16455500Y14246000D01*
D10*
%TO.C,C24*%
X18758000Y35488000D02*
X17742000Y35488000D01*
X18758000Y37012000D02*
X17742000Y37012000D01*
D19*
%TO.C,R11*%
X23244500Y10954000D02*
X23244500Y10446000D01*
X22355500Y10954000D02*
X22355500Y10446000D01*
%TO.C,R1*%
X7444500Y34754000D02*
X7444500Y34246000D01*
X6555500Y34754000D02*
X6555500Y34246000D01*
%TO.C,C1*%
X6555500Y37496000D02*
X6555500Y38004000D01*
X7444500Y37496000D02*
X7444500Y38004000D01*
D10*
%TO.C,U1*%
X7577000Y37225000D02*
X7577000Y33669000D01*
X7592240Y37219920D02*
X12387760Y37219920D01*
X7856400Y33420080D02*
X7592240Y33686780D01*
X12387760Y33420080D02*
X7856400Y33420080D01*
X12403000Y37225000D02*
X12403000Y33415000D01*
X7352981Y32018000D02*
G75*
G03*
X6785019Y32018000I-283981J0D01*
G01*
X6785019Y32018000D02*
G75*
G03*
X7352981Y32018000I283981J0D01*
G01*
X8495981Y34050000D02*
G75*
G03*
X7928019Y34050000I-283981J0D01*
G01*
X7928019Y34050000D02*
G75*
G03*
X8495981Y34050000I283981J0D01*
G01*
D19*
%TO.C,R9*%
X17555500Y14246000D02*
X17555500Y14754000D01*
X18444500Y14246000D02*
X18444500Y14754000D01*
D10*
%TO.C,C25*%
X18758000Y33988000D02*
X17742000Y33988000D01*
X18758000Y35512000D02*
X17742000Y35512000D01*
D19*
%TO.C,R14*%
X16244500Y36854000D02*
X16244500Y36346000D01*
X15355500Y36854000D02*
X15355500Y36346000D01*
D10*
%TO.C,QWST1*%
X12801000Y7800000D02*
X16151000Y7800000D01*
X16151000Y5746000D02*
X12801000Y5746000D01*
X12801000Y7800000D01*
X16151000Y7800000D01*
X16151000Y5746000D01*
G36*
X16151000Y5746000D02*
G01*
X12801000Y5746000D01*
X12801000Y7800000D01*
X16151000Y7800000D01*
X16151000Y5746000D01*
G37*
D19*
%TO.C,C15*%
X7454000Y22805500D02*
X6946000Y22805500D01*
X7454000Y23694500D02*
X6946000Y23694500D01*
%TO.C,C6*%
X11194500Y15004000D02*
X11194500Y14496000D01*
X10305500Y15004000D02*
X10305500Y14496000D01*
%TO.C,C5*%
X9944500Y15004000D02*
X9944500Y14496000D01*
X9055500Y15004000D02*
X9055500Y14496000D01*
%TD*%
M02*
