%TF.GenerationSoftware,KiCad,Pcbnew,7.0.11-7.0.11~ubuntu22.04.1*%
%TF.CreationDate,2026-02-04T09:47:08+02:00*%
%TF.ProjectId,RP2350-PICO2-XXL_Rev_C,52503233-3530-42d5-9049-434f322d5858,C*%
%TF.SameCoordinates,PX81b3200PY6e263e0*%
%TF.FileFunction,Soldermask,Bot*%
%TF.FilePolarity,Negative*%
%FSLAX46Y46*%
G04 Gerber Fmt 4.6, Leading zero omitted, Abs format (unit mm)*
G04 Created by KiCad (PCBNEW 7.0.11-7.0.11~ubuntu22.04.1) date 2026-02-04 09:47:08*
%MOMM*%
%LPD*%
G01*
G04 APERTURE LIST*
G04 Aperture macros list*
%AMRoundRect*
0 Rectangle with rounded corners*
0 $1 Rounding radius*
0 $2 $3 $4 $5 $6 $7 $8 $9 X,Y pos of 4 corners*
0 Add a 4 corners polygon primitive as box body*
4,1,4,$2,$3,$4,$5,$6,$7,$8,$9,$2,$3,0*
0 Add four circle primitives for the rounded corners*
1,1,$1+$1,$2,$3*
1,1,$1+$1,$4,$5*
1,1,$1+$1,$6,$7*
1,1,$1+$1,$8,$9*
0 Add four rect primitives between the rounded corners*
20,1,$1+$1,$2,$3,$4,$5,0*
20,1,$1+$1,$4,$5,$6,$7,0*
20,1,$1+$1,$6,$7,$8,$9,0*
20,1,$1+$1,$8,$9,$2,$3,0*%
G04 Aperture macros list end*
%ADD10C,2.201600*%
%ADD11C,0.701600*%
%ADD12O,1.301600X2.301600*%
%ADD13O,1.401600X2.101600*%
%ADD14C,1.901600*%
%ADD15RoundRect,0.050800X-0.275000X0.250000X-0.275000X-0.250000X0.275000X-0.250000X0.275000X0.250000X0*%
%ADD16RoundRect,0.050800X0.275000X-0.250000X0.275000X0.250000X-0.275000X0.250000X-0.275000X-0.250000X0*%
%ADD17RoundRect,0.050800X-1.100000X0.300000X-1.100000X-0.300000X1.100000X-0.300000X1.100000X0.300000X0*%
%ADD18C,3.000000*%
%ADD19RoundRect,0.050800X0.250000X0.275000X-0.250000X0.275000X-0.250000X-0.275000X0.250000X-0.275000X0*%
%ADD20RoundRect,0.050800X-0.250000X-0.275000X0.250000X-0.275000X0.250000X0.275000X-0.250000X0.275000X0*%
%ADD21RoundRect,0.050800X-0.889000X0.889000X-0.889000X-0.889000X0.889000X-0.889000X0.889000X0.889000X0*%
%ADD22C,1.879600*%
%ADD23RoundRect,0.050800X-0.635000X0.762000X-0.635000X-0.762000X0.635000X-0.762000X0.635000X0.762000X0*%
%ADD24RoundRect,0.050800X0.762000X0.635000X-0.762000X0.635000X-0.762000X-0.635000X0.762000X-0.635000X0*%
%ADD25RoundRect,0.050800X-0.250000X-0.500000X0.250000X-0.500000X0.250000X0.500000X-0.250000X0.500000X0*%
%ADD26RoundRect,0.050800X-0.750000X-0.600000X0.750000X-0.600000X0.750000X0.600000X-0.750000X0.600000X0*%
G04 APERTURE END LIST*
D10*
%TO.C,MH1*%
X7500000Y2000000D03*
%TD*%
%TO.C,MH2*%
X21500000Y2000000D03*
%TD*%
D11*
%TO.C,USB-C1*%
X11610000Y44970000D03*
X17390000Y44970000D03*
D12*
X10180000Y44470000D03*
X18820000Y44470000D03*
D13*
X10180000Y48650000D03*
X18820000Y48650000D03*
%TD*%
D10*
%TO.C,MH3*%
X7500000Y49000000D03*
%TD*%
%TO.C,MH4*%
X21500000Y49000000D03*
%TD*%
D14*
%TO.C,U3*%
X14500000Y23250000D03*
%TD*%
D15*
%TO.C,R20*%
X14749000Y32742000D03*
D16*
X14749000Y33758000D03*
%TD*%
D17*
%TO.C,U4*%
X17735000Y8405000D03*
X17735000Y7135000D03*
X17735000Y5865000D03*
X17735000Y4595000D03*
X11265000Y4595000D03*
X11265000Y5865000D03*
X11265000Y7135000D03*
X11265000Y8405000D03*
%TD*%
%TO.C,U5*%
X17100000Y8405000D03*
X17100000Y7135000D03*
X17100000Y5865000D03*
X17100000Y4595000D03*
X11900000Y4595000D03*
X11900000Y5865000D03*
X11900000Y7135000D03*
X11900000Y8405000D03*
%TD*%
D18*
%TO.C,FID4*%
X9450000Y1500000D03*
%TD*%
D19*
%TO.C,C26*%
X11692000Y9500000D03*
D20*
X12708000Y9500000D03*
%TD*%
D15*
%TO.C,R25*%
X9288000Y32492000D03*
D16*
X9288000Y33508000D03*
%TD*%
D19*
%TO.C,R16*%
X15684000Y9500000D03*
D20*
X16700000Y9500000D03*
%TD*%
D18*
%TO.C,FID6*%
X19500000Y1500000D03*
%TD*%
D15*
%TO.C,R23*%
X18000000Y32742000D03*
D16*
X18000000Y33758000D03*
%TD*%
D18*
%TO.C,FID5*%
X7500000Y46500000D03*
%TD*%
D19*
%TO.C,R21*%
X7383000Y33458000D03*
D20*
X8399000Y33458000D03*
%TD*%
D15*
%TO.C,R22*%
X7100000Y40242000D03*
D16*
X7100000Y41258000D03*
%TD*%
D15*
%TO.C,R19*%
X17000000Y32742000D03*
D16*
X17000000Y33758000D03*
%TD*%
D21*
%TO.C,EXT1*%
X4340000Y49630000D03*
D22*
X1800000Y49630000D03*
X4340000Y47090000D03*
X1800000Y47090000D03*
X4340000Y44550000D03*
X1800000Y44550000D03*
X4340000Y42010000D03*
X1800000Y42010000D03*
X4340000Y39470000D03*
X1800000Y39470000D03*
X4340000Y36930000D03*
X1800000Y36930000D03*
X4340000Y34390000D03*
X1800000Y34390000D03*
X4340000Y31850000D03*
X1800000Y31850000D03*
X4340000Y29310000D03*
X1800000Y29310000D03*
X4340000Y26770000D03*
X1800000Y26770000D03*
X4340000Y24230000D03*
X1800000Y24230000D03*
X4340000Y21690000D03*
X1800000Y21690000D03*
X4340000Y19150000D03*
X1800000Y19150000D03*
X4340000Y16610000D03*
X1800000Y16610000D03*
X4340000Y14070000D03*
X1800000Y14070000D03*
X4340000Y11530000D03*
X1800000Y11530000D03*
X4340000Y8990000D03*
X1800000Y8990000D03*
X4340000Y6450000D03*
X1800000Y6450000D03*
X4340000Y3910000D03*
X1800000Y3910000D03*
X4340000Y1370000D03*
X1800000Y1370000D03*
%TD*%
D23*
%TO.C,L3*%
X10685000Y33276000D03*
X10685000Y31244000D03*
%TD*%
D21*
%TO.C,EXT2*%
X27200000Y49630000D03*
D22*
X24660000Y49630000D03*
X27200000Y47090000D03*
X24660000Y47090000D03*
X27200000Y44550000D03*
X24660000Y44550000D03*
X27200000Y42010000D03*
X24660000Y42010000D03*
X27200000Y39470000D03*
X24660000Y39470000D03*
X27200000Y36930000D03*
X24660000Y36930000D03*
X27200000Y34390000D03*
X24660000Y34390000D03*
X27200000Y31850000D03*
X24660000Y31850000D03*
X27200000Y29310000D03*
X24660000Y29310000D03*
X27200000Y26770000D03*
X24660000Y26770000D03*
X27200000Y24230000D03*
X24660000Y24230000D03*
X27200000Y21690000D03*
X24660000Y21690000D03*
X27200000Y19150000D03*
X24660000Y19150000D03*
X27200000Y16610000D03*
X24660000Y16610000D03*
X27200000Y14070000D03*
X24660000Y14070000D03*
X27200000Y11530000D03*
X24660000Y11530000D03*
X27200000Y8990000D03*
X24660000Y8990000D03*
X27200000Y6450000D03*
X24660000Y6450000D03*
X27200000Y3910000D03*
X24660000Y3910000D03*
X27200000Y1370000D03*
X24660000Y1370000D03*
%TD*%
D15*
%TO.C,R24*%
X15765000Y32742000D03*
D16*
X15765000Y33758000D03*
%TD*%
D20*
%TO.C,R27*%
X9923000Y29775000D03*
D19*
X8907000Y29775000D03*
%TD*%
D24*
%TO.C,C27*%
X12590000Y33077000D03*
X12590000Y31045000D03*
%TD*%
D25*
%TO.C,MICRO_SD1*%
X17600000Y41300000D03*
X16500000Y41300000D03*
X15400000Y41300000D03*
X14650000Y41300000D03*
X13200000Y41300000D03*
X12100000Y41300000D03*
X11000000Y41300000D03*
X9900000Y41300000D03*
X13950000Y41300000D03*
D26*
X8450000Y39550000D03*
X8450000Y35100000D03*
X19050000Y39550000D03*
X19050000Y35100000D03*
%TD*%
D15*
%TO.C,R26*%
X8018000Y31299000D03*
D16*
X8018000Y32315000D03*
%TD*%
G36*
X17231121Y50836998D02*
G01*
X17277614Y50783342D01*
X17289000Y50731000D01*
X17289000Y49840000D01*
X17268998Y49771879D01*
X17215342Y49725386D01*
X17163000Y49714000D01*
X11827000Y49714000D01*
X11758879Y49734002D01*
X11712386Y49787658D01*
X11701000Y49840000D01*
X11701000Y50731000D01*
X11721002Y50799121D01*
X11774658Y50845614D01*
X11827000Y50857000D01*
X17163000Y50857000D01*
X17231121Y50836998D01*
G37*
M02*
